<svg xmlns="http://www.w3.org/2000/svg" width="213.694" height="150" viewBox="0 0 213.694 150"><defs><style>.a{opacity:0.6;}.b{fill:#36334a;}.c,.l,.m{fill:#4da6e8;}.c,.k{opacity:0.2;}.d,.e{fill:#01bfb0;}.e,.l,.r{opacity:0.3;}.f{fill:#3f3d56;}.g{opacity:0.1;}.h{fill:none;stroke:#3f3d56;stroke-miterlimit:10;stroke-width:4px;}.i{fill:#57b894;}.j{fill:#656380;}.n{fill:#fff;}.o{fill:#fbbebe;}.p{fill:#ff6584;}.q{fill:#f2f2f2;}.r{fill:#174079;}</style></defs><g class="a" transform="translate(32.701 39.634)"><path class="b" d="M202.369,291.729l.559-25.864a1.52,1.52,0,0,1,1.361-1.489,188.83,188.83,0,0,1,36.19,0,1.521,1.521,0,0,1,1.369,1.517v25.861a1.517,1.517,0,0,1-1.43,1.527c-12.467.6-24.685.624-36.617,0A1.518,1.518,0,0,1,202.369,291.729Z" transform="translate(-202.369 -263.507)"/><path class="b" d="M202.369,291.729l.559-25.864a1.52,1.52,0,0,1,1.361-1.489,188.83,188.83,0,0,1,36.19,0,1.521,1.521,0,0,1,1.369,1.517v25.861a1.517,1.517,0,0,1-1.43,1.527c-12.467.6-24.685.624-36.617,0A1.518,1.518,0,0,1,202.369,291.729Z" transform="translate(-202.369 -263.507)"/><path class="c" d="M202.369,291.729l.559-25.864a1.52,1.52,0,0,1,1.361-1.489,188.83,188.83,0,0,1,36.19,0,1.521,1.521,0,0,1,1.369,1.517v25.861a1.517,1.517,0,0,1-1.43,1.527c-12.467.6-24.685.624-36.617,0A1.518,1.518,0,0,1,202.369,291.729Z" transform="translate(-202.369 -263.507)"/><rect class="d" width="13.799" height="3.224" rx="1.612" transform="translate(4.127 5.591)"/><rect class="e" width="31.513" height="1.517" rx="0.759" transform="translate(4.22 11.185)"/><rect class="e" width="31.513" height="1.517" rx="0.759" transform="translate(4.22 15.168)"/><rect class="e" width="20.885" height="1.517" rx="0.759" transform="translate(4.22 19.15)"/></g><g class="a" transform="translate(123.885)"><path class="b" d="M691.37,82.729l.559-25.864a1.52,1.52,0,0,1,1.361-1.489,188.823,188.823,0,0,1,36.19,0,1.52,1.52,0,0,1,1.369,1.517V82.754a1.517,1.517,0,0,1-1.43,1.517c-12.467.6-24.685.624-36.617,0A1.518,1.518,0,0,1,691.37,82.729Z" transform="translate(-691.37 -54.507)"/><path class="b" d="M691.37,82.729l.559-25.864a1.52,1.52,0,0,1,1.361-1.489,188.823,188.823,0,0,1,36.19,0,1.52,1.52,0,0,1,1.369,1.517V82.754a1.517,1.517,0,0,1-1.43,1.517c-12.467.6-24.685.624-36.617,0A1.518,1.518,0,0,1,691.37,82.729Z" transform="translate(-691.37 -54.507)"/><path class="c" d="M691.37,82.729l.559-25.864a1.52,1.52,0,0,1,1.361-1.489,188.823,188.823,0,0,1,36.19,0,1.52,1.52,0,0,1,1.369,1.517V82.754a1.517,1.517,0,0,1-1.43,1.517c-12.467.6-24.685.624-36.617,0A1.518,1.518,0,0,1,691.37,82.729Z" transform="translate(-691.37 -54.507)"/><rect class="d" width="13.799" height="3.224" rx="1.612" transform="translate(4.127 5.591)"/><rect class="e" width="31.513" height="1.517" rx="0.759" transform="translate(4.22 11.185)"/><rect class="e" width="31.513" height="1.517" rx="0.759" transform="translate(4.22 15.168)"/><rect class="e" width="20.885" height="1.517" rx="0.759" transform="translate(4.22 19.15)"/></g><path class="f" d="M240.694,658.127c0,1.8-1.318,3.541-3.787,5.2a34.6,34.6,0,0,1-6.991,3.4c-8.2,3.089-20.683,5.721-36.022,7.639q-1.937.241-3.934.47a507.117,507.117,0,0,1-56.112,2.92C74.837,677.754,27,668.967,27,658.127S74.837,638.5,133.847,638.5,240.694,647.286,240.694,658.127Z" transform="translate(-27 -527.754)"/><ellipse class="g" cx="39.159" cy="7.965" rx="39.159" ry="7.965" transform="translate(61.721 128)"/><path class="g" d="M783.588,672.362c0,4.4-13.8,8.058-35.429,8.058S709,676.852,709,672.455s17.528-7.965,39.159-7.965S783.588,667.962,783.588,672.362Z" transform="translate(-581.828 -548.816)"/><path class="g" d="M920.527,765.966a31.831,31.831,0,0,1-6.432,3.666c-8.2,3.089-20.683,5.721-36.022,7.638q-1.937.241-3.934.47c-3.886-1.24-6.139-2.708-6.139-4.286,0-4.4,17.528-7.965,39.158-7.965C911.854,765.49,916.355,765.659,920.527,765.966Z" transform="translate(-711.179 -630.663)"/><rect class="f" width="1.923" height="16.123" rx="0.961" transform="translate(132.875 36.41)"/><rect class="f" width="1.08" height="5.308" rx="0.54" transform="translate(68.949 23.781)"/><rect class="f" width="1.216" height="9.239" rx="0.608" transform="translate(68.91 33.498)"/><rect class="f" width="1.158" height="9.319" rx="0.579" transform="translate(68.928 45.968)"/><rect class="f" width="64.351" height="133.004" rx="32.175" transform="translate(69.561 6.239)"/><rect class="b" width="8.986" height="1.857" rx="0.928" transform="translate(95.528 10.21)"/><ellipse class="b" cx="1.035" cy="1.052" rx="1.035" ry="1.052" transform="translate(105.874 10.087)"/><path class="b" d="M477.753,110.87V226.547a5.155,5.155,0,0,1-5.111,5.2H426.461a5.155,5.155,0,0,1-5.111-5.2V110.87a5.155,5.155,0,0,1,5.111-5.2h6.91v.9a4.247,4.247,0,0,0,4.209,4.278h23.5a4.245,4.245,0,0,0,4.208-4.28v-.9h7.367A5.155,5.155,0,0,1,477.753,110.87Z" transform="translate(-347.816 -95.968)"/><rect class="f" width="5.781" height="0.759" transform="translate(75.147 20.76)"/><rect class="f" width="5.781" height="0.759" transform="translate(75.147 22.087)"/><rect class="f" width="5.781" height="0.759" transform="translate(75.147 23.415)"/><rect class="f" width="5.781" height="0.759" transform="translate(75.147 20.76)"/><rect class="f" width="5.781" height="0.759" transform="translate(75.147 22.087)"/><rect class="f" width="5.781" height="0.759" transform="translate(75.147 23.415)"/><path class="f" d="M697.978,163.806h-.17l-.065-.055a1.457,1.457,0,0,0,.332-.927,1.388,1.388,0,1,0-1.38,1.419,1.427,1.427,0,0,0,.91-.338l.063.053v.174l1.07,1.092.321-.328Zm-1.283,0a.966.966,0,0,1-.9-.6,1,1,0,0,1,.207-1.072.954.954,0,0,1,1.053-.215.994.994,0,0,1,.317,1.6A.952.952,0,0,1,696.695,163.806Z" transform="translate(-570.682 -141.146)"/><path class="h" d="M52.186,632.827c.559-1.045-.075-2.325-.8-3.256s-1.606-1.9-1.587-3.089c.028-1.707,1.809-2.716,3.232-3.62a15.713,15.713,0,0,0,2.9-2.372,4.359,4.359,0,0,0,.891-1.214,5,5,0,0,0,.269-2.156q-.1-3.662-.356-7.3" transform="translate(-45.547 -504.513)"/><path class="i" d="M78.75,598.274a2.661,2.661,0,0,0-1.305-2.181l-.586,1.178.019-1.426a2.607,2.607,0,0,0-.863-.106,2.655,2.655,0,1,0,2.737,2.536Z" transform="translate(-64.856 -493.1)"/><path class="i" d="M54.969,687.562a2.6,2.6,0,0,1-3.012,1.343,2.664,2.664,0,0,1,.307-5.186,2.606,2.606,0,0,1,2.832,1.7l-1.635,1.352,1.792-.423A2.692,2.692,0,0,1,54.969,687.562Z" transform="translate(-45.742 -564.375)"/><path class="i" d="M57.357,654.124A2.62,2.62,0,0,1,54.6,651.9a2.655,2.655,0,0,1,1.931-3l-.019,1.1.593-1.193h0a2.585,2.585,0,0,1,1.885.689,2.707,2.707,0,0,1,.738,2.753A2.619,2.619,0,0,1,57.357,654.124Z" transform="translate(-49.422 -536.104)"/><path class="i" d="M91.812,631.507a2.609,2.609,0,0,1-2.519-1.666,2.685,2.685,0,0,1,.691-2.974,2.576,2.576,0,0,1,2.986-.342l-.462,1.289.951-.929a2.705,2.705,0,0,1,.779,2.571A2.632,2.632,0,0,1,91.812,631.507Z" transform="translate(-77.524 -517.786)"/><path class="g" d="M78.476,605.21c-.6.067-1.192.258-1.8.3a1.941,1.941,0,0,1-1.656-.588,8.473,8.473,0,0,1-.483-.867,1.877,1.877,0,0,0-.654-.631,2.691,2.691,0,0,0,.31,2.8,2.587,2.587,0,0,0,2.607.942,2.632,2.632,0,0,0,1.975-1.971Q78.625,605.193,78.476,605.21Z" transform="translate(-64.934 -499.327)"/><path class="g" d="M91.653,637.983a2.6,2.6,0,0,1-2.3-1.178,2.693,2.693,0,0,1-.186-2.615,1.952,1.952,0,0,1,.526.533,8.939,8.939,0,0,0,.518.88,2.123,2.123,0,0,0,1.736.618c.632-.028,1.242-.212,1.865-.271.088,0,.175-.013.265-.015A2.632,2.632,0,0,1,91.653,637.983Z" transform="translate(-77.366 -524.262)"/><path class="g" d="M57.585,660.847a2.6,2.6,0,0,1-2.29-1.157,2.694,2.694,0,0,1-.22-2.59,2.156,2.156,0,0,1,.559.54,8.9,8.9,0,0,0,.569.9,2.391,2.391,0,0,0,1.852.66c.668-.017,1.274-.175,1.917-.226A2.618,2.618,0,0,1,57.585,660.847Z" transform="translate(-49.65 -542.827)"/><path class="g" d="M54.664,694.831a2.6,2.6,0,0,1-3.453,1.341,2.677,2.677,0,0,1-1.318-3.512,2.592,2.592,0,0,1,.58.52,10.953,10.953,0,0,0,.7.948,3.226,3.226,0,0,0,2.169.776,11.405,11.405,0,0,0,1.322-.072Z" transform="translate(-45.438 -571.644)"/><path class="j" d="M41.43,719.95a7.454,7.454,0,0,0,2.689-.516c.623-.451,3.17-.988,3.33-.266s3.1,3.6.774,3.615-5.419-.38-6.042-.759S41.43,719.95,41.43,719.95Z" transform="translate(-38.739 -592.839)"/><path class="k" d="M48.264,727.348c-2.333.019-5.419-.368-6.04-.759-.474-.294-.662-1.346-.725-1.83H41.43s.131,1.694.746,2.086,3.709.774,6.042.758c.673,0,.9-.248.891-.609C49.021,727.208,48.766,727.345,48.264,727.348Z" transform="translate(-38.739 -597.656)"/><path class="h" d="M254.105,524.063c-.884-1.665.119-3.705,1.272-5.19s2.56-3.034,2.53-4.931c-.043-2.719-2.881-4.326-5.15-5.769a25.213,25.213,0,0,1-4.623-3.779,6.857,6.857,0,0,1-1.421-1.934,7.968,7.968,0,0,1-.427-3.438q.147-5.824.559-11.632" transform="translate(-205.386 -405.3)"/><path class="i" d="M226.249,469.034a4.242,4.242,0,0,1,2.081-3.474l.932,1.879-.028-2.276a4.136,4.136,0,0,1,4.633,1.683,4.3,4.3,0,0,1-.167,5,4.129,4.129,0,0,1-4.735,1.361,4.243,4.243,0,0,1-2.716-4.172Z" transform="translate(-189.093 -387.148)"/><path class="i" d="M264.147,611.293a4.144,4.144,0,0,0,4.81,2.15,4.255,4.255,0,0,0-.489-8.283,4.162,4.162,0,0,0-4.522,2.72l2.611,2.156-2.866-.675A4.277,4.277,0,0,0,264.147,611.293Z" transform="translate(-219.554 -500.699)"/><path class="i" d="M259.841,558.059a4.189,4.189,0,0,0,4.31-3.561,4.244,4.244,0,0,0-2.988-4.76l.022,1.748-.944-1.9h-.011a4.242,4.242,0,0,0-.39,8.475Z" transform="translate(-213.188 -455.701)"/><path class="i" d="M205.587,521.9a4.168,4.168,0,0,0,4.065-2.645,4.291,4.291,0,0,0-1.11-4.776,4.117,4.117,0,0,0-4.8-.515l.746,2.054-1.516-1.481a4.291,4.291,0,0,0-1.1,4.571A4.179,4.179,0,0,0,205.6,521.9Z" transform="translate(-169.059 -426.398)"/><path class="g" d="M227.2,480.092c.964.106,1.9.411,2.866.472a3.08,3.08,0,0,0,2.637-.939,13.028,13.028,0,0,0,.772-1.381,3.018,3.018,0,0,1,1.05-1.005,4.3,4.3,0,0,1-.431,4.533,4.134,4.134,0,0,1-4.22,1.524,4.208,4.208,0,0,1-3.146-3.241C226.888,480.062,227.045,480.073,227.2,480.092Z" transform="translate(-189.486 -397.075)"/><path class="g" d="M206.009,532.289a4.152,4.152,0,0,0,3.665-1.884,4.306,4.306,0,0,0,.3-4.165,3.071,3.071,0,0,0-.839.854,13.993,13.993,0,0,1-.826,1.4,3.373,3.373,0,0,1-2.767.984c-1.007-.047-1.977-.338-2.983-.43-.14-.013-.28-.023-.421-.027A4.19,4.19,0,0,0,206.009,532.289Z" transform="translate(-169.482 -436.783)"/><path class="g" d="M260.643,568.752a4.149,4.149,0,0,0,3.642-1.849,4.3,4.3,0,0,0,.36-4.123,3.35,3.35,0,0,0-.882.863,14.555,14.555,0,0,1-.906,1.43,3.822,3.822,0,0,1-2.952,1.053c-1.033-.025-2.027-.281-3.054-.362A4.182,4.182,0,0,0,260.643,568.752Z" transform="translate(-213.99 -466.394)"/><path class="g" d="M266.14,622.911a4.14,4.14,0,0,0,5.416,1.937,4.269,4.269,0,0,0,2.188-5.4,4.178,4.178,0,0,0-.915.831,16.459,16.459,0,0,1-1.119,1.506,5.177,5.177,0,0,1-3.453,1.236A18.217,18.217,0,0,1,266.14,622.911Z" transform="translate(-221.548 -512.317)"/><path class="j" d="M268.563,662.941s-3.291-.1-4.289-.821-5.065-1.576-5.311-.425-4.945,5.731-1.216,5.761,8.635-.588,9.625-1.2S268.563,662.941,268.563,662.941Z" transform="translate(-213.554 -546.095)"/><path class="k" d="M257.674,674.769c3.716.03,8.635-.59,9.626-1.2.746-.467,1.053-2.143,1.154-2.917h.11s-.209,2.7-1.2,3.313-5.909,1.233-9.626,1.2c-1.072,0-1.443-.4-1.423-.971C256.466,674.545,256.874,674.761,257.674,674.769Z" transform="translate(-213.555 -553.808)"/><path class="l" d="M477.753,465.3v52.682a5.155,5.155,0,0,1-5.111,5.2H426.461a5.155,5.155,0,0,1-5.111-5.2V465.4A218.5,218.5,0,0,0,477.753,465.3Z" transform="translate(-347.816 -387.399)"/><ellipse class="l" cx="0.746" cy="0.759" rx="0.746" ry="0.759" transform="translate(95.286 66.369)"/><ellipse class="m" cx="0.746" cy="0.759" rx="0.746" ry="0.759" transform="translate(98.642 66.369)"/><ellipse class="l" cx="0.746" cy="0.759" rx="0.746" ry="0.759" transform="translate(101.999 66.369)"/><ellipse class="l" cx="0.746" cy="0.759" rx="0.746" ry="0.759" transform="translate(105.355 66.369)"/><path class="l" d="M467.369,237.729l.559-25.864a1.52,1.52,0,0,1,1.361-1.489,188.819,188.819,0,0,1,36.19,0,1.521,1.521,0,0,1,1.369,1.517v25.861a1.517,1.517,0,0,1-1.43,1.527c-12.468.6-24.685.624-36.617,0a1.518,1.518,0,0,1-1.432-1.551Z" transform="translate(-385.253 -180.114)"/><path class="l" d="M700.454,215.83v29.325q-2.008-.176-4-.379a1.51,1.51,0,0,1-1.352-1.627l1.773-25.807a1.515,1.515,0,0,1,1.43-1.42Q699.378,215.872,700.454,215.83Z" transform="translate(-570.516 -185.238)"/><path class="l" d="M421.44,215.83v29.325q2.008-.176,4-.379a1.51,1.51,0,0,0,1.352-1.627l-1.773-25.807a1.515,1.515,0,0,0-1.43-1.42Q422.516,215.872,421.44,215.83Z" transform="translate(-347.889 -185.238)"/><rect class="d" width="13.799" height="3.224" rx="1.612" transform="translate(86.242 34.984)"/><rect class="e" width="31.513" height="1.517" rx="0.759" transform="translate(86.335 40.579)"/><rect class="e" width="31.513" height="1.517" rx="0.759" transform="translate(86.335 44.561)"/><rect class="e" width="20.885" height="1.517" rx="0.759" transform="translate(86.335 48.543)"/><path class="n" d="M461.734,580.435a3.473,3.473,0,0,1-1.009.282,1.8,1.8,0,0,0,.774-.99,3.483,3.483,0,0,1-1.119.434,1.741,1.741,0,0,0-2.112-.349,1.8,1.8,0,0,0-.887,1.98,4.962,4.962,0,0,1-3.627-1.872,1.833,1.833,0,0,0-.237.9,1.8,1.8,0,0,0,.785,1.491,1.7,1.7,0,0,1-.8-.224v.023a1.783,1.783,0,0,0,1.412,1.756,1.779,1.779,0,0,1-.463.063,1.6,1.6,0,0,1-.332-.034,1.766,1.766,0,0,0,1.645,1.244,3.482,3.482,0,0,1-2.185.758,3.372,3.372,0,0,1-.419-.026,4.856,4.856,0,0,0,2.693.821,5.024,5.024,0,0,0,5.01-5.1v-.231A3.574,3.574,0,0,0,461.734,580.435Z" transform="translate(-373.694 -480.024)"/><path class="n" d="M564.9,579.61H558.7a.389.389,0,0,0-.386.391v6.321a.389.389,0,0,0,.386.393h3.1V583.9h-.834v-1.036h.834V582.1a1.335,1.335,0,0,1,1.43-1.415c.386,0,.8.03.9.042v.948h-.641c-.436,0-.52.21-.52.521v.66H564l-.136,1.035h-.906v2.8H564.9a.389.389,0,0,0,.384-.392V580A.387.387,0,0,0,564.9,579.61Z" transform="translate(-459.237 -480.032)"/><path class="n" d="M659.633,580.085a1.471,1.471,0,0,1,1.453,1.477v2.955a1.471,1.471,0,0,1-1.453,1.477h-2.909a1.47,1.47,0,0,1-1.452-1.477v-2.958a1.47,1.47,0,0,1,1.452-1.477h2.909m0-.592h-2.909a2.058,2.058,0,0,0-2.034,2.069v2.958a2.058,2.058,0,0,0,2.034,2.069h2.909a2.058,2.058,0,0,0,2.034-2.069v-2.958a2.057,2.057,0,0,0-2.034-2.065Z" transform="translate(-537.645 -479.935)"/><path class="n" d="M667.674,586.627a.436.436,0,0,1-.4-.274.45.45,0,0,1,.1-.484.431.431,0,0,1,.476-.095.448.448,0,0,1,.14.724A.43.43,0,0,1,667.674,586.627Zm-1.889.3a1.183,1.183,0,1,1-1.164,1.183,1.174,1.174,0,0,1,1.164-1.183m0-.59a1.775,1.775,0,1,0,1.745,1.773,1.789,1.789,0,0,0-.51-1.257,1.729,1.729,0,0,0-1.235-.52Z" transform="translate(-545.251 -485)"/><ellipse class="f" cx="3.463" cy="3.522" rx="3.463" ry="3.522" transform="translate(138.154 74.897)"/><ellipse class="f" cx="9.715" cy="12.8" rx="9.715" ry="12.8" transform="translate(140.35 73.437)"/><path class="g" d="M789.385,509.936c-4.867,0-8.9-4.714-9.6-10.866a16.865,16.865,0,0,0-.11,1.932c0,7.07,4.348,12.8,9.715,12.8s9.713-5.731,9.713-12.8a16.876,16.876,0,0,0-.11-1.932C798.282,505.222,794.25,509.936,789.385,509.936Z" transform="translate(-639.32 -414.765)"/><path class="f" d="M873.642,691.758a3.631,3.631,0,0,1-2.105,2.057,18.412,18.412,0,0,1-7.183,1.436,12.235,12.235,0,0,1-1.919-.036,5.5,5.5,0,0,1-3.289-1.538.463.463,0,0,1,.013-.777c1.333-1.491,3.56-2.4,5.8-3.061,1.7-.5,4.662-1.792,6.526-1.617C873.278,688.39,873.9,690.656,873.642,691.758Z" transform="translate(-703.809 -568.034)"/><path class="g" d="M873.642,691.758a3.631,3.631,0,0,1-2.105,2.057,18.412,18.412,0,0,1-7.183,1.436,12.235,12.235,0,0,1-1.919-.036,5.5,5.5,0,0,1-3.289-1.538.463.463,0,0,1,.013-.777c1.333-1.491,3.56-2.4,5.8-3.061,1.7-.5,4.662-1.792,6.526-1.617C873.278,688.39,873.9,690.656,873.642,691.758Z" transform="translate(-703.809 -568.034)"/><path class="f" d="M792.472,611.705a5.475,5.475,0,0,0-.321,4.115,7.179,7.179,0,0,0,2.37,3.413c2.709,2.209,6.439,2.513,9.913,2.482a75.293,75.293,0,0,0,9.094-.639,10.747,10.747,0,0,0,2.954-.7,4.569,4.569,0,0,0,2.534-2.6,3.2,3.2,0,0,0-.841-3.434,5.225,5.225,0,0,0-3.088-.857l-6.206-.375a10.6,10.6,0,0,1,2.174-1.445,9.95,9.95,0,0,0,2.366-2.549,35.053,35.053,0,0,1,3.606-3.772,5.431,5.431,0,0,0,1.8,2.954c.863.812,1.855,1.466,2.75,2.24,2.169,1.872,3.73,4.413,6.012,6.142a11.685,11.685,0,0,0,4.307-2.187l-.886-1.633a1.08,1.08,0,0,0-.334-.425c-.252-.157-.574-.076-.867-.121-.778-.118-1.119-1.032-1.423-1.771-.839-2.025-2.447-3.6-3.817-5.3a26.758,26.758,0,0,1-2.683-4.02,14.324,14.324,0,0,0-1.509-2.465,3.357,3.357,0,0,0-2.454-1.3,4.7,4.7,0,0,0-2.34.868,61.938,61.938,0,0,0-6.34,4.4,14.609,14.609,0,0,1-3.356,2.232c-.522.214-1.074.362-1.576.626a10.518,10.518,0,0,0-2.264,1.929A14.86,14.86,0,0,1,792.472,611.705Z" transform="translate(-649.263 -494.497)"/><path class="o" d="M829.659,532.172a6.645,6.645,0,0,1-.466,2.194,2.7,2.7,0,0,1-1.548,1.517,3.251,3.251,0,0,1-1.51.049,2.877,2.877,0,0,1-1.231-.425,2.694,2.694,0,0,1-.975-1.841c-.1-.7-.06-1.434-.127-2.147a11.82,11.82,0,0,0-.323-1.707c-.045-.19-.091-.379-.138-.558s-.088-.379-.129-.556-.073-.351-.1-.527c-.026-.148-.047-.3-.063-.448a5.172,5.172,0,0,0-.216-1.314,4.174,4.174,0,0,0-.453-.78c-.076-.112-.151-.222-.22-.339a1.622,1.622,0,0,1-.261-1.022.991.991,0,0,1,.039-.165.165.165,0,0,1,.024-.061.492.492,0,0,0,.33-.313.941.941,0,0,0-.041-.485,3.083,3.083,0,0,0-.257-.624c-.071-.131-.312-.366-.313-.516,0-.3.574-.544.809-.662a4.449,4.449,0,0,1,2.307-.482,1.675,1.675,0,0,1,1.348.63,4.2,4.2,0,0,1,.328,1.358.393.393,0,0,0,.08.19.356.356,0,0,0,.2.093,1.218,1.218,0,0,0,.373.015h0a.91.91,0,0,0,.1-.015,1.31,1.31,0,0,0,.546-.239c.1-.028.209-.051.317-.07h.011c.423,1.358.479,2.814.826,4.2a11.1,11.1,0,0,1,.451,2.076v.095c0,.228-.013.457,0,.683a2.343,2.343,0,0,0,.034.3,4.573,4.573,0,0,0,.142.476h0c.017.049.032.1.045.15a.922.922,0,0,1,.024.11h0a4.207,4.207,0,0,1,.041,1.159Z" transform="translate(-673.496 -432.499)"/><ellipse class="o" cx="4.984" cy="5.069" rx="4.984" ry="5.069" transform="translate(145.249 80.652)"/><path class="o" d="M876.208,554.109a8.393,8.393,0,0,0-1.406-3.849q.187,1.172.388,2.344a.855.855,0,0,1-.9-.282,2.87,2.87,0,0,1-.474-.9,18.456,18.456,0,0,0-2.2-4.022,23.275,23.275,0,0,1-9.1-3.167c-2.791-1.561-5.408-3.427-8.156-5.05a11.549,11.549,0,0,0-1.492-.774c-.861-.351-1.829-.533-2.646-.948l-.164-.087a3.24,3.24,0,0,1-.522-.356,2.91,2.91,0,0,1-.25-.233,5.59,5.59,0,0,1-.954-1.625c-.44-.986-.6-2.177-1.033-3.163a3.017,3.017,0,0,1,.671-.482h0l.106-.055a3.017,3.017,0,0,1,.539-.19c.1-.028.209-.051.317-.07h.011a3.065,3.065,0,0,1,1.475.118,6.877,6.877,0,0,1,1.865,1.166,29.528,29.528,0,0,1,2.724,2.2c.481.47.921.984,1.439,1.411a11.016,11.016,0,0,0,1.358.916L866.2,542.1c.949.569,1.9,1.149,2.827,1.758,1.408.923,2.767,1.925,4.125,2.926l2.4,1.769a2.627,2.627,0,0,1,.681.639,2.32,2.32,0,0,1,.3.937A8.716,8.716,0,0,1,876.208,554.109Z" transform="translate(-694.331 -440.772)"/><path class="d" d="M802.132,544.449c-.336,1.534-1.865,2.465-2.655,3.808-.99,1.673-.587,3.616-.214,5.53l-2.04,1.786c-.373.328-.746.656-1.152.948a15.3,15.3,0,0,1-1.842,1.075l-1.805.948a8.5,8.5,0,0,1-1.766.759,6.7,6.7,0,0,1-3.616-.266,1.512,1.512,0,0,1-.4-.163.659.659,0,0,1-.187-.172,1.087,1.087,0,0,1-.119-.694,33.172,33.172,0,0,1,1.082-5.92,17.708,17.708,0,0,1,2.487-6.207,18.732,18.732,0,0,1,2.137-3.146,5.055,5.055,0,0,0,.986-1.3,6.949,6.949,0,0,0,.244-2.251,4.778,4.778,0,0,1,.438-1.64h0a4.6,4.6,0,0,1,.468-.787l.246.582.16.379.207.489c.187.465.393.929.589,1.4a6,6,0,0,0,.895,1.622,1.73,1.73,0,0,0,2.987-.231,5.942,5.942,0,0,0,.61-1.642,5.348,5.348,0,0,0,.067-2.139,25.56,25.56,0,0,0-1.192-4.035,4.181,4.181,0,0,1-.289-1.328.855.855,0,0,1,.015-.154v-.04a3.039,3.039,0,0,1,.539-.19c.1-.028.209-.051.317-.07q.542,3.009,1.1,6.03a.751.751,0,0,0,.026.142c.052.288.106.569.164.865s.112.521.175.779h0c.022.087.045.174.069.26h0c.064.237.136.472.218.7C801.586,541.591,802.451,543,802.132,544.449Z" transform="translate(-644.735 -440.964)"/><path class="p" d="M979.558,693.113a1.815,1.815,0,0,0,.164.859,1.981,1.981,0,0,0,1.708.758,49.724,49.724,0,0,0,11.347-.353,1.273,1.273,0,0,0,.576-.19c.535-.379.205-1.309-.373-1.606a7.163,7.163,0,0,0-1.915-.355,5.991,5.991,0,0,1-1.792-.791q-1.947-1.138-3.838-2.37a3,3,0,0,0-2.48-.723A4.517,4.517,0,0,0,979.558,693.113Z" transform="translate(-801.933 -568.078)"/><path class="o" d="M761.338,542.48h0a.535.535,0,0,1-.019.108c-.007.036-.02.117-.032.176-.1.544-.233,1.089-.373,1.627-.407,1.49-.949,2.956-1.492,4.4q-2.167,5.812-4.339,11.625c-.373.977-.729,1.953-1.143,2.909l-.434.965a13.557,13.557,0,0,0-1.16,3.6,7.609,7.609,0,0,0-.052,2.465,2.514,2.514,0,0,0,1.4,1.9c.373.146.9.343.8.734a.581.581,0,0,1-.509.356,1.94,1.94,0,0,1-1.6-.468c-.4-.366-.716-.933-1.253-1a2.146,2.146,0,0,0-1.057.345c-1.393.647-3.015.19-4.475-.265a1.58,1.58,0,0,1,1.305-1.119,10.411,10.411,0,0,1,1.805-.051.941.941,0,0,0,.548-.144,1.017,1.017,0,0,0,.295-.514,21.911,21.911,0,0,0,.863-3.59c.186-1.274.274-2.568.559-3.825.216-.982.548-1.934.833-2.9.586-1.974.973-4,1.359-6.027a21.956,21.956,0,0,0,.382-2.558c.048-.713.024-1.43.093-2.141a16.949,16.949,0,0,1,.559-2.729q.386-1.458.774-2.918a9.891,9.891,0,0,1,1.764-4.052,3.724,3.724,0,0,1,2.691-1.307,2.617,2.617,0,0,1,.572.063l.093.025a2.241,2.241,0,0,1,.584.245c.3-.19.451-.125.651.173a1.947,1.947,0,0,1,.237,1.037A14.641,14.641,0,0,1,761.338,542.48Z" transform="translate(-611.603 -446.386)"/><path class="d" d="M822.016,543.207l-.013.013-.069.068-.679.69-.334-1.422-1.141-4.873a2.62,2.62,0,0,1,.573.062.97.97,0,0,1,.039-.165l.054.19.388,1.327.733,2.541.119.419h0Z" transform="translate(-671.951 -445.973)"/><rect class="f" width="10.813" height="6.872" rx="3.436" transform="translate(143.559 78.248)"/><ellipse class="f" cx="3.463" cy="3.522" rx="3.463" ry="3.522" transform="translate(154.712 74.897)"/><path class="g" d="M874.247,449.423h-.127a3.524,3.524,0,0,1,0,7.037h.127a3.453,3.453,0,0,0,3.067-1.737,3.576,3.576,0,0,0,0-3.57,3.453,3.453,0,0,0-3.067-1.737Z" transform="translate(-716.158 -374.527)"/><path class="g" d="M771.7,449.428h.127a3.524,3.524,0,0,0,0,7.037H771.7a3.525,3.525,0,0,1,0-7.045Z" transform="translate(-630.079 -374.531)"/><path class="g" d="M806.679,495.342h-8.784a1.027,1.027,0,0,1-1.015-1.032V495a1.027,1.027,0,0,0,1.014,1.032h8.784A1.027,1.027,0,0,0,807.693,495v-.686A1.027,1.027,0,0,1,806.679,495.342Z" transform="translate(-653.321 -410.908)"/><path class="q" d="M901.37,666.729l.559-25.864a1.52,1.52,0,0,1,1.361-1.488,188.8,188.8,0,0,1,36.19,0,1.52,1.52,0,0,1,1.369,1.517v25.861a1.517,1.517,0,0,1-1.43,1.517c-12.468.6-24.685.624-36.617,0A1.518,1.518,0,0,1,901.37,666.729Z" transform="translate(-738.326 -527.76)"/><rect class="f" width="13.799" height="3.224" rx="1.612" transform="translate(167.17 116.338)"/><rect class="r" width="31.513" height="1.517" rx="0.759" transform="translate(167.263 121.932)"/><rect class="r" width="31.513" height="1.517" rx="0.759" transform="translate(167.263 125.914)"/><rect class="r" width="20.885" height="1.517" rx="0.759" transform="translate(167.263 129.897)"/><path class="o" d="M987.94,628.058s.875,2.558,1.678,1.877l-.636-3.345Z" transform="translate(-808.754 -518.103)"/></svg>