<svg xmlns="http://www.w3.org/2000/svg" xmlns:xlink="http://www.w3.org/1999/xlink" width="643.847" height="425.069" viewBox="0 0 643.847 425.069"><defs><style>.a,.r{fill:#fff;}.a,.l,.m{opacity:0.1;}.b{fill:url(#a);}.c{fill:#3a3768;}.d{fill:#4a2b2f;}.e{fill:#a1616a;}.f{fill:#2d293d;}.g{fill:#b96b6b;}.h,.v{opacity:0.05;}.i{fill:#3f3d56;}.j,.s{fill:#01bfb0;}.k{fill:#f86d70;}.n{fill:#efb7b9;}.o{fill:#4c4981;}.p{fill:#444053;}.q{fill:#925978;}.s{opacity:0.435;}.t{fill:none;stroke:#444053;stroke-miterlimit:10;}.u{fill:url(#b);}.w{fill:#ffcdd3;}</style><linearGradient id="a" x1="-0.232" y1="0.5" x2="0.769" y2="0.5" gradientUnits="objectBoundingBox"><stop offset="0" stop-color="gray" stop-opacity="0.251"/><stop offset="0.54" stop-color="gray" stop-opacity="0.122"/><stop offset="1" stop-color="gray" stop-opacity="0.102"/></linearGradient><linearGradient id="b" x1="-3.46" y1="0.929" x2="-3.46" y2="-0.082" xlink:href="#a"/></defs><g transform="translate(0 -0.005)"><circle class="a" cx="12.67" cy="12.67" r="12.67" transform="translate(564.626 204.695)"/><circle class="a" cx="21.233" cy="21.233" r="21.233" transform="translate(601.381 139.643)"/><circle class="a" cx="12.67" cy="12.67" r="12.67" transform="translate(254.03 3.604)"/><circle class="a" cx="12.67" cy="12.67" r="12.67" transform="translate(399.359 18.166)"/><circle class="a" cx="21.233" cy="21.233" r="21.233" transform="translate(0 169.85)"/><path class="a" d="M415.526,157.2c-37.909-1.412-74.014-14.556-108.491-28.941S238.4,97.948,201.431,90.328c-23.8-4.9-51.012-5.6-70.189,8.107-18.48,13.214-24.443,35.959-27.629,57.081-2.413,15.9-3.831,32.626,2.776,47.5,4.586,10.332,12.734,19.013,18.369,28.906,19.6,34.43,5.746,76.89-15.5,110.506-9.958,15.768-21.52,30.81-29.211,47.6s-11.264,36.023-4.551,53.15c6.666,16.987,22.557,29.721,39.772,38.659,34.963,18.211,76.146,23.43,116.334,26.358,88.927,6.537,178.335,3.708,267.5.873,32.995-1.048,66.142-2.115,98.6-7.615,18.029-3.046,36.638-7.878,49.724-19.54,16.617-14.8,20.735-39.871,9.6-58.434-18.673-31.138-70.289-38.876-83.357-72.292-7.181-18.392.193-38.882,10.637-55.938,22.393-36.6,59.939-68.7,61.913-110.535,1.359-28.7-16.688-57.5-44.593-71.091-29.252-14.251-69.809-12.459-91.376,11.129C488.046,149.136,448.995,158.456,415.526,157.2Z" transform="translate(-59.33 -87.11)"/><path class="b" d="M872.34,458.267a3.462,3.462,0,0,0,.779,2.027,11.515,11.515,0,0,0,3.116,2.648v3.175s9.372,7.831,11.3,10.789c1.857,2.823,3.755,5.7,6.4,7.8a5.769,5.769,0,0,0,2.384,1.265h.158a2.478,2.478,0,0,1-.914.586,2.167,2.167,0,0,0,2.554,1.833,4.266,4.266,0,0,0,1.265-.633l3.714-2.4a10.635,10.635,0,0,0,1.728-1.294c.691-.7,1.172-1.57,1.851-2.284,1.172-1.218,2.835-1.945,3.649-3.409a16.479,16.479,0,0,0,.914-3c.2-.656.5-1.277.7-1.933a6.99,6.99,0,0,0,.24-1.207c.129.111.264.223.4.328.287-.187.838.3.709.621s-.439.545-.545.873c-.234.75.691,1.306,1.078,1.992a5.3,5.3,0,0,1,.228,2.343c.041.779.4,1.716.51,2.589.269,2.038-.738,4.188,0,6.115a1.927,1.927,0,0,0-1.9,1.482,5.611,5.611,0,0,0,.076,2.607,3.585,3.585,0,0,0-1.757,3.274.8.8,0,0,1-.082.586.832.832,0,0,1-.334.193,3.3,3.3,0,0,0-2.038,3.069,1.523,1.523,0,0,1-.059.65,1.54,1.54,0,0,1-.48.492,3.819,3.819,0,0,0-1.423,2.987,2.167,2.167,0,0,0,1.007,1.956h.041a10.543,10.543,0,0,0-3.514,6.672,27.391,27.391,0,0,0,.457,6.906h.211v.17a3.074,3.074,0,0,0,.334,1,14.267,14.267,0,0,1,1.259,5.131,4.542,4.542,0,0,0,.176,1.294,6.526,6.526,0,0,0,.662,1.136,12.083,12.083,0,0,1,1.224,4.276,33.8,33.8,0,0,0,1.494,5.606c.9,2.483,2.1,5.026,1.693,7.615a7.613,7.613,0,0,0-.234,1.88,5.5,5.5,0,0,0,.738,1.974,18.307,18.307,0,0,1,.82,1.828,1.476,1.476,0,0,0,.363.99c.07.193.129.392.187.586s.1.31.146.469a6.011,6.011,0,0,1,.182.8l-.035.615v.586a1.459,1.459,0,0,1-.281.521,2.091,2.091,0,0,1-.152.17l-.141.158a1.056,1.056,0,0,0-.158.229h0a1.1,1.1,0,0,0-.047.674,1.065,1.065,0,0,0,.059.264c.146.633.3,1.265.463,1.892.047.193.1.381.146.586.129.492.258.99.392,1.482v.064l.088.328.334,1.207c.07.24.141.474.2.715l.258.873q.3,1.019.615,2.038c2.091,6.9,4.334,13.759,5.717,20.835a2.243,2.243,0,0,0,.838,1.253,4.826,4.826,0,0,0,1.458.785c.135,1.037.469,2.3.51,2.929a14.216,14.216,0,0,1-.521,6.086.492.492,0,0,0-.445.141,18.164,18.164,0,0,0-1.341,1.423l-2.747,2.929a4.545,4.545,0,0,0-.621.756,2.642,2.642,0,0,0-.264,2.161,2.929,2.929,0,0,0,1.412,1.675,2.343,2.343,0,0,1,.445.252,2.635,2.635,0,0,0,.275.234,1.067,1.067,0,0,0,.586.111,20.914,20.914,0,0,0,4.61-.785,3.7,3.7,0,0,0,1.9-.9,3.562,3.562,0,0,0,.65-1.265l.551-1.523a17.355,17.355,0,0,0,.838-2.841,5.856,5.856,0,0,0-.146-2.929.586.586,0,0,0-.141.24c.135-.849.264-1.7.4-2.56.041-.252.076-.51.111-.773.176,2.279-.158,4.575-.053,6.859a8.007,8.007,0,0,0-.228,1.283,7.756,7.756,0,0,0,2.718,5.635,2.784,2.784,0,0,0,.931.486,3.294,3.294,0,0,0,.961,0,12.245,12.245,0,0,0,3.655-.691,4.492,4.492,0,0,0,2.63-2.5,5.856,5.856,0,0,0,.264-1.8,6.928,6.928,0,0,0-.17-1.9,14.513,14.513,0,0,0-.961-2.22,21.2,21.2,0,0,1-1.089-3.269l-.51-1.857c-.141-.527-.287-1.054-.469-1.57a2.63,2.63,0,0,0-.65-1.236c-.211-.164-.351-.176-.445-.082v-.2a20.988,20.988,0,0,0,.135-2.173c-.141-1.172-1.072-2.126-1.675-3.169A6.194,6.194,0,0,1,934,583.27c-.035-.129-.059-.252-.082-.387a1.365,1.365,0,0,1,.334-.217l1.043.586c-.92-6.912-.433-14.157-3.116-20.589-1.172-2.8-3.427-5.717-3.175-8.733a2.46,2.46,0,0,1,.275-3.924c.451-.246,1.007-.363,1.318-.779a2.124,2.124,0,0,0,.3-.756,119.836,119.836,0,0,1,5.787-17.367c.521-1.236,1.06-2.46,1.6-3.684l1.816-4.129,2.214-5.026c.75-1.693,1.505-3.626.8-5.33a4.51,4.51,0,0,1-.709-2.032,12.79,12.79,0,0,1,.433-1.341,3.338,3.338,0,0,0-.111-1.459c-.146-.633-.31-1.265-.48-1.892a10.546,10.546,0,0,1,1.412.269c.281-.474-.17-1.025-.445-1.505a5.09,5.09,0,0,1-.51-2.091l-.586-5.91a10.478,10.478,0,0,1-.047-2.46c.117-.867.451-1.693.621-2.56.322-1.658,0-3.368.105-5.061a22.686,22.686,0,0,1,.773-4.4c.053-.217.1-.428.152-.644a3.517,3.517,0,0,0,.849.146h.726a2.346,2.346,0,0,0,.322-.082h.07a3.53,3.53,0,0,0,.346-.135c-.141-.3-.269-.586-.392-.9-.053-.123-.1-.246-.146-.369s-.135-.346-.193-.521-.117-.322-.17-.48-.088-.269-.129-.4-.111-.369-.164-.586-.105-.387-.158-.586l.088-.182a5.133,5.133,0,0,0,.966.662c1.172,2.021,2.232,4.1,3.21,6.2a1.968,1.968,0,0,0,.3-.756,3.622,3.622,0,0,0,.416.533,6.21,6.21,0,0,0,1.365,1,3.514,3.514,0,0,0,1.617.586,3.017,3.017,0,0,0,2.068-.9c1.7-1.494,2.554-3.714,3.345-5.857a44.1,44.1,0,0,0,2.519-8.628c.48-3.181.275-6.484,1.172-9.571-.814-1.617-1.33-3.4-2.243-4.967a22.194,22.194,0,0,1-1.546-2.9,10.016,10.016,0,0,1-.275-6.7.92.92,0,0,0-1.072.059,2.242,2.242,0,0,0-.644.937,8.31,8.31,0,0,0-.639,3.936,1.571,1.571,0,0,1-.111.961,1.207,1.207,0,0,1-1.043.439,8.985,8.985,0,0,1-2.413-.439,22.422,22.422,0,0,0-6.724-.656,5.345,5.345,0,0,0-.586-.586l-.252-.2-.258-.2-.129-.105a2.911,2.911,0,0,1-.246-.217,1.622,1.622,0,0,1-.586-1.025,1.32,1.32,0,0,1,0-.152,1.125,1.125,0,0,1,0-.141,1.971,1.971,0,0,1,.135-.41,2.746,2.746,0,0,1,.129-.264l.064-.135c0-.041.041-.088.064-.129a3.89,3.89,0,0,0,.187-.492,3.6,3.6,0,0,0,.123-.51,3.849,3.849,0,0,0,.053-.521V445.8a5.331,5.331,0,0,0-.217-1.043,5.8,5.8,0,0,0-.281-.75,8.327,8.327,0,0,0-.5-.925,14.167,14.167,0,0,0-1.254-1.7l-.346-.4-.351-.4a13.926,13.926,0,0,1-1.019-1.248,4.848,4.848,0,0,1-.586-1.043c-.047-.123-.088-.246-.123-.375a3.81,3.81,0,0,1-.105-.726v-.24a9.027,9.027,0,0,1,.047-.978c.047-.457.111-.92.176-1.388.041-.31.088-.621.129-.931a3.123,3.123,0,0,1,.059-.463c.035-.31.07-.621.094-.931a8.929,8.929,0,0,0-.152-2.712,5.137,5.137,0,0,0-.275-.867,5.5,5.5,0,0,0-.586-1.054,7.614,7.614,0,0,0-3.257-2.536,15,15,0,0,0-2.982-.955c-.41-.088-.814-.164-1.218-.228-6.092-.978-12.558.873-16.4,5.857a22.724,22.724,0,0,0-4.434,8.687,12.4,12.4,0,0,0,1.4,9.471c.756,1.172,1.757,2.156,2.419,3.362.551.984.879,2.091,1.47,3.052a7.2,7.2,0,0,0,3.251,2.735l-.258.234a7.9,7.9,0,0,0-1.822.035c-.621.105-1.224.346-1.851.422-.773.1-1.564-.053-2.343.047a7.4,7.4,0,0,0-3.719,2.138c-1.283,1.119-2.659,2.425-2.759,4.1v.047l-.861,1.171a4.616,4.616,0,0,0-.539.849,14.29,14.29,0,0,0-.34,2.624,5.612,5.612,0,0,1-.679,1.564,35.174,35.174,0,0,1-2.929,4.37,7.4,7.4,0,0,1-1.822,1.8,3.28,3.28,0,0,1-1.9.539,12.165,12.165,0,0,1-2.776-1.857,17.906,17.906,0,0,1-2.454-3.052c-1.394-2.009,2.929,4,1.535,1.986l-12.5-20.829a16.978,16.978,0,0,1-.492-2.964c0-.381-.158-.884-.545-.9a.662.662,0,0,0-.439.211,2.543,2.543,0,0,0-.814,2.167,3,3,0,0,0-1.915.34,1.1,1.1,0,0,0-.24,1.558v.158a.832.832,0,0,0-.439.879,2.975,2.975,0,0,0-2.056.1c-.615.346-.849,1.359-.252,1.757a1.8,1.8,0,0,0-1.148,1.7Zm78.3,2.987a9.664,9.664,0,0,0,1.1.281,17.483,17.483,0,0,1,3.4,1.171,1.863,1.863,0,0,1,.885.662,1.968,1.968,0,0,1-.105,1.663l-1.546,4.176c-.246.656-.486,1.312-.791,1.939-.117.252-.252.5-.387.75q-.07-.211-.141-.4a34.265,34.265,0,0,1-1.113-3.889c-.258-1.136-.474-2.284-.656-3.432a16.773,16.773,0,0,0-.65-2.917Zm-1.617-3.274.117.082a1.319,1.319,0,0,1,.4.281.627.627,0,0,1,0,.586Zm-2.794-4.024,1.851.269a2.431,2.431,0,0,1,1.248.428.838.838,0,0,1,.17,1.171,2.785,2.785,0,0,1-.41.275,1.171,1.171,0,0,0-.439,1.212,13.144,13.144,0,0,0-1.06-1.646,8.14,8.14,0,0,0-1.236-1.265C946.313,454.255,946.278,454.1,946.231,453.956ZM928.442,587.113a6.615,6.615,0,0,0,.685,0,6.578,6.578,0,0,0-.111,1.664Z" transform="translate(-390.896 -226.522)"/><path class="c" d="M957.305,426.042c3.216.515,6.789,1.757,8.019,4.768.925,2.279.211,4.838,0,7.287a5.53,5.53,0,0,0,.07,1.939,6.8,6.8,0,0,0,1.7,2.665,14.2,14.2,0,0,1,2.448,3.427,4.99,4.99,0,0,1,.164,4.1,2.983,2.983,0,0,0-.4,1.078c-.041.838.832,1.365,1.476,1.9,2.413,2,2.308,5.635,2.343,8.786a44.353,44.353,0,0,0,4.194,18.533,5.664,5.664,0,0,1-6.338-.826,21.341,21.341,0,0,0,1.441,4.147c-2.044.99-4.5-.638-5.524-2.659s-1.172-4.381-1.874-6.525-2.044-4.036-2.63-6.2a5.956,5.956,0,0,0-.732-2.074,5.272,5.272,0,0,0-1.289-1.1,12.536,12.536,0,0,1-4.539-6.162,24.147,24.147,0,0,1-7.615.879,8.382,8.382,0,0,1-6.49-3.567c-.586-.961-.92-2.068-1.47-3.052-.674-1.207-1.669-2.2-2.425-3.356a12.392,12.392,0,0,1-1.394-9.46,22.555,22.555,0,0,1,4.434-8.675C944.753,426.914,951.219,425.064,957.305,426.042Z" transform="translate(-417.299 -227.409)"/><path class="d" d="M957.305,426.042c3.216.515,6.789,1.757,8.019,4.768.925,2.279.211,4.838,0,7.287a5.53,5.53,0,0,0,.07,1.939,6.8,6.8,0,0,0,1.7,2.665,14.2,14.2,0,0,1,2.448,3.427,4.99,4.99,0,0,1,.164,4.1,2.983,2.983,0,0,0-.4,1.078c-.041.838.832,1.365,1.476,1.9,2.413,2,2.308,5.635,2.343,8.786a44.353,44.353,0,0,0,4.194,18.533,5.664,5.664,0,0,1-6.338-.826,21.341,21.341,0,0,0,1.441,4.147c-2.044.99-4.5-.638-5.524-2.659s-1.172-4.381-1.874-6.525-2.044-4.036-2.63-6.2a5.956,5.956,0,0,0-.732-2.074,5.272,5.272,0,0,0-1.289-1.1,12.536,12.536,0,0,1-4.539-6.162,24.147,24.147,0,0,1-7.615.879,8.382,8.382,0,0,1-6.49-3.567c-.586-.961-.92-2.068-1.47-3.052-.674-1.207-1.669-2.2-2.425-3.356a12.392,12.392,0,0,1-1.394-9.46,22.555,22.555,0,0,1,4.434-8.675C944.753,426.914,951.219,425.064,957.305,426.042Z" transform="translate(-417.299 -227.409)"/><path class="e" d="M1000.134,491.041c.182,1.172.4,2.3.662,3.438a32.877,32.877,0,0,0,1.107,3.878,3.725,3.725,0,0,1,.346,1.757,3.281,3.281,0,0,1-.428,1.066c-1.47,2.607-3.45,5.125-3.62,8.113a4.365,4.365,0,0,1-.4,2.161q-1.7-3.655-3.755-7.134c-1.429-2.425-3.017-4.873-3.427-7.661a14.532,14.532,0,0,1,.047-3.936,8.57,8.57,0,0,1,1.417-4.141c.967-1.265,3.632-3.181,5.354-2.788C999.46,486.285,999.876,489.407,1000.134,491.041Z" transform="translate(-439.848 -252.244)"/><path class="e" d="M899.356,498.419a17.454,17.454,0,0,1-5.406-3.022,17.639,17.639,0,0,1-2.454-3.046l-4.516-6.525a11.776,11.776,0,0,1-2.4-5.049,16.617,16.617,0,0,1-4.516-10.25c0-.387-.152-.885-.539-.9a.679.679,0,0,0-.445.211,2.548,2.548,0,0,0-.808,2.167,3.005,3.005,0,0,0-1.915.334c-.539.387-.679,1.341-.1,1.664a.826.826,0,0,0-.586.931,2.929,2.929,0,0,0-2.056.1c-.586.346-.849,1.353-.252,1.757a1.757,1.757,0,0,0-1.171,1.716,3.444,3.444,0,0,0,.779,2.021c1.757,2.343,4.8,3.268,6.812,5.365a15.56,15.56,0,0,1,1.757,2.343l5.828,8.868c1.851,2.817,3.755,5.688,6.4,7.784a5.788,5.788,0,0,0,2.378,1.265,2.63,2.63,0,0,0,2.5-.691,4.082,4.082,0,0,0,.732-2.5C899.514,501.477,899.256,499.925,899.356,498.419Z" transform="translate(-390.833 -245.57)"/><path class="f" d="M951.169,725.437a5.06,5.06,0,0,0-.621.755,2.642,2.642,0,0,0-.264,2.161,2.929,2.929,0,0,0,1.412,1.669,2.762,2.762,0,0,1,.445.258,2.639,2.639,0,0,0,.275.234,1.065,1.065,0,0,0,.586.111,21.322,21.322,0,0,0,4.61-.785,3.7,3.7,0,0,0,1.9-.9,3.79,3.79,0,0,0,.65-1.259l.545-1.523a17.879,17.879,0,0,0,.844-2.835,5.905,5.905,0,0,0-.152-2.929.955.955,0,0,0-.2.586,6.484,6.484,0,0,1-1.172,2.841,2.894,2.894,0,0,1-.457.586A2.983,2.983,0,0,1,958.2,725a16.849,16.849,0,0,1-2.929.375.913.913,0,0,1-.4-.047.7.7,0,0,1-.334-.416,1.757,1.757,0,0,1,0-1.171c.264-.738.99-1.224,1.341-1.933.258-.521-.1-1.1-.633-.656a16.223,16.223,0,0,0-1.341,1.423Z" transform="translate(-423.135 -349.453)"/><path class="g" d="M958.131,707.075c.158,2.454.264,5.1-1.078,7.158-.48.744-1.13,1.365-1.681,2.062a2.419,2.419,0,0,0-.586,1.242,1.9,1.9,0,0,0,1.652,1.833,5.465,5.465,0,0,0,2.653-.381,6.391,6.391,0,0,0,2.255-1.06c1.171-.99,1.476-2.636,1.71-4.147l.545-3.514a11.077,11.077,0,0,0,.2-2.56,11.4,11.4,0,0,0-.685-2.759l-.9-2.636a1.241,1.241,0,0,0-.4-.656,1.171,1.171,0,0,0-.685-.123c-.861.041-3.034.357-3.45,1.265C957.3,703.619,958.072,706.149,958.131,707.075Z" transform="translate(-425.047 -341.634)"/><path class="h" d="M958.131,707.075c.158,2.454.264,5.1-1.078,7.158-.48.744-1.13,1.365-1.681,2.062a2.419,2.419,0,0,0-.586,1.242,1.9,1.9,0,0,0,1.652,1.833,5.465,5.465,0,0,0,2.653-.381,6.391,6.391,0,0,0,2.255-1.06c1.171-.99,1.476-2.636,1.71-4.147l.545-3.514a11.077,11.077,0,0,0,.2-2.56,11.4,11.4,0,0,0-.685-2.759l-.9-2.636a1.241,1.241,0,0,0-.4-.656,1.171,1.171,0,0,0-.685-.123c-.861.041-3.034.357-3.45,1.265C957.3,703.619,958.072,706.149,958.131,707.075Z" transform="translate(-425.047 -341.634)"/><path class="i" d="M927.548,582.506a.219.219,0,0,0,0,.064,2.929,2.929,0,0,0,.328,1,14.4,14.4,0,0,1,1.265,5.125,4.342,4.342,0,0,0,.17,1.294,6.908,6.908,0,0,0,.662,1.136,12.052,12.052,0,0,1,1.224,4.27,33.746,33.746,0,0,0,1.494,5.6c.9,2.478,2.1,5.02,1.693,7.615a7.619,7.619,0,0,0-.234,1.874,5.411,5.411,0,0,0,.732,1.974,18.318,18.318,0,0,1,.826,1.828c.24.621.5,1.353.7,2.038a2.771,2.771,0,0,1-.152,2.513,2.853,2.853,0,0,0-.451.551,1.464,1.464,0,0,0,0,.949q.474,2,1.019,4c.281,1.043.586,2.079.885,3.116,2.261,7.58,4.815,15.083,6.332,22.844.217,1.119,1.646,1.921,2.759,2.161a3.6,3.6,0,0,0,3.169-.849,1.955,1.955,0,0,0,.223-.217c1.171-1.253,1.33-3.175,1.248-4.909-.392-7.99-4.417-15.3-6.332-23.067a44.428,44.428,0,0,1-1.242-8.558c-.451-9.647-.627-19.839,2.1-29.1.586-1.927,1.236-4.1.217-5.857a5.713,5.713,0,0,0-3.011-2.2,19.388,19.388,0,0,0-15.048.387,4.688,4.688,0,0,0,0,.586,5.933,5.933,0,0,1-.3,2.659A3.263,3.263,0,0,0,927.548,582.506Z" transform="translate(-413.765 -289.785)"/><path class="f" d="M977.959,713.193l.51,1.857a20.741,20.741,0,0,0,1.084,3.268,14.236,14.236,0,0,1,.967,2.214,7.161,7.161,0,0,1,.164,1.9,5.818,5.818,0,0,1-.264,1.8,4.493,4.493,0,0,1-2.63,2.5,12.421,12.421,0,0,1-3.649.685,2.929,2.929,0,0,1-.961,0,2.678,2.678,0,0,1-.931-.486,7.7,7.7,0,0,1-2.718-5.629,6.917,6.917,0,0,1,.287-1.435c.129-.176,1.412.545.861,1.171-.808.9,1.564.433,2.771.357a11.119,11.119,0,0,0,1.57-.258l1.951-.416c.638-.141,1.377-.357,1.6-.972s-.269-1.341-.65-1.933a12.645,12.645,0,0,1-1.523-5.371c-.047-.369-.5-2.741.439-2a2.636,2.636,0,0,1,.656,1.236C977.672,712.145,977.812,712.666,977.959,713.193Z" transform="translate(-431.157 -345.269)"/><path class="h" d="M942.051,644.613a2.674,2.674,0,0,0,.152-2.507c-.094-.316-.187-.627-.293-.937l7.667-2.589c0,.685.059,1.371.088,2.056a44.544,44.544,0,0,0,1.242,8.564c1.915,7.761,5.939,15.071,6.332,23.055.088,1.839-.105,3.9-1.464,5.137a3.625,3.625,0,0,1-3.175.844c-1.107-.24-2.542-1.043-2.759-2.161-1.517-7.761-4.1-15.264-6.332-22.844q-1.054-3.514-1.9-7.123a1.487,1.487,0,0,1,0-.943A2.859,2.859,0,0,1,942.051,644.613Z" transform="translate(-419.558 -315.559)"/><path class="g" d="M974.589,698.6c.586,1.043,1.529,1.968,1.669,3.163a18.087,18.087,0,0,1-.135,2.173,6.822,6.822,0,0,0,.322,1.757q1.113,4.042,2.577,7.978a2.186,2.186,0,0,1,.2,1.084,1.909,1.909,0,0,1-1.271,1.265,13.428,13.428,0,0,1-5.857.644,3.064,3.064,0,0,1-1.652-.387,2.873,2.873,0,0,1-.931-2.3c-.135-2.489.287-4.99,0-7.468-.094-.9-.287-1.792-.428-2.683a7.867,7.867,0,0,1,.117-3.749,8.58,8.58,0,0,1,1.4-2.343,7.332,7.332,0,0,1,1.951-1.945c.234-.141.9-.586,1.13-.3.123.135.07.5.088.668a6.689,6.689,0,0,0,.135.773A6.35,6.35,0,0,0,974.589,698.6Z" transform="translate(-430.903 -339.096)"/><path class="h" d="M942.568,585.608a2.121,2.121,0,0,1,.146,1.757c-.258,1.06-.679,2.074-1.025,3.11a43.3,43.3,0,0,0-1.324,5.652c-.322,1.728-1,3.649-.72,5.389a38.394,38.394,0,0,0-4.1,12.775c-.158,1.142,2.384,2.624,2.343,3.778-.094,2.3-1.927,2.478-.586,4.311.064.094-.51,2.144-.433,2.232.551.662,1.248,1.171,1.839,1.81a13.84,13.84,0,0,1,1.939,2.841c3.514,6.314,8.546,13.472,6.988,20.5a1.253,1.253,0,0,0,.668,1.265,3.45,3.45,0,0,0,1.476.34h.246c1.172-1.253,1.33-3.175,1.248-4.909-.392-7.99-4.417-15.3-6.332-23.067a44.428,44.428,0,0,1-1.242-8.558c-.451-9.647-.627-19.839,2.1-29.1.586-1.927,1.236-4.1.217-5.857a5.713,5.713,0,0,0-3.011-2.2,19.388,19.388,0,0,0-15.048.387,4.689,4.689,0,0,0,0,.586,5.933,5.933,0,0,1-.3,2.659,3.262,3.262,0,0,0-.3,1.172s-.141-1.552-.141-1.529c3.134.451,6.4,2.5,9.536,2.929a21.775,21.775,0,0,1,4.78,1.054A2.073,2.073,0,0,1,942.568,585.608Z" transform="translate(-413.626 -289.777)"/><path class="i" d="M963.857,560.971c.422,1.341.8,2.694,1.113,4.059a3.315,3.315,0,0,1,.111,1.453,12.751,12.751,0,0,0-.433,1.341,4.488,4.488,0,0,0,.709,2.027c.709,1.71-.047,3.637-.791,5.33l-2.22,5.02-1.816,4.1c-.539,1.224-1.078,2.448-1.6,3.684a119.793,119.793,0,0,0-5.787,17.344,2.128,2.128,0,0,1-.3.756c-.31.41-.867.527-1.318.779a2.454,2.454,0,0,0-.27,3.919c-.258,3.017,2,5.928,3.169,8.722,2.677,6.443,2.191,13.659,3.116,20.56l-1.043-.586c-1,.457-.967,1.874-1.5,2.829-.808,1.441-2.782,1.646-4.428,1.535a3.456,3.456,0,0,1-1.482-.34,1.248,1.248,0,0,1-.662-1.265c1.552-7.029-3.515-14.2-6.994-20.5A13.654,13.654,0,0,0,939.5,618.9c-.586-.627-1.283-1.172-1.839-1.816-1.541-1.851-1.757-4.463-1.634-6.871a38.493,38.493,0,0,1,4.375-16.225c-.275-1.757.4-3.661.726-5.389a42.347,42.347,0,0,1,1.318-5.652c.346-1.037.767-2.05,1.025-3.11a2.121,2.121,0,0,0-.141-1.757,2.061,2.061,0,0,0-.99-.638,22.048,22.048,0,0,0-4.78-1.054l-10.766-1.546a27.384,27.384,0,0,1-.457-6.9,10.608,10.608,0,0,1,7.615-8.88,1.6,1.6,0,0,1,1.4.088A56.131,56.131,0,0,1,963.857,560.971Z" transform="translate(-413.23 -282.22)"/><path class="e" d="M962.855,459.92a5.272,5.272,0,0,0,.469,3.081,4.816,4.816,0,0,0,1.224,1.353,9.074,9.074,0,0,0,3.55,1.757,3.78,3.78,0,0,1,2.12.931c.756.914.252,2.29-.392,3.286a8.4,8.4,0,0,1-4.651,3.848c-1.587.433-3.286.17-4.909.451-1.172.205-2.284.691-3.444.966a10.163,10.163,0,0,1-9.372-2.607c1.722-1.324,3.514-2.735,4.411-4.721a6.712,6.712,0,0,0,.334-4.51c-.416-1.47-1.347-2.929-1.054-4.4s1.757-2.53,3.227-3.04a20.7,20.7,0,0,1,4.059-.82c.756-.105,5.576-1.171,5.857-.644.17.3-.832,2.056-.955,2.443A9.4,9.4,0,0,0,962.855,459.92Z" transform="translate(-422.011 -239.386)"/><path class="h" d="M962.855,459.92a5.272,5.272,0,0,0,.469,3.081,4.816,4.816,0,0,0,1.224,1.353,9.074,9.074,0,0,0,3.55,1.757,3.78,3.78,0,0,1,2.12.931c.756.914.252,2.29-.392,3.286a8.4,8.4,0,0,1-4.651,3.848c-1.587.433-3.286.17-4.909.451-1.172.205-2.284.691-3.444.966a10.163,10.163,0,0,1-9.372-2.607c1.722-1.324,3.514-2.735,4.411-4.721a6.712,6.712,0,0,0,.334-4.51c-.416-1.47-1.347-2.929-1.054-4.4s1.757-2.53,3.227-3.04a20.7,20.7,0,0,1,4.059-.82c.756-.105,5.576-1.171,5.857-.644.17.3-.832,2.056-.955,2.443A9.4,9.4,0,0,0,962.855,459.92Z" transform="translate(-422.011 -239.386)"/><circle class="e" cx="9.776" cy="9.776" r="9.776" transform="translate(525.006 204.496)"/><path class="j" d="M954.535,478.173l-6.625,1.113a24.819,24.819,0,0,1-4.955.5,14.173,14.173,0,0,0-2.73,0c-.627.105-1.224.346-1.857.422-.773.1-1.558-.047-2.343.053a7.385,7.385,0,0,0-3.719,2.132c-1.283,1.113-2.659,2.419-2.753,4.1a1.171,1.171,0,0,0,.076.586,1.716,1.716,0,0,0,.492.515,15.689,15.689,0,0,1,2.771,3.807,14.706,14.706,0,0,0,3.292,3.55c.293-.187.844.3.715.621s-.439.545-.545.873c-.234.75.691,1.3,1.072,1.992a5.384,5.384,0,0,1,.234,2.343c.041.785.392,1.716.51,2.595.264,2.033-.738,4.176,0,6.1a1.915,1.915,0,0,0-1.9,1.482,5.593,5.593,0,0,0,.076,2.6,3.579,3.579,0,0,0-1.757,3.268.586.586,0,0,1-.422.779,3.3,3.3,0,0,0-2.033,3.063,1.506,1.506,0,0,1-.059.65,1.429,1.429,0,0,1-.48.492,3.819,3.819,0,0,0-1.423,2.987,2.191,2.191,0,0,0,1.008,1.956,18.23,18.23,0,0,0,4.452,1.324,39.994,39.994,0,0,0,4.311.761,38.652,38.652,0,0,0,4.036.123l8.868-.035c2.489,0,4.985,0,7.474-.187,2.343-.152,4.686-.445,6.941.164.281-.474-.17-1.025-.445-1.505a5.042,5.042,0,0,1-.51-2.085l-.556-5.91a10.385,10.385,0,0,1-.047-2.448c.123-.873.451-1.7.621-2.56.322-1.658,0-3.368.105-5.055a22.559,22.559,0,0,1,.773-4.4l1.757-7.234a27.929,27.929,0,0,1,.867-3.626q2.021-5.213,4.247-10.332a1.066,1.066,0,0,0-.076-.914l-1.464-2.63a16.789,16.789,0,0,0-1.341-2.138,8.464,8.464,0,0,0-4.95-3.04,8.751,8.751,0,0,0-5.752.855c-.685.363-1.318.814-2.015,1.171A8.242,8.242,0,0,1,954.535,478.173Z" transform="translate(-414.593 -247.74)"/><path class="k" d="M923.707,491.5l-2.308,3.081a3.924,3.924,0,0,0-.539.849,13.749,13.749,0,0,0-.346,2.612,5.446,5.446,0,0,1-.674,1.564,36.07,36.07,0,0,1-2.929,4.37,7.83,7.83,0,0,1-1.822,1.8,3.022,3.022,0,0,1-2.46.433,1.541,1.541,0,0,1,.808.732,8.939,8.939,0,0,1,.586,5.717,5.859,5.859,0,0,1-.644,1.874,2.811,2.811,0,0,1-1.47,1.271,2.167,2.167,0,0,0,2.554,1.833,4.272,4.272,0,0,0,1.265-.633l3.708-2.4a9.855,9.855,0,0,0,1.728-1.294c.691-.691,1.171-1.564,1.851-2.279,1.172-1.212,2.835-1.939,3.649-3.4a16.013,16.013,0,0,0,.908-3c.205-.65.51-1.271.7-1.927a8.611,8.611,0,0,0-.761-6.174A26.378,26.378,0,0,0,923.707,491.5Z" transform="translate(-407.288 -254.63)"/><path class="c" d="M946.162,436.27a12.816,12.816,0,0,1,3.438-3.579,11.734,11.734,0,0,1,6.2-2.624,6.6,6.6,0,0,1,2.788.457c.047-2.765.732-4.6,2.454-4.323,3.216.515,6.789,1.757,8.019,4.768.925,2.279.211,4.838,0,7.287a5.53,5.53,0,0,0,.07,1.939,6.8,6.8,0,0,0,1.7,2.665,14.2,14.2,0,0,1,2.448,3.427,4.99,4.99,0,0,1,.164,4.1,2.983,2.983,0,0,0-.4,1.078c-.041.838.832,1.365,1.476,1.9,2.413,2,2.308,5.635,2.343,8.786a44.353,44.353,0,0,0,4.194,18.533,5.664,5.664,0,0,1-6.338-.826A21.341,21.341,0,0,0,976.158,484c-2.044.99-4.5-.638-5.524-2.659s-1.172-4.381-1.874-6.525-2.044-4.036-2.63-6.2a5.956,5.956,0,0,0-.732-2.074,5.272,5.272,0,0,0-1.289-1.1c-2.1-1.511,1-12.957.176-15.411-1.224.264-3.473-5.641-4.756-11.645a6.062,6.062,0,0,1-2.782.281,3.35,3.35,0,0,0-1-.07,2.648,2.648,0,0,0-.867.351,21.386,21.386,0,0,1-2.958,1.523,17.008,17.008,0,0,1-6.713.586,6.654,6.654,0,0,1,.949-4.8Z" transform="translate(-421.039 -227.568)"/><path class="d" d="M946.162,436.27a12.816,12.816,0,0,1,3.438-3.579,11.734,11.734,0,0,1,6.2-2.624,6.6,6.6,0,0,1,2.788.457c.047-2.765.732-4.6,2.454-4.323,3.216.515,6.789,1.757,8.019,4.768.925,2.279.211,4.838,0,7.287a5.53,5.53,0,0,0,.07,1.939,6.8,6.8,0,0,0,1.7,2.665,14.2,14.2,0,0,1,2.448,3.427,4.99,4.99,0,0,1,.164,4.1,2.983,2.983,0,0,0-.4,1.078c-.041.838.832,1.365,1.476,1.9,2.413,2,2.308,5.635,2.343,8.786a44.353,44.353,0,0,0,4.194,18.533,5.664,5.664,0,0,1-6.338-.826A21.341,21.341,0,0,0,976.158,484c-2.044.99-4.5-.638-5.524-2.659s-1.172-4.381-1.874-6.525-2.044-4.036-2.63-6.2a5.956,5.956,0,0,0-.732-2.074,5.272,5.272,0,0,0-1.289-1.1c-2.1-1.511,1-12.957.176-15.411-1.224.264-3.473-5.641-4.756-11.645a6.062,6.062,0,0,1-2.782.281,3.35,3.35,0,0,0-1-.07,2.648,2.648,0,0,0-.867.351,21.386,21.386,0,0,1-2.958,1.523,17.008,17.008,0,0,1-6.713.586,6.654,6.654,0,0,1,.949-4.8Z" transform="translate(-421.039 -227.568)"/><g class="l" transform="translate(525.943 198.587)"><path d="M990.5,480.65a44.446,44.446,0,0,1-4.194-18.533c0-3.134.088-6.771-2.343-8.786-.644-.533-1.517-1.06-1.482-1.9a2.992,2.992,0,0,1,.41-1.078,5.014,5.014,0,0,0-.164-4.1,14.2,14.2,0,0,0-2.448-3.427,6.812,6.812,0,0,1-1.7-2.665,5.822,5.822,0,0,1-.07-1.939c.24-2.448.961-5.008,0-7.287-1.172-2.929-4.575-4.17-7.708-4.715a1.758,1.758,0,0,1,.844-.053c3.216.515,6.789,1.757,8.019,4.768.925,2.279.211,4.838,0,7.287a5.529,5.529,0,0,0,.07,1.939,6.8,6.8,0,0,0,1.7,2.665,14.2,14.2,0,0,1,2.448,3.427,4.99,4.99,0,0,1,.164,4.1,2.981,2.981,0,0,0-.4,1.078c-.041.838.832,1.365,1.476,1.9,2.413,2,2.308,5.635,2.343,8.786a44.352,44.352,0,0,0,4.194,18.533,5.477,5.477,0,0,1-3.1.586A5.3,5.3,0,0,0,990.5,480.65Z" transform="translate(-957.627 -426.141)"/><path d="M995.071,521.937a20.954,20.954,0,0,1-1.441-4.147,5.348,5.348,0,0,0,1.388.92,21.794,21.794,0,0,0,1.171,3.227,3.069,3.069,0,0,1-1.892.24,2.977,2.977,0,0,0,.773-.24Z" transform="translate(-967.084 -464.108)"/><path d="M964.853,433.283a6.746,6.746,0,0,0-1.863-.439h.223a6.551,6.551,0,0,1,1.652.123C964.859,433.06,964.853,433.166,964.853,433.283Z" transform="translate(-954.391 -428.914)"/><path d="M952.117,449.266a21.446,21.446,0,0,0,2.964-1.523,2.6,2.6,0,0,1,.867-.351,3.2,3.2,0,0,1,.914.053,3.665,3.665,0,0,0-.633.3,21.379,21.379,0,0,1-2.958,1.523,13.343,13.343,0,0,1-4.961.644A11.755,11.755,0,0,0,952.117,449.266Z" transform="translate(-948.31 -434.94)"/><path d="M966.81,447l.053.264a5.74,5.74,0,0,1-1.453.041,6.445,6.445,0,0,0,1.4-.3Z" transform="translate(-955.394 -434.782)"/></g><path class="e" d="M997.892,499.564a3.573,3.573,0,0,0,.961,2.858,6.365,6.365,0,0,0,1.359,1,3.69,3.69,0,0,0,1.617.586,3.052,3.052,0,0,0,2.068-.9c1.7-1.494,2.554-3.708,3.339-5.828a43.726,43.726,0,0,0,2.525-8.616c.48-3.181.275-6.478,1.171-9.565-.808-1.617-1.324-3.4-2.243-4.955a23.351,23.351,0,0,1-1.546-2.9,10.016,10.016,0,0,1-.275-6.689.9.9,0,0,0-1.066.053,2.242,2.242,0,0,0-.644.937,8.3,8.3,0,0,0-.638,3.93,1.564,1.564,0,0,1-.111.961,1.207,1.207,0,0,1-1.043.439,9.253,9.253,0,0,1-2.413-.433,22.369,22.369,0,0,0-7.433-.615,3.515,3.515,0,0,0-1.453.351,1.347,1.347,0,0,0-.744,1.212l5.939.873a2.454,2.454,0,0,1,1.253.428.849.849,0,0,1,.17,1.171,2.344,2.344,0,0,1-.41.269,1.224,1.224,0,0,0,.047,1.956,1.253,1.253,0,0,1,.4.281c.246.328-.076.756-.182,1.172a1.453,1.453,0,0,0,.715,1.482,5.224,5.224,0,0,0,1.658.556,17.467,17.467,0,0,1,3.4,1.172,1.863,1.863,0,0,1,.884.662,1.986,1.986,0,0,1-.106,1.663l-1.546,4.171c-.246.656-.486,1.306-.791,1.939-.392.814-.879,1.581-1.283,2.4a23.914,23.914,0,0,0-.966,2.343C999.714,496.038,998.161,497.309,997.892,499.564Z" transform="translate(-440.184 -243.405)"/><path class="j" d="M514.048,249.17V445.634a65.074,65.074,0,0,0-20.284-3.128c-29.211,0-52.933,20.671-52.933,49.882s23.723,49.653,52.933,49.653,53.08-21.508,53.08-52.717V352.893h154.05v92.74a65.047,65.047,0,0,0-20.284-3.128c-29.211,0-52.933,20.671-52.933,49.882s23.723,49.653,52.933,49.653,53.08-21.508,53.08-52.717V249.17ZM700.9,322.388H546.849V281.972H700.9Z" transform="translate(-212.139 -154.243)"/><path class="j" d="M246.928,212.17V344.02a49.876,49.876,0,1,0,24.953,43.111v-125H321.9V212.17Z" transform="translate(-100.827 -138.915)"/><path class="j" d="M248.718,729.382a31.829,31.829,0,0,0-9.167-3.245,41.919,41.919,0,0,0,6.859-1.54c5.957-1.886,8.962-4.417,6.707-5.652s-8.915-.715-14.872,1.171a22.961,22.961,0,0,0-5.711,2.536c-.615-1.306-2.29-2.823-4.9-4.258-5.272-2.929-12.406-4.375-15.885-3.274s-2.009,4.346,3.286,7.257a31.707,31.707,0,0,0,8.2,3.052,48.223,48.223,0,0,0-5.652,1c-6.484,1.558-10.233,3.907-8.376,5.272s8.628,1.171,15.112-.375a28.242,28.242,0,0,0,6.795-2.4c.533,1.347,2.238,2.929,4.991,4.458,5.272,2.929,12.406,4.375,15.885,3.274S253.99,732.287,248.718,729.382Z" transform="translate(-115.989 -347.113)"/><path class="j" d="M326.988,661.641a15.522,15.522,0,0,0-4.446-1.576,20.913,20.913,0,0,0,3.327-.744c2.894-.92,4.352-2.144,3.257-2.747s-4.329-.346-7.222.586a11.526,11.526,0,0,0-2.771,1.23,5.58,5.58,0,0,0-2.378-2.068c-2.571-1.412-6.027-2.12-7.714-1.587s-.972,2.115,1.593,3.515a15.355,15.355,0,0,0,3.995,1.476,24,24,0,0,0-2.747.492c-3.145.75-4.967,1.892-4.065,2.548s4.188.586,7.333-.182a13.928,13.928,0,0,0,3.3-1.172,5.263,5.263,0,0,0,2.419,2.161c2.571,1.412,6.021,2.126,7.714,1.593S329.559,663.052,326.988,661.641Z" transform="translate(-156.941 -322.178)"/><path class="j" d="M160.718,589.42a9.743,9.743,0,0,0-2.8-.984,12.193,12.193,0,0,0,2.1-.469c1.81-.586,2.724-1.341,2.038-1.716s-2.706-.217-4.516.357a7.2,7.2,0,0,0-1.757.767,3.426,3.426,0,0,0-1.488-1.289c-1.6-.884-3.766-1.33-4.827-1s-.586,1.318,1,2.2a9.541,9.541,0,0,0,2.5.925,14.424,14.424,0,0,0-1.722.31c-1.968.469-3.11,1.171-2.548,1.593s2.624.357,4.592-.111a8.75,8.75,0,0,0,2.068-.732,3.263,3.263,0,0,0,1.511,1.353c1.611.884,3.772,1.33,4.826,1S162.323,590.3,160.718,589.42Z" transform="translate(-91.062 -293.355)"/><path class="m" d="M322.206,212.17v41.763H272.184v125a49.946,49.946,0,0,1-80.944,39.18,49.952,49.952,0,0,0,89.144-30.98v-125h50.022V212.17Z" transform="translate(-108.744 -138.915)"/><path class="n" d="M173.87,225.456l.17,1.277,5.535.785s.451-.34,1.171-.8a17.2,17.2,0,0,1,5.389-2.507c2.9-.586,12.119-4.715,9.149-4.985s-2.665.346-2.665.346-3.274-3.216-6.654-.275c-2.566,2.232-8.2,4.633-10.772,5.658C174.374,225.274,173.87,225.456,173.87,225.456Z" transform="translate(-101.548 -141.353)"/><path class="g" d="M205.835,205.137a9.373,9.373,0,0,1,2.653-.679,3.227,3.227,0,0,1,2.525.843c.357.369.586.843.937,1.218,1.687,1.8,4.961.457,6.994,1.857,1.248.867,1.634,2.5,2.079,3.96s1.253,3.058,2.741,3.368a8.129,8.129,0,0,0,2.161-.082,2.126,2.126,0,0,1,1.945.715c.691,1.048-.264,2.8.738,3.55.9.662,2.519-.264,3.145.656a1.371,1.371,0,0,1-.217,1.523,10.583,10.583,0,0,0-1.019,1.277,1.933,1.933,0,0,0,1.9,2.823c.633-.064,1.306-.422,1.857-.111a1.312,1.312,0,0,1,.586,1.037,2.724,2.724,0,0,1-2.448,2.864,6.056,6.056,0,0,1-3.028-1.007,3.8,3.8,0,0,0-3.087-.5,4.769,4.769,0,0,0-1.242.873,13.6,13.6,0,0,1-3.819,2.261,4.705,4.705,0,0,1-3.807.17c-1.318-.674-2-2.314-3.391-2.812s-2.987.433-4.323,1.224-3.122,1.453-4.329.48c-1.3-1.048-.9-3.151-1.693-4.621a4.54,4.54,0,0,0-1.271-1.4c-.89-.685-1.9-1.2-2.8-1.874a4.686,4.686,0,0,1-1.91-2.683,5.434,5.434,0,0,1,1.089-3.807,10.551,10.551,0,0,0,1.792-3.6c.176-1,0-2.033.228-3.017a3.719,3.719,0,0,1,2.413-2.548c.656-.223.773-.164,1.107-.744a2.343,2.343,0,0,1,1.488-1.212Z" transform="translate(-111.402 -135.713)"/><g class="l" transform="translate(86.261 81.028)"><path d="M249.483,225.44a4.985,4.985,0,0,1,.105,1.757,4.75,4.75,0,0,1-.105-1.757Z" transform="translate(-219.117 -225.44)"/><path d="M253.547,234.873a1.915,1.915,0,0,0-.2.644,1.98,1.98,0,0,1,.07-1.64,10.423,10.423,0,0,1,1.019-1.271,2.161,2.161,0,0,0,.293-.586l.047.053a1.371,1.371,0,0,1-.211,1.517A10.471,10.471,0,0,0,253.547,234.873Z" transform="translate(-220.674 -228.166)"/><path d="M199.514,232.52c.9.679,1.9,1.171,2.794,1.88a4.463,4.463,0,0,1,1.271,1.4c.791,1.47.392,3.573,1.693,4.621,1.207.972,3,.316,4.334-.48s2.858-1.757,4.317-1.224,2.074,2.138,3.4,2.812a4.778,4.778,0,0,0,3.807-.17,13.648,13.648,0,0,0,3.813-2.261,5.037,5.037,0,0,1,1.242-.879,3.793,3.793,0,0,1,3.093.5,5.943,5.943,0,0,0,3.022,1.007,2.753,2.753,0,0,0,2.431-2.407,1.757,1.757,0,0,1,.129.515,2.718,2.718,0,0,1-2.431,2.882,6.085,6.085,0,0,1-3.022-1,3.857,3.857,0,0,0-3.093-.5,5.172,5.172,0,0,0-1.242.873,13.665,13.665,0,0,1-3.813,2.267,4.754,4.754,0,0,1-3.807.17c-1.324-.674-2-2.314-3.4-2.812s-2.987.428-4.317,1.224-3.128,1.453-4.334.474c-1.3-1.048-.9-3.145-1.693-4.621a4.51,4.51,0,0,0-1.271-1.394c-.884-.685-1.9-1.2-2.794-1.88a4.686,4.686,0,0,1-1.915-2.683,3.168,3.168,0,0,1-.059-.7A4.9,4.9,0,0,0,199.514,232.52Z" transform="translate(-197.668 -227.383)"/></g><path class="o" d="M203.449,286.1l-2.009.428s1.98,3.257,5.032,1.119S203.449,286.1,203.449,286.1Z" transform="translate(-112.97 -169.509)"/><path class="m" d="M203.449,286.1l-2.009.428s1.98,3.257,5.032,1.119S203.449,286.1,203.449,286.1Z" transform="translate(-112.97 -169.509)"/><path class="n" d="M279.32,334.607s2.788,1.441,5.383,3.11c1.863,1.172,3.626,2.5,4.2,3.479,1.382,2.343,8.1,4.885,8.1,4.885l6.666,5.073c1.57.521,3.1,2.431,3.725,3.286.187.258.3.422.3.422l2.671-.346,1.406-1.828s.357-4.03-2.419-3.983a3.819,3.819,0,0,1-1.564-.4c-2.987-1.318-7.164-5.477-7.164-5.477s-7.1-8.868-9.225-9.161a3.515,3.515,0,0,1-.668-.17c-2.161-.756-5.272-3.544-5.272-3.544Z" transform="translate(-145.232 -187.706)"/><path class="n" d="M232.212,374.358a63.548,63.548,0,0,0,4.973,14.1c1.289,2.1,1.962,6.314,1.962,6.314l.381,2.929a3.4,3.4,0,0,0,.422,1.136,6.2,6.2,0,0,0,.375.586l5.348-1.646s-.31-1.23-.779-2.642a11.923,11.923,0,0,0-1.839-3.842c-1.306-1.283-1.5-5.811-1.5-5.811s-1.089-8.7-1.423-9.8a15.115,15.115,0,0,1-.586-3.21c-.053-.586-.088-1.253-.094-2.009a41.06,41.06,0,0,0-.843-6.443l-6.238,1.13-.164,6.976a4.651,4.651,0,0,0,.006,2.232Z" transform="translate(-125.66 -201.82)"/><path class="m" d="M327.25,367.419c.187.258.3.422.3.422l2.671-.346,1.406-1.828s.357-4.03-2.419-3.983a3.819,3.819,0,0,1-1.564-.4c-.228,1.207,1.125,2.208,1.125,2.208s.586.41.428,2.3C329.107,367.079,327.965,367.354,327.25,367.419Z" transform="translate(-165.087 -200.685)"/><path class="p" d="M326.75,363.837c.176.65,1.863,1.6,3.034,2.2.586.293,1.025.5,1.113.545.269.135,1.687-1.441,1.88-2.712s3.573-5.225,3.573-5.225A14.176,14.176,0,0,0,337.6,353.7c.129-1.728-.586-1.869-1.435-1.476a5.675,5.675,0,0,0-1.6,1.259,4.288,4.288,0,0,1-2.079,1.078,10.174,10.174,0,0,0-2.993,1.277c-.82.527-1.617,1.171-1.757,1.757-.31,1.248,1.107,2.3,1.107,2.3s.586.41.428,2.3S326.732,363.778,326.75,363.837Z" transform="translate(-164.88 -196.858)"/><path class="m" d="M331.93,366.039c.586.293,1.025.5,1.113.545.269.135,1.687-1.441,1.88-2.712s3.573-5.225,3.573-5.225a14.175,14.175,0,0,0,1.254-4.949c.129-1.728-.586-1.869-1.435-1.476a19.5,19.5,0,0,1-1.171,5.424C336.288,359.3,332.861,364.6,331.93,366.039Z" transform="translate(-167.026 -196.858)"/><path class="m" d="M245.428,420.688l-.053.1a6.2,6.2,0,0,0,.375.586l5.348-1.646s-.31-1.23-.779-2.642c-2.115-.586-5.149,3.11-5.149,3.11Z" transform="translate(-131.085 -223.777)"/><path class="p" d="M244.891,424.85s4.463,1.564,6.443,1.324c1.529-.182,1.593-.89,1.488-2.343-.035-.469-.082-1.007-.111-1.628-.1-2.577-1.136-3.1-1.136-3.1-1.7-4.452-6.59,1.523-6.59,1.523l.252.492a5.388,5.388,0,0,0-.5,2.431,7.1,7.1,0,0,0,.152,1.3Z" transform="translate(-130.905 -223.956)"/><path class="m" d="M244.892,429.16s4.463,1.564,6.443,1.324c1.529-.182,1.593-.89,1.488-2.343a4.727,4.727,0,0,1-3.637,1.043,14.31,14.31,0,0,1-4.446-1.324,7.1,7.1,0,0,0,.152,1.3Z" transform="translate(-130.907 -228.266)"/><path class="n" d="M207.23,239.658l1.757,7.615.357,1.57,3.227.41,3.327.422,3.62-1.312s1.007-3.444.176-6.027a3.819,3.819,0,0,0-1.675-2.208,3.719,3.719,0,0,1-.7-.539,3.057,3.057,0,0,1-.586-.838,3.461,3.461,0,0,1-.31-1.212,8.657,8.657,0,0,1,1.119-4.305s-7.673-2.618-7.076-.925c.392,1.1-.691,3-1.5,4.211-.439.65-.8,1.1-.8,1.1Z" transform="translate(-115.368 -147.021)"/><circle class="m" cx="6.666" cy="6.666" r="6.666" transform="translate(92.12 76.371)"/><circle class="n" cx="6.666" cy="6.666" r="6.666" transform="translate(92.09 76.125)"/><path class="j" d="M207.524,269.957a16.314,16.314,0,0,0,1.757,3.784l9.307,2.284,6.648-6.959v-.047c-.205-.65-2.741-8.856-.908-10.877,1.921-2.1,1.171-8.036,1.171-8.036s-3.321-3.819-3.995-4.745-4.985-1.652-4.985-1.652c.217.293.416.586.586.838a8.2,8.2,0,0,1,1.06,2.249,3.362,3.362,0,0,1-.088,2.443,2.683,2.683,0,0,0-.228.627c-.726,3.181-4.042,2.735-5.36,2.419-.34-.082-.551-.152-.551-.152l-3.169.1-1.992.064s.908,15.686.691,16.934a2,2,0,0,0,.053.726Z" transform="translate(-115.182 -151.981)"/><path class="q" d="M206.841,259.108l5.77-.756h-.105c-.34-.082-.545-.152-.545-.152l-3.175.1-1.986.064S206.812,258.622,206.841,259.108Z" transform="translate(-115.19 -157.983)"/><path class="q" d="M167.52,208.888l2.5.609,3.942-.515,1.025-1.072Z" transform="translate(-69.397 -86.126)"/><path class="q" d="M174.63,211.171l1.13.275.463-.486Z" transform="translate(-72.342 -87.39)"/><path class="m" d="M207.532,268.37c1.488.152,2.858.228,2.858.228l7.667-.287V260.3a11.358,11.358,0,0,0-3.093-2.038c-1.335-.463-2.929-1.88-2.612-5.617a5.355,5.355,0,0,1,.064-.668,8.6,8.6,0,0,0,.07-1.259,6.736,6.736,0,0,0-2.126-4.932,1.014,1.014,0,0,0-.111-.1L209,239.88a1.241,1.241,0,0,0-.252.035c-.439.65-.8,1.1-.8,1.1l-.92,2.015,1.757,7.615-1.992.064s.908,15.686.691,16.934A2,2,0,0,0,207.532,268.37Z" transform="translate(-115.19 -150.394)"/><path class="p" d="M204.48,268.664l7.667-.281V260.37a11.428,11.428,0,0,0-3.087-2.038c-1.412-.492-3.093-2.038-2.548-6.285a6.953,6.953,0,0,0-2.038-6.226l-.117-.1-1.248-5.811a2.7,2.7,0,0,0-1.974,1.13,4.949,4.949,0,0,1-.463.679,1.171,1.171,0,0,1-1.54.457c-.808-.357-4.288-1.828-5.067-.387s-.925,10.022-.925,10.022a6.555,6.555,0,0,1,2.255,3.708c.533,2.454,1.423,2.513,1.423,2.513l.961,7.029s.873,1.529.223,2.372" transform="translate(-109.531 -150.407)"/><path class="p" d="M206,241.741l1.306,3.913,2.5.217-.117-.1-1.248-5.811a2.7,2.7,0,0,0-1.974,1.13,4.951,4.951,0,0,1-.463.65Z" transform="translate(-114.859 -150.427)"/><path class="m" d="M173.87,230.342l.17,1.277,5.535.785s.451-.34,1.171-.8c-.586-.135-3.339-.732-4.78-1.171-.533-.164-.884-.3-.9-.4s.035-.111.123-.182C174.374,230.16,173.87,230.342,173.87,230.342Z" transform="translate(-101.548 -146.239)"/><path class="p" d="M161.727,237.361s6.273,4.762,10.163,5.529c0,0,5.471,1.617,7.615,3.514l2.343-9.032-1.435-.99a5,5,0,0,1-3.192.709c-1.476-.351-3.11-.586-3.11-.586a24.051,24.051,0,0,0-3.977-1.089c-1.054-.088-.627-1.458.428-2.185a2.291,2.291,0,0,1,.439-.246,1.359,1.359,0,0,0,1.757.4,4.012,4.012,0,0,0,1.031-.961h0a13.372,13.372,0,0,0,1.171-1.757s-3.274-.7-4.9-1.207c-.533-.164-.884-.3-.9-.4-.047-.375,2.929-1.558,2.929-1.558s-2.542-1.23-3.573-.334c0,0,.668.5.129.99s-7.029,5.488-7.029,5.488S158.412,235.223,161.727,237.361Z" transform="translate(-95.896 -144.993)"/><path class="m" d="M172,234.789l3.473.5a2.29,2.29,0,0,1,.439-.246,1.359,1.359,0,0,0,1.757.4,4.012,4.012,0,0,0,1.031-.961h0A13.729,13.729,0,0,0,179.65,233s-3.274-.7-4.9-1.207Z" transform="translate(-100.774 -147.043)"/><path class="p" d="M172.34,234.3l3.7.533a1.359,1.359,0,0,0,1.757.4,8.547,8.547,0,0,0,2.2-2.73s-3.274-.7-4.9-1.207Z" transform="translate(-100.915 -146.84)"/><path class="m" d="M285.476,330l-6.156,4.657s2.788,1.441,5.383,3.11c2.267-1.535,4.4-2.929,6.027-4.223C288.569,332.759,285.476,330,285.476,330Z" transform="translate(-145.232 -187.727)"/><path class="m" d="M232.212,374.358a20.861,20.861,0,0,0,4.51-1.078s1.136-.246,2.823-.808c-.053-.586-.088-1.254-.094-2.009a41.054,41.054,0,0,0-.843-6.443l-6.238,1.13-.164,6.976A4.651,4.651,0,0,0,232.212,374.358Z" transform="translate(-125.66 -201.82)"/><path class="p" d="M210.7,313.043c1.253,1.857,4.686,9.753,4.686,9.753A33.583,33.583,0,0,0,218,326.82c1.365,1.716,2.308,5.576,3.345,8.663s-.3,2.507-.158,4.1,6.01-.469,6.01-.469,11.978-2.636,15.639-9.958,18.281-13.952,21.239-18.07-.838-2.419-.691-4.651a6.311,6.311,0,0,0-1.541-4.1s-5.518-1.558-6.414-2.642-5.3-3.8-5.3-3.8-4.153-1.8-4.686-2.425-5.453-2.571-6.959-2.929-2.981-2.519-2.981-2.519-.931.123-2.308-1.212-7.152-2.484-7.152-2.484c-9.858,7.263-16.67,6.25-16.67,6.25l-.158,1.371C203.97,298.78,209.447,311.186,210.7,313.043Z" transform="translate(-115.265 -168.808)"/><path class="m" d="M210.79,291.964s8.523,2.806,16.834-7.574c-9.864,7.228-16.676,6.215-16.676,6.215Z" transform="translate(-116.843 -168.833)"/><path class="m" d="M235.83,305.589s11.445,16.524,12.154,17.127S236.433,305.384,235.83,305.589Z" transform="translate(-127.216 -177.614)"/><path class="m" d="M226.8,303.43s7.925,12.3,7.767,13.964C234.567,317.394,226.917,305.568,226.8,303.43Z" transform="translate(-123.475 -176.72)"/><path class="m" d="M218.4,309.2s1.464,6.882-.738,10.784Z" transform="translate(-119.689 -179.11)"/><path class="m" d="M213.181,309.88s-.094,5.957-.761,7.181Z" transform="translate(-117.518 -179.392)"/><path class="m" d="M196.46,213.7l10.526,4.124-3.854.5Z" transform="translate(-81.385 -88.525)"/><path class="m" d="M209.939,219.262c.527.351.966.908,1.593.99a2.507,2.507,0,0,0,1.294-.316,4.761,4.761,0,0,1,3.321-.451c1.546.51,2.4,2.29,3.936,2.817a2.806,2.806,0,0,0,1.476.082,2.859,2.859,0,0,0,.832-.34,2.677,2.677,0,0,0,1.171-1.664,3.444,3.444,0,0,0-1.171-3.245,7.187,7.187,0,0,0-3.274-1.488,32.417,32.417,0,0,0-9.466-.217,1.376,1.376,0,0,0-.738.193,4.4,4.4,0,0,0-1.13,2.765C208.018,219.18,209.852,218.594,209.939,219.262Z" transform="translate(-115.588 -140.167)"/><path class="g" d="M209.89,218.84c.527.346.961.908,1.593.99a2.478,2.478,0,0,0,1.289-.322,4.765,4.765,0,0,1,3.321-.451c1.546.515,2.4,2.3,3.936,2.817a2.753,2.753,0,0,0,1.476.082,2.7,2.7,0,0,0,.832-.334,2.741,2.741,0,0,0,1.207-1.664,3.462,3.462,0,0,0-1.2-3.251,7.21,7.21,0,0,0-3.274-1.482A32.414,32.414,0,0,0,209.6,215a1.394,1.394,0,0,0-.738.2,4.416,4.416,0,0,0-1.13,2.765C207.968,218.781,209.8,218.16,209.89,218.84Z" transform="translate(-115.568 -139.991)"/><path class="n" d="M281,224.826l1.007,4.071,1.306-.791,7.1-4.282s5.377-.2,5.793-4.522-5.975-.041-6.314.287-1.113.908-1.113.908l-6.607,3.69Z" transform="translate(-145.928 -141.074)"/><path class="m" d="M281,229.634l1.007,4.071,1.306-.791c-.287-1.839-.738-3.514-1.171-3.924Z" transform="translate(-145.928 -145.883)"/><path class="m" d="M221.18,261.524l1.447,8.493,8.564-1.775c-.205-.65-2.741-8.856-.908-10.877,1.921-2.1,1.171-8.036,1.171-8.036s-3.321-3.819-3.995-4.745-4.985-1.652-4.985-1.652a3.462,3.462,0,0,1-.31-1.212,4.874,4.874,0,0,0-.328.908,3.421,3.421,0,0,0,2.284,3.391c.146.07.3.135.463.2.258.105.545.205.849.3l.141.041c2.759.82,3.356,2.472,3.356,2.472a6.32,6.32,0,0,1,1.253,4.452C229.913,256.088,221.18,261.524,221.18,261.524Z" transform="translate(-121.147 -151.156)"/><path class="p" d="M222,256.144l1.447,8.487,9.682-2.015a17.447,17.447,0,0,0-.966-4.5c-.674-1.3-.539-6.379-.539-6.379,4.1-4.417,1.945-8.007,1.945-8.007s12.049-1.956,12.254-2.343a35.636,35.636,0,0,1,4.223-2.53s4.364-1.119,4.955-1.757a5.27,5.27,0,0,1,.715-.65,1.881,1.881,0,0,1,.234-.152l.322,2.782h.146a3.966,3.966,0,0,0,1.9-.75c1-.761-.264-9.108-1.23-9.4a1.113,1.113,0,0,0-.556,0,6.291,6.291,0,0,0-2.079,1.125l-.17.135-.059.053s-5.453,2.138-6.543,3.122-9.571,2.232-9.571,2.232-3.8.9-4.293.357-6.3-1.435-6.783-.586-1.833.7-1.833.7c-.955-1.1-1.617-.674-2.021-.041a4.423,4.423,0,0,0-.515,1.224c0,1.687.744,2.794,2.747,3.591.3.117.633.234.99.34,2.765.82,3.356,2.472,3.356,2.472a6.309,6.309,0,0,1,1.259,4.452C230.751,250.709,222,256.144,222,256.144Z" transform="translate(-121.487 -145.841)"/><path class="m" d="M279.418,229a.9.9,0,0,1,.31.035c.966.293,2.22,8.646,1.224,9.407a3.924,3.924,0,0,1-1.693.732h-.146l-.322-2.782a1.883,1.883,0,0,0-.234.152v-.117a7.228,7.228,0,0,0-1.376-6.18Z" transform="translate(-144.346 -145.886)"/><path class="p" d="M278.876,236.334l.322,2.782a3.9,3.9,0,0,0,2.068-.791c1-.761-.264-9.108-1.23-9.4-.761-.234-2.1.715-2.636,1.119a7.24,7.24,0,0,1,1.476,6.291Z" transform="translate(-144.437 -145.84)"/><path class="p" d="M225.917,245.845l1.388-1.3-3.62-3.514a4.423,4.423,0,0,0-.515,1.224C223.182,243.941,223.914,245.048,225.917,245.845Z" transform="translate(-121.971 -150.87)"/><path class="m" d="M209.832,220.34c.527.346.961.908,1.593.99a2.478,2.478,0,0,0,1.289-.322,4.765,4.765,0,0,1,3.321-.451c1.546.515,2.4,2.3,3.936,2.817a2.753,2.753,0,0,0,1.476.082,2.653,2.653,0,0,0,2.1-2.741,2.777,2.777,0,0,1,0,1.242,2.718,2.718,0,0,1-1.207,1.663,2.636,2.636,0,0,1-.832.334,2.729,2.729,0,0,1-1.47-.082c-1.546-.521-2.4-2.3-3.942-2.817a4.8,4.8,0,0,0-3.321.451,2.478,2.478,0,0,1-1.289.322c-.627-.082-1.066-.644-1.593-.99-.088-.679-1.921-.059-2.15-.873a.972.972,0,0,1,0-.375C208.11,220.217,209.745,219.7,209.832,220.34Z" transform="translate(-115.575 -141.989)"/><path class="m" d="M219.952,253.6s-.767,2.156.211,2.882c0,0-1.072-2.853-1.693-2.788" transform="translate(-120.024 -156.078)"/><path class="n" d="M300.562,217.76s-4.95,4.282-1.371,4.973S300.562,217.76,300.562,217.76Z" transform="translate(-152.926 -141.231)"/><g class="l" transform="translate(253.626 94.927)"><path d="M710.926,420.25H556.875V556.693c0,31.2-23.869,52.717-53.08,52.717a58.652,58.652,0,0,1-20.4-3.579,57.133,57.133,0,0,0,28.01,7.093c29.211,0,53.08-21.508,53.08-52.717V423.764H710.926Z" transform="translate(-483.4 -320.041)"/><path d="M558.42,252.462h7.615V215.554H712.482V212.04H558.42Z" transform="translate(-484.956 -182.765)"/><path d="M875.865,249.17V485.81c0,31.2-23.869,52.717-53.08,52.717a58.651,58.651,0,0,1-20.4-3.579,57.133,57.133,0,0,0,28.01,7.093c29.211,0,53.08-21.508,53.08-52.717V249.17Z" transform="translate(-615.544 -249.17)"/></g><path class="j" d="M629,141.746c3.778,7.808,9.958,16.688,16.945,13.3s12.207-17.777,8.429-25.6-12.529-11.375-19.534-7.984S625.22,133.95,629,141.746Z" transform="translate(-289.374 -100.807)"/><path class="r" d="M653.228,184.5s1.365-.228.843-1.353a2.092,2.092,0,0,0-.164-.287,3.614,3.614,0,0,1-.521-1.453,5.271,5.271,0,0,1,.064-1.81l-3.719-.246s1.447,1.23,1.277,1.874a.369.369,0,0,1-.17.223.586.586,0,0,1-.246.105l-.281.082c-.978.346-.586.838-.586.838C649.854,184.077,653.228,184.5,653.228,184.5Z" transform="translate(-298.643 -125.319)"/><path class="p" d="M651.68,182.773l2.624.363a3.269,3.269,0,0,1-.076-.4c-.668-.029-1.716-.117-2.378-.182a.369.369,0,0,1-.17.223Z" transform="translate(-299.485 -126.645)"/><path class="r" d="M653.228,186.114s1.365-.228.843-1.353a4.217,4.217,0,0,1-1.611.064,3.567,3.567,0,0,1-2.15-1.576c-.978.346-.586.838-.586.838C649.854,185.693,653.228,186.114,653.228,186.114Z" transform="translate(-298.643 -126.935)"/><path class="m" d="M653.228,186.114s1.365-.228.843-1.353a4.217,4.217,0,0,1-1.611.064,3.567,3.567,0,0,1-2.15-1.576c-.978.346-.586.838-.586.838C649.854,185.693,653.228,186.114,653.228,186.114Z" transform="translate(-298.643 -126.935)"/><path class="a" d="M652.37,123.745s4.159-.5,5.336,2.267a3.344,3.344,0,0,0-1.494.088,2.121,2.121,0,0,1-.972.187,5.576,5.576,0,0,0-2.87-2.542Z" transform="translate(-299.771 -102.269)"/><path class="r" d="M658.866,216.48a1.47,1.47,0,0,0,.234-.234,3.169,3.169,0,0,1,.89-.7,3.126,3.126,0,0,1,.369-.187,5.431,5.431,0,0,1,1.172-.351,4.689,4.689,0,0,1,.586-.064l-.527-2.519v-.035l-.228-1.1a7.939,7.939,0,0,1-.527.92c-.269.41-.586.8-.937.808a.416.416,0,0,1-.264-.1.8.8,0,0,1-.164-.211c-.059-.094-.105-.176-.158-.252-.586-.843-.955-.316-.955-.316-.668.24-.943,1.037-1.043,1.839a1.138,1.138,0,0,1-.035.346,9.2,9.2,0,0,0,.059,1.7S657.941,217.288,658.866,216.48Z" transform="translate(-301.798 -138.55)"/><path class="p" d="M661.768,216.694a3.112,3.112,0,0,1,.369-.187c-.129-.545-.287-1.365-.4-2.009v-.135a.4.4,0,0,0-.035-.193.416.416,0,0,1-.264-.1l.059.392v.158Z" transform="translate(-303.529 -139.702)"/><path class="r" d="M658.866,216.965a4.223,4.223,0,0,1-.492-1.535,3.324,3.324,0,0,1,.111-.972c.029-.094.053-.187.088-.275a2.854,2.854,0,0,1,.738-1.242c-.586-.843-.955-.316-.955-.316-.668.24-.943,1.037-1.043,1.839a1.139,1.139,0,0,1-.035.346,9.2,9.2,0,0,0,.059,1.7S657.941,217.774,658.866,216.965Z" transform="translate(-301.798 -139.036)"/><path class="m" d="M658.866,216.965a4.223,4.223,0,0,1-.492-1.535,3.324,3.324,0,0,1,.111-.972c.029-.094.053-.187.088-.275a2.854,2.854,0,0,1,.738-1.242c-.586-.843-.955-.316-.955-.316-.668.24-.943,1.037-1.043,1.839a1.139,1.139,0,0,1-.035.346,9.2,9.2,0,0,0,.059,1.7S657.941,217.774,658.866,216.965Z" transform="translate(-301.798 -139.036)"/><path class="r" d="M611.344,160.291a42.911,42.911,0,0,0,10.28,5.043,12.636,12.636,0,0,0,7.357.387,6.743,6.743,0,0,0,2.5-1.441,7.121,7.121,0,0,0,1.259-1.5c2.478-3.872,2.431-10.678.469-16.571-1.371-4.1-3.643-7.732-6.636-9.653-7.3-4.686-16.623-3.163-20.829,3.391S604.046,155.605,611.344,160.291Z" transform="translate(-279.609 -106.465)"/><path class="s" d="M611.344,160.291a42.911,42.911,0,0,0,10.28,5.043,12.636,12.636,0,0,0,7.357.387,6.743,6.743,0,0,0,2.5-1.441,7.121,7.121,0,0,0,1.259-1.5c2.478-3.872,2.431-10.678.469-16.571-1.371-4.1-3.643-7.732-6.636-9.653-7.3-4.686-16.623-3.163-20.829,3.391S604.046,155.605,611.344,160.291Z" transform="translate(-279.609 -106.465)"/><path class="r" d="M646.734,189.307c.931,1.3,4.018-.094,4.018-.094s1.048-.9,0-1.587a2.5,2.5,0,0,0-.287-.164,3.27,3.27,0,0,1-.931-.662c-.094-.094-.187-.193-.275-.3a5.483,5.483,0,0,1-.656-1.037,4.336,4.336,0,0,1-.229-.545l-3.3,1.757a7.492,7.492,0,0,1,1.037.252c.474.152.943.375,1.031.679a.369.369,0,0,1,0,.281.7.7,0,0,1-.158.217,2.889,2.889,0,0,0-.193.217C646.118,189.1,646.734,189.307,646.734,189.307Z" transform="translate(-296.747 -127.626)"/><path class="p" d="M648.58,189.035,651,187.969c-.094-.094-.187-.193-.275-.3-.586.316-1.517.791-2.12,1.084A.369.369,0,0,1,648.58,189.035Z" transform="translate(-298.201 -128.766)"/><path class="r" d="M647.723,191.221c.931,1.3,4.018-.094,4.018-.094s1.048-.9,0-1.587a4.048,4.048,0,0,1-1.341.89,3.567,3.567,0,0,1-2.648-.217C647.108,191.016,647.723,191.221,647.723,191.221Z" transform="translate(-297.736 -129.54)"/><path class="m" d="M647.723,191.221c.931,1.3,4.018-.094,4.018-.094s1.048-.9,0-1.587a4.048,4.048,0,0,1-1.341.89,3.567,3.567,0,0,1-2.648-.217C647.108,191.016,647.723,191.221,647.723,191.221Z" transform="translate(-297.736 -129.54)"/><path class="a" d="M618.28,138.092s3.286-2.595,5.734-.849a3.374,3.374,0,0,0-1.224.855,2.127,2.127,0,0,1-.738.668A5.582,5.582,0,0,0,618.28,138.092Z" transform="translate(-285.649 -107.626)"/><g class="l" transform="translate(363.061 54.142)"><path d="M677.649,183.189l-.761-3.649a7.025,7.025,0,0,1-.527.92,6.6,6.6,0,0,0,.7,2.8A4.1,4.1,0,0,1,677.649,183.189Z" transform="translate(-672.771 -179.54)"/><path d="M671.853,184.736a1.758,1.758,0,0,0,.234-.234,3.273,3.273,0,0,1,.89-.709,3.129,3.129,0,0,1,.369-.187,5.021,5.021,0,0,1,1.171-.346,4.1,4.1,0,0,1,.586-.07l-.761-3.649a7.032,7.032,0,0,1-.527.92c-.269.41-.615.808-.937.814a.427.427,0,0,1-.258-.105.72.72,0,0,1-.182-.187c-.053-.094-.105-.176-.152-.252-.586-.843-.961-.31-.961-.31-1.505.545-1.019,3.889-1.019,3.889S670.91,185.538,671.853,184.736Z" transform="translate(-670.232 -179.54)"/><path d="M674.672,184.936a3.11,3.11,0,0,1,.369-.187c-.152-.638-.34-1.675-.463-2.343a.428.428,0,0,1-.258-.105Z" transform="translate(-671.926 -180.683)"/><path d="M671.866,185.223a4.293,4.293,0,0,1-.492-1.541,3.6,3.6,0,0,1,.943-2.489c-.586-.843-.961-.31-.961-.31-1.505.545-1.019,3.889-1.019,3.889S670.923,186.025,671.866,185.223Z" transform="translate(-670.245 -180.027)"/><path class="m" d="M671.866,185.223a4.293,4.293,0,0,1-.492-1.541,3.6,3.6,0,0,1,.943-2.489c-.586-.843-.961-.31-.961-.31-1.505.545-1.019,3.889-1.019,3.889S670.923,186.025,671.866,185.223Z" transform="translate(-670.245 -180.027)"/></g><path class="r" d="M671.042,183.5a1.474,1.474,0,0,0,.234-.234,3.273,3.273,0,0,1,.89-.7,3.13,3.13,0,0,1,.369-.187,5.02,5.02,0,0,1,1.172-.346,4.1,4.1,0,0,1,.586-.07l-.762-3.649a7.464,7.464,0,0,1-.527.92c-.27.41-.586.808-.937.808a.386.386,0,0,1-.258-.1.809.809,0,0,1-.17-.211c-.053-.094-.105-.176-.152-.252-.586-.843-.961-.316-.961-.316-1.505.551-1.019,3.9-1.019,3.9S670.1,184.308,671.042,183.5Z" transform="translate(-306.839 -124.888)"/><path class="p" d="M673.851,183.71a3.126,3.126,0,0,1,.369-.187c-.152-.638-.34-1.675-.463-2.343a.386.386,0,0,1-.258-.1Z" transform="translate(-308.524 -126.036)"/><path class="r" d="M671.067,183.985a4.223,4.223,0,0,1-.492-1.535,3.6,3.6,0,0,1,.972-2.489c-.586-.843-.961-.316-.961-.316-1.505.551-1.019,3.9-1.019,3.9S670.124,184.794,671.067,183.985Z" transform="translate(-306.864 -125.374)"/><path class="m" d="M671.067,183.985a4.223,4.223,0,0,1-.492-1.535,3.6,3.6,0,0,1,.972-2.489c-.586-.843-.961-.316-.961-.316-1.505.551-1.019,3.9-1.019,3.9S670.124,184.794,671.067,183.985Z" transform="translate(-306.864 -125.374)"/><g class="l" transform="translate(359.665 47.014)"><path d="M666.669,168.325a6.684,6.684,0,0,0,2.706,1,4.9,4.9,0,0,1,.269-.527L666.2,167.37a7.03,7.03,0,0,1,.469.955Z" transform="translate(-665.165 -167.37)"/><path d="M667.115,173.388s1.365.228,1.236-1.007a1.888,1.888,0,0,0-.064-.328,3.239,3.239,0,0,1-.082-1.13,3.137,3.137,0,0,1,.059-.41,5.641,5.641,0,0,1,.644-1.693l-3.444-1.429a7.027,7.027,0,0,1,.48.943c.187.457.316.966.141,1.23a.4.4,0,0,1-.234.158.621.621,0,0,1-.264,0h-.3c-1.031,0-.8.586-.8.586C664.063,171.906,667.115,173.388,667.115,173.388Z" transform="translate(-664.44 -167.378)"/><path d="M666.8,171.266l2.343,1.171a3.137,3.137,0,0,1,.059-.41c-.621-.24-1.582-.668-2.191-.937A.4.4,0,0,1,666.8,171.266Z" transform="translate(-665.414 -168.911)"/><path d="M667.108,175.049s1.365.228,1.236-1.007a4.218,4.218,0,0,1-1.546-.457,3.608,3.608,0,0,1-1.529-2.185c-1.031,0-.8.586-.8.586C664.057,173.567,667.108,175.049,667.108,175.049Z" transform="translate(-664.434 -169.039)"/><path class="m" d="M667.108,175.049s1.365.228,1.236-1.007a4.218,4.218,0,0,1-1.546-.457,3.608,3.608,0,0,1-1.529-2.185c-1.031,0-.8.586-.8.586C664.057,173.567,667.108,175.049,667.108,175.049Z" transform="translate(-664.434 -169.039)"/></g><path class="r" d="M666.68,172.754s1.365.228,1.236-1a1.8,1.8,0,0,0-.064-.328,3.274,3.274,0,0,1-.082-1.136,3.039,3.039,0,0,1,.059-.4,4.781,4.781,0,0,1,.375-1.171,4.916,4.916,0,0,1,.269-.527l-3.444-1.435a7.03,7.03,0,0,1,.469.955c.187.463.316.966.141,1.236a.422.422,0,0,1-.234.152.72.72,0,0,1-.264,0h-.3c-1.031,0-.8.586-.8.586C663.64,171.278,666.68,172.754,666.68,172.754Z" transform="translate(-304.592 -120.099)"/><path class="p" d="M666.39,170.65l2.343,1.171a3.059,3.059,0,0,1,.059-.4c-.621-.24-1.582-.668-2.191-.937A.422.422,0,0,1,666.39,170.65Z" transform="translate(-305.579 -121.645)"/><path class="r" d="M666.68,174.423s1.365.228,1.236-1a4.358,4.358,0,0,1-1.546-.463,3.6,3.6,0,0,1-1.529-2.179c-1.031,0-.8.586-.8.586C663.64,172.947,666.68,174.423,666.68,174.423Z" transform="translate(-304.592 -121.769)"/><path class="m" d="M666.68,174.423s1.365.228,1.236-1a4.358,4.358,0,0,1-1.546-.463,3.6,3.6,0,0,1-1.529-2.179c-1.031,0-.8.586-.8.586C663.64,172.947,666.68,174.423,666.68,174.423Z" transform="translate(-304.592 -121.769)"/><path class="r" d="M644.985,200.545a7.278,7.278,0,0,1,.533-.914c.281-.41.627-.8.943-.8a.369.369,0,0,1,.264.105.761.761,0,0,1,.164.205c.053.1.105.182.152.258.586.855.961.322.961.322,1.511-.527,1.054-3.883,1.054-3.883s-.586-1.259-1.523-.463a2.155,2.155,0,0,0-.24.228,3.743,3.743,0,0,1-1.265.884,5.274,5.274,0,0,1-1.172.334,3.727,3.727,0,0,1-.586.064Z" transform="translate(-296.416 -131.847)"/><path class="p" d="M647.693,199.675a.369.369,0,0,1,.264.105l-.328-2.63a3.068,3.068,0,0,1-.369.182C647.412,197.976,647.588,199.013,647.693,199.675Z" transform="translate(-297.654 -132.693)"/><path class="r" d="M649,199.4c.586.855.961.322.961.322,1.511-.527,1.054-3.883,1.054-3.883s-.586-1.259-1.523-.463a4.1,4.1,0,0,1,.469,1.541A3.549,3.549,0,0,1,649,199.4Z" transform="translate(-298.375 -131.847)"/><path class="m" d="M649,199.4c.586.855.961.322.961.322,1.511-.527,1.054-3.883,1.054-3.883s-.586-1.259-1.523-.463a4.1,4.1,0,0,1,.469,1.541A3.549,3.549,0,0,1,649,199.4Z" transform="translate(-298.375 -131.847)"/><path class="m" d="M639.681,203.1a11.45,11.45,0,0,0,1.757-5.857c.281-.41.627-.8.943-.8a.369.369,0,0,1,.264.105.761.761,0,0,1,.164.205c.053.1.105.182.152.258.586.855.961.322.961.322,1.511-.527,1.054-3.883,1.054-3.883s-.586-1.259-1.523-.463a2.161,2.161,0,0,0-.24.228,3.744,3.744,0,0,1-1.265.884,5.273,5.273,0,0,1-1.172.334,7.873,7.873,0,0,0-1.084-1.628,13.361,13.361,0,0,0-5.213-3.438C635.3,194.556,636.829,200.026,639.681,203.1Z" transform="translate(-292.36 -129.466)"/><path class="m" d="M657.39,190.817a10.168,10.168,0,0,0,1.259-.281,11.033,11.033,0,0,0,1.119-.387l.24-.1c.31-.135.627-.281.943-.445s.474-.246.715-.381a26.575,26.575,0,0,0,10.719-12.992,17.052,17.052,0,0,0,1.048-4.463,12.006,12.006,0,0,0-.035-2.431,17.156,17.156,0,0,0-2.179-6.566c-.129-.217-.252-.422-.387-.621a13.993,13.993,0,0,0-13.091-6.7c1.136,3.286,2.753,6.086,5.032,7.544.187.463.316.966.141,1.236a.421.421,0,0,1-.234.152.721.721,0,0,1-.264,0h-.3c-1.031,0-.8.586-.8.586-.4,1.552,2.636,3.034,2.636,3.034s1.365.228,1.236-1a1.8,1.8,0,0,0-.064-.328,3.276,3.276,0,0,1-.082-1.136,3.069,3.069,0,0,1,.059-.4,4.784,4.784,0,0,1,.375-1.171,7.526,7.526,0,0,0,1.956,0,10.392,10.392,0,0,0,2.671-.726c-.123.193-.234.387-.34.586a11.492,11.492,0,0,0-1.757,5.857c-.269.41-.586.808-.937.808a.386.386,0,0,1-.258-.1.808.808,0,0,1-.17-.211c-.053-.094-.105-.176-.152-.252-.586-.843-.961-.316-.961-.316-1.505.551-1.019,3.9-1.019,3.9s.586,1.253,1.529.445a1.471,1.471,0,0,0,.234-.234,3.274,3.274,0,0,1,.89-.7,3.12,3.12,0,0,1,.369-.187,5.02,5.02,0,0,1,1.172-.346,7.462,7.462,0,0,0,1.1,1.623l.234.252-.082.076a46.272,46.272,0,0,0-5.2,5.529,20.756,20.756,0,0,0-1.336,1.863q-.433.662-.808,1.318A11.523,11.523,0,0,0,660.893,189c-.269.41-.586.8-.937.808a.416.416,0,0,1-.264-.1.8.8,0,0,1-.164-.211c-.059-.094-.105-.176-.158-.252-.586-.843-.955-.316-.955-.316A2.211,2.211,0,0,0,657.39,190.817Z" transform="translate(-301.851 -115.389)"/><g class="l" transform="translate(341.624 39.768)"><path d="M667.438,163.5a2.108,2.108,0,0,0,.984.135,3.415,3.415,0,0,1,1.441.4c-.223-3-4.323-3.866-4.323-3.866A5.565,5.565,0,0,1,667.438,163.5Z" transform="translate(-646.851 -157.142)"/><path d="M633.766,172.279c.076.586.158,1.224.258,1.845a12.636,12.636,0,0,0,7.357.387c.474.152.943.375,1.031.679a.369.369,0,0,1,0,.281.7.7,0,0,1-.158.217,2.893,2.893,0,0,0-.193.217c-.656.8-.041,1.007-.041,1.007.931,1.3,4.018-.094,4.018-.094s1.048-.9,0-1.587a2.5,2.5,0,0,0-.287-.164,3.269,3.269,0,0,1-.931-.662c-.094-.094-.187-.193-.275-.3a5.48,5.48,0,0,1-.656-1.037,7.117,7.117,0,0,0,1.259-1.5c2.478-3.872,2.431-10.678.469-16.571C638,156.078,632.718,163.786,633.766,172.279Z" transform="translate(-633.634 -155)"/><path d="M645.66,212.92a6.677,6.677,0,0,0,2.7,1.013,4.272,4.272,0,0,1,.275-.527L645.18,212a8.124,8.124,0,0,1,.48.92Z" transform="translate(-638.417 -178.613)"/><path d="M646.106,217.969s1.371.234,1.236-1a1.754,1.754,0,0,0-.059-.328,3.286,3.286,0,0,1-.082-1.136,2.915,2.915,0,0,1,.053-.4,5.269,5.269,0,0,1,.375-1.171,4.256,4.256,0,0,1,.275-.527l-3.45-1.4a8.121,8.121,0,0,1,.469.949c.182.463.31.972.135,1.236a.386.386,0,0,1-.228.158.773.773,0,0,1-.269,0,2.654,2.654,0,0,0-.293,0c-1.037,0-.8.586-.8.586C643.066,216.493,646.106,217.969,646.106,217.969Z" transform="translate(-637.691 -178.613)"/><path d="M645.82,215.88l2.343,1.171a1.529,1.529,0,0,1,.053-.4c-.615-.24-1.582-.668-2.191-.937a.392.392,0,0,1-.205.17Z" transform="translate(-638.682 -180.15)"/><path d="M646.106,219.613s1.365.228,1.236-1.007a4.158,4.158,0,0,1-1.546-.457,3.572,3.572,0,0,1-1.529-2.179c-1.037,0-.8.586-.8.586C643.06,218.137,646.106,219.613,646.106,219.613Z" transform="translate(-637.691 -180.257)"/><path class="m" d="M646.106,219.613s1.365.228,1.236-1.007a4.158,4.158,0,0,1-1.546-.457,3.572,3.572,0,0,1-1.529-2.179c-1.037,0-.8.586-.8.586C643.06,218.137,646.106,219.613,646.106,219.613Z" transform="translate(-637.691 -180.257)"/><path class="m" d="M667.438,163.5a2.108,2.108,0,0,0,.984.135,3.415,3.415,0,0,1,1.441.4c-.223-3-4.323-3.866-4.323-3.866A5.565,5.565,0,0,1,667.438,163.5Z" transform="translate(-646.851 -157.142)"/></g><path class="j" d="M635.205,173.01c1.06,8.61,4.03,19,11.756,18.047s17.291-12.886,16.231-21.5-8.2-14.808-15.92-13.853S634.139,164.405,635.205,173.01Z" transform="translate(-292.605 -115.482)"/><path class="r" d="M647.529,218.758s1.365.234,1.236-1a2.587,2.587,0,0,0-.059-.328,3.145,3.145,0,0,1-.088-1.136,2.329,2.329,0,0,1,.059-.4,5.272,5.272,0,0,1,.65-1.693l-3.444-1.435s.972,1.634.586,2.191a.4.4,0,0,1-.234.158.9.9,0,0,1-.264,0h-.293c-1.037,0-.8.586-.8.586C644.489,217.288,647.529,218.758,647.529,218.758Z" transform="translate(-296.653 -139.159)"/><path class="p" d="M647.25,216.66l2.343,1.171a2.323,2.323,0,0,1,.059-.4c-.621-.24-1.581-.668-2.191-.937A.4.4,0,0,1,647.25,216.66Z" transform="translate(-297.65 -140.705)"/><path class="r" d="M647.54,220.423s1.365.234,1.236-1a4.1,4.1,0,0,1-1.546-.463,3.55,3.55,0,0,1-1.523-2.179c-1.037,0-.8.586-.8.586C644.5,218.953,647.54,220.423,647.54,220.423Z" transform="translate(-296.663 -140.825)"/><path class="m" d="M647.54,220.423s1.365.234,1.236-1a4.1,4.1,0,0,1-1.546-.463,3.55,3.55,0,0,1-1.523-2.179c-1.037,0-.8.586-.8.586C644.5,218.953,647.54,220.423,647.54,220.423Z" transform="translate(-296.663 -140.825)"/><path class="a" d="M667,161s4.1.867,4.323,3.866a3.362,3.362,0,0,0-1.447-.392,2.132,2.132,0,0,1-.978-.141A5.6,5.6,0,0,0,667,161Z" transform="translate(-305.832 -117.717)"/><path class="t" d="M646.922,218.1a2.5,2.5,0,0,1,2.22,3.069c-.516,1.728-2.636,2.273-4.018,3.427a7.044,7.044,0,0,0-2.214,4.8,11.762,11.762,0,0,0,3.38,9.3c1.242,1.224,2.741,2.161,3.965,3.4a20.254,20.254,0,0,1,3.427,5.225,12.229,12.229,0,0,1,1.517,4.393c.205,2.466-1.037,4.827-2.519,6.806s-3.257,3.772-4.4,5.963a12.529,12.529,0,0,0-.72,9.823,1.272,1.272,0,0,0,.416.656.463.463,0,0,0,.679-.146" transform="translate(-295.834 -141.372)"/><path class="t" d="M653.672,217.36a1.172,1.172,0,0,1,.053,1.488,1.81,1.81,0,0,1-1.429.662c-.662,0-1.4-.205-1.945.182a1.681,1.681,0,0,0-.586,1.271,6.484,6.484,0,0,1-.146,1.435,2.857,2.857,0,0,1-.633,1.031,3.168,3.168,0,0,1-1.171.855c-.978.381-2.109.035-3.11.351-1.318.416-2.027,1.839-2.425,3.163a9.108,9.108,0,0,0-.287,4.909,16.984,16.984,0,0,0,1.33,3.011,6.811,6.811,0,0,1,.867,3.14,2.882,2.882,0,0,1-1.652,2.636" transform="translate(-295.385 -141.065)"/><path class="t" d="M605.411,279.391c-1.576,2.1-2.173,5.447-4.75,5.957a5.9,5.9,0,0,1-3.837-1.078c-2.771-1.546-5.623-3.1-8.786-3.614s-6.654.223-8.728,2.63c-1.412,1.652-1.992,3.866-3.233,5.647a11.586,11.586,0,0,1-6.56,4.311,26.844,26.844,0,0,1-7.954.679,4.324,4.324,0,0,1-2.806-.761,6.829,6.829,0,0,1-1.171-1.786,7.815,7.815,0,0,0-6.262-3.462,16.46,16.46,0,0,0-7.216,1.529,7.692,7.692,0,0,1-3.6.908c-1.757-.176-3.052-1.593-4.135-2.958a58.573,58.573,0,0,1-7.105-11.563" transform="translate(-248.776 -165.287)"/><path class="u" d="M497.89,466.269c.627-2.279,1.037-4.282,1.037-4.282a8.962,8.962,0,0,1,1.171-4.34l.029-.627h0l.176-4.622a15.558,15.558,0,0,0-1.072-2.466c-.779-1.482.264-6.777.264-6.777s3.374-7.386,2.806-12.172,7.146-20.9,7.146-20.9a20.722,20.722,0,0,0-.486-4.686,3.991,3.991,0,0,1-.053-.984v-.082c.228-3.134,2.929-8.927,2.929-8.927l.1-11.223a32.991,32.991,0,0,1,1.6-15.458c1.019-3.063,1.693-5.518,2.132-7.415.053-.217.1-.422.141-.621-5.272-1.019-9.325-1.851-9.325-1.851s3.579-12.787,5.752-14.966,4.1-9.22,4.1-9.22,1.435-9.073-.217-11.8-1.7-7.363-1.7-7.363-3.889-3.058-4.34-4.37a21.4,21.4,0,0,1-1.113-5.781c.059-1.535.586-2.888.474-3.7s1.318-3.831.7-5.307a4.1,4.1,0,0,1-.211-1.412s0,0,0-.041a19.627,19.627,0,0,1,.5-3.772,10.684,10.684,0,0,1,4.042-1.962l.1-.346.258-.9c.141-.088.275-.158.4-.223v-.328l.088-1.312-.515-2.97c-1.031-5.166,5.857-5.67,5.857-5.67a3.6,3.6,0,0,1,2-1.622c1.394-.433-.07,7.714-.732,8.2a31.815,31.815,0,0,0-2.858,4.1h0l-.129.205a2.856,2.856,0,0,1,.3.34l-.328,1.757-.053.269a7.4,7.4,0,0,1,1.019,1.9,3.968,3.968,0,0,0-1.113,2.87,9.057,9.057,0,0,1-.551,3.514c.076-.076,1-1,1.863-.732s3.3,1.1,3.3,1.1,1.822.4,1.64.791,1.172,2.226,1.172,2.226l5.131-4.4c.053-.141.111-.275.158-.422a11.531,11.531,0,0,0,.51-2.027,11.233,11.233,0,0,1-1.558-.586,3.386,3.386,0,0,1-1.33-.926,5.272,5.272,0,0,1-.709-2.156,30.406,30.406,0,0,0-1.675-4.147,13.291,13.291,0,0,1-.7-7.363,4.838,4.838,0,0,1,.843-2.115c.844-1.078,2.343-1.47,3.415-2.308s1.833-2.167,3.093-2.782a5.908,5.908,0,0,1,3.755-.176,20.09,20.09,0,0,1,6.888,2.806,3.555,3.555,0,0,0,2.3.855,3.1,3.1,0,0,0,1.757-1.171v-.064l.053-.064a8.7,8.7,0,0,1,.627,3.719,2.472,2.472,0,0,1-.047.586v.205a.84.84,0,0,0,0,.17h0a1.014,1.014,0,0,0,0,.264,1.892,1.892,0,0,0,.433.685,3.51,3.51,0,0,1,.381.586.676.676,0,0,0-.059-.205,2.928,2.928,0,0,1,.451,1.576,1.57,1.57,0,0,1-.41,1.1,5.088,5.088,0,0,1-.832.615,9.372,9.372,0,0,1-4.873,9.6c-.059.135-.123.275-.182.416a11.779,11.779,0,0,0-1.1,5.342,1.144,1.144,0,0,0,.047.392,2.545,2.545,0,0,1,.164.211h0s8.13.392,10.116-1.271,4.686,4.428,4.686,4.428,2.9.674,3.514.135,4.007.07,4.007.07a7.339,7.339,0,0,1,5.154-1.658,15.059,15.059,0,0,1,3.813-1.933h.094a4.212,4.212,0,0,1,1.839-.164s4.129-3.151,5.365-4.879,7.029-8.107,7.076-8.13l.029-.322.1-.955a3.569,3.569,0,0,0,.5.064c.035-.094.076-.205.129-.328a17.433,17.433,0,0,1,1.283-2.665s.047-1.212-.3-1.529.334-4.739.334-4.739,3.924-8.288,6.918-1.874c0,0,5.945,4.311.638,8.856,0,0-2.079.908-2.4,1.681-.211.5-.961,1.9-1.458,2.829-.088.152-.164.293-.228.416l.059.053-.105.785-.047.3c.949.586,1.581,1.172,1.406,1.564a9,9,0,0,0-.668,2.156s-7.427,8.6-8.493,12.359c0,0-19.441,10.543-25.72,11.129l.867,5.688s.2,3.4.07,4.61.492,6.73.492,6.73.773,8.107,1.646,9.272.521,6,.521,6a40.474,40.474,0,0,0,.99,6.906,17.674,17.674,0,0,1,0,6.871s2.888,7.386-4.5,2.167c0,0-3.719-.375-8-.685v.433c0,.551,0,1.171-.047,1.757-.1,4.165-.3,9.9-.65,14.228-.633,7.65-3.55,22.727-3.55,22.727l-.293,7.615a9.923,9.923,0,0,1,.135,2.185,14.152,14.152,0,0,1-2.343,7.55l-.9,5.031a19.918,19.918,0,0,0-1.6,5.272,2.5,2.5,0,0,0,.041.486,3.563,3.563,0,0,1,.035.785c0,2.308-1.611,7.779-1.611,7.779s-.3,5.565-1.171,5.857c-.72.252.832,3.245,1.294,4.1a1.541,1.541,0,0,0,.035-.158l.1.176a3.942,3.942,0,0,1,.2,1.417,2.027,2.027,0,0,1-1,1.921c-1.623.9-2.5,1.681-1.172,2.05.51.146,1.054.2,1.458.369,0-.064.053-.129.076-.187a.89.89,0,0,1,.51,1,4.1,4.1,0,0,1-.586,1.869A19.994,19.994,0,0,1,539,462.755l-.638-.094a3.124,3.124,0,0,0,.346.7,2.712,2.712,0,0,0,.908.873,2.928,2.928,0,0,0,1.125.433,3.216,3.216,0,0,1,2.343,1.242c.785,1.1,1.253,2.589-.439,3.813l-6.039,1.827s-10.309.937-9.676-1.341,1.043-4.282,1.043-4.282a9.1,9.1,0,0,1,1.019-4.007,4.218,4.218,0,0,1,.387-.586l-.363-.059s-.551-5.108-1.517-6.115c-.223-.234-.269-.41-.2-.539-.094-.281.17-.433.51-.51a.879.879,0,0,0,.064.2,5.331,5.331,0,0,1,1-.07s.439-2.648-.586-3.661a1.025,1.025,0,0,1-.182-.8,4.347,4.347,0,0,1,.158-1.084l.035.064a39.244,39.244,0,0,1,2.63-6.162s.182-2.419-.451-3.409.586-13.15.586-13.15,0-5.9.832-8.616-.691-6-.691-6v-.176a.128.128,0,0,0,0-.041l.135-.925v.059c.228-1.552.656-4.364.937-5.664.4-1.839.334-10.731.334-10.731l-1.359-3.854-2.929,6.443-3.151,8.569a7.445,7.445,0,0,0-1.581,3.649v.275a4.834,4.834,0,0,1,0,.586,5.178,5.178,0,0,1-.984,3.075s-.908,4.1-2.115,5.09A4.623,4.623,0,0,0,519.2,420.8s-1.652,5.916-2.343,6.941c-.586.861-.72,3.292-.744,4.036h0v.217s-.281,2.126-.34,3.924v.592a6.51,6.51,0,0,0,.117,1.458v-.217a15.16,15.16,0,0,1,.287,3.737c-.047,2.144-.469,4.686-1.828,6.115-2.343,2.5-3.755,2.12-3.755,2.12s.961,3.268,2.267,3.965a.585.585,0,0,1,.141.094.322.322,0,0,1,.041-.187,1.576,1.576,0,0,1,.346,1.218,8.6,8.6,0,0,1-1.839,4.721,2.641,2.641,0,0,1-1.172.615l.205.141c.164.094.31.17.451.234a2.144,2.144,0,0,0,.674.2,3.181,3.181,0,0,1,2.343,1.242c.791,1.1,1.259,2.589-.433,3.813l-6.045,1.828S497.258,468.548,497.89,466.269Z" transform="translate(-235.765 -163.843)"/><path class="f" d="M557.881,604.38l5.857-1.833c1.64-1.23,1.171-2.712.428-3.819a3.058,3.058,0,0,0-2.238-1.236,2.77,2.77,0,0,1-1.089-.434,2.607,2.607,0,0,1-.879-.873,4.258,4.258,0,0,1-.586-2.255s-6.267-2.1-8.071-.31a4.774,4.774,0,0,0-.808,1.1,9.371,9.371,0,0,0-.966,4.053s-.4,2-1.008,4.282S557.881,604.38,557.881,604.38Z" transform="translate(-256.74 -296.635)"/><path class="f" d="M509.835,597.691l5.857-1.833c1.64-1.23,1.171-2.712.428-3.813a3.034,3.034,0,0,0-2.243-1.236,2.291,2.291,0,0,1-.65-.205,2.939,2.939,0,0,1-.433-.234,3.66,3.66,0,0,1-1.488-3.1s-6.262-2.1-8.066-.31a4.623,4.623,0,0,0-.638.8,9.155,9.155,0,0,0-1.136,4.346s-.4,2-1.013,4.282S509.835,597.691,509.835,597.691Z" transform="translate(-236.826 -293.876)"/><path class="m" d="M552.718,593.619a4.774,4.774,0,0,0-.808,1.1h0l9.454,1.464a4.259,4.259,0,0,1-.586-2.255S554.522,591.833,552.718,593.619Z" transform="translate(-258.155 -296.635)"/><path class="m" d="M504.13,587.733l-.07,1.757c1.382,2.5,8.546,2.238,10.666,1.1a2.931,2.931,0,0,1-.433-.234,3.624,3.624,0,0,1-1.482-3.081s-6.262-2.1-8.066-.31A4.625,4.625,0,0,0,504.13,587.733Z" transform="translate(-238.332 -293.876)"/><path class="i" d="M502.558,509.278a15.588,15.588,0,0,1,1.037,2.466l-.246,6.373c1.511,2.724,9.958,2.161,11.129.75s2.542-5.155,1.277-5.857-2.191-3.966-2.191-3.966,1.359.375,3.638-2.12,1.851-8.253,1.5-9.641.234-5.969.234-5.969.041-3.233.726-4.253,2.29-6.947,2.29-6.947a4.752,4.752,0,0,1,1.248-3.022c1.172-1.007,2.05-5.09,2.05-5.09a5.272,5.272,0,0,0,.943-3.438c-.164-2.027,1.535-4.141,1.535-4.141l3.075-8.61,2.835-6.443,1.283,3.9s.059,8.892-.334,10.737-1.066,6.748-1.066,6.748,1.488,3.286.656,6-.814,8.61-.814,8.61-1.171,12.16-.586,13.15a8.267,8.267,0,0,1,.433,3.409s-3.585,6.976-2.571,7.984.586,3.661.586,3.661-2.255-.088-1.324.92,1.505,6.086,1.505,6.086l9.712,1.505a20.384,20.384,0,0,0,2.343-4.03c1.406-2.929-.135-2.677-1.423-3.046s-.433-1.172,1.136-2.056.767-3.122.767-3.122-2.191-4.047-1.371-4.34,1.119-5.857,1.119-5.857,1.863-6.554,1.529-8.347,1.523-6,1.523-6l.761-5.061a13.97,13.97,0,0,0,2.144-9.53l.3-7.825s2.841-15.083,3.462-22.739c.392-4.9.586-11.6.685-15.786.053-2.343.07-3.9.07-3.9l-34.717-4.973a28.424,28.424,0,0,1-.832,5.155c-.428,1.9-1.084,4.358-2.073,7.421a34,34,0,0,0-1.564,15.458l-.111,11.223s-3.356,7.386-2.812,9.993a21.306,21.306,0,0,1,.469,4.686s-7.492,16.114-6.947,20.9-2.73,12.178-2.73,12.178S501.808,507.8,502.558,509.278Z" transform="translate(-237.598 -223.13)"/><path class="h" d="M532.083,503.892,521.54,502.07S527.3,508.431,532.083,503.892Z" transform="translate(-245.574 -259.009)"/><path class="m" d="M524.3,484.47s-.51,3.737,1.757,5.237C526.037,489.707,521.949,488.881,524.3,484.47Z" transform="translate(-246.416 -251.718)"/><path class="m" d="M526.71,464.12s8.593,7.644,11.838,7.164S526.71,464.12,526.71,464.12Z" transform="translate(-247.715 -243.287)"/><path class="m" d="M561.77,511.89s6.677,1.792,6.771,4.5S561.77,511.89,561.77,511.89Z" transform="translate(-262.239 -263.077)"/><path class="h" d="M555.775,569.24s9.448,2.138,6.7,3.245a45.935,45.935,0,0,1-7.2,1.886S552.2,574.436,555.775,569.24Z" transform="translate(-259.038 -286.834)"/><g class="v" transform="translate(264.677 197.051)"><path d="M570.388,577.237a1.874,1.874,0,0,0,.92-1.347l.094.176s.8,2.208-.767,3.116l-.51.31c-.281-.064-.586-.117-.873-.2C567.963,578.918,568.847,578.145,570.388,577.237Z" transform="translate(-529.758 -486.641)"/><path d="M550.6,575.1c-.252-.252-.217-.873-.029-1.663a4.482,4.482,0,0,1,.451,2.343A1.9,1.9,0,0,0,550.6,575.1Z" transform="translate(-522.216 -485.626)"/><path d="M555.779,507.85a10.821,10.821,0,0,1,.527,2.987,12.13,12.13,0,0,0-.656-2.068S555.7,508.412,555.779,507.85Z" transform="translate(-524.381 -458.454)"/><path d="M518.888,498.554a3.78,3.78,0,0,1-.053-.884c.094.586.158,1.172.2,1.664C518.994,499.076,518.929,498.818,518.888,498.554Z" transform="translate(-509.128 -454.237)"/><path d="M554.245,555.554a5.209,5.209,0,0,1-.176-1.8,6.06,6.06,0,0,1,.381,2.284A2.272,2.272,0,0,0,554.245,555.554Z" transform="translate(-523.719 -477.469)"/><path d="M549.623,582.68a31.422,31.422,0,0,1,.925,5l9.712,1.505a20.379,20.379,0,0,0,2.343-4.03c.123-.258.223-.492.3-.7.586.293.779.908-.058,2.648a20.345,20.345,0,0,1-2.343,4.036l-9.712-1.505s-.533-5.114-1.464-6.121C548.85,583.014,549.166,582.785,549.623,582.68Z" transform="translate(-521.664 -489.453)"/><path d="M571.84,502.753s-.293,5.565-1.113,5.857h0c-.369-.937-.586-1.822-.24-1.951.82-.293,1.113-5.857,1.113-5.857s1.869-6.554,1.535-8.347,1.523-6,1.523-6l.761-5.061a13.988,13.988,0,0,0,2.144-9.536l.3-7.826s2.847-15.083,3.462-22.733c.4-4.9.586-11.6.691-15.786,0-.756.029-1.429.035-2l.281.041s0,1.558-.07,3.9c-.094,4.182-.293,10.889-.685,15.786-.621,7.656-3.462,22.738-3.462,22.738l-.3,7.826a13.97,13.97,0,0,1-2.144,9.53L574.9,488.4s-1.857,4.211-1.523,6S571.84,502.753,571.84,502.753Z" transform="translate(-530.455 -423.52)"/><path d="M514.983,585.638a9.471,9.471,0,0,0,1.693-3.778c.961.937-.322,4.387-1.447,5.723s-9.612,1.974-11.129-.75l.059-1.535C506.267,587.542,513.859,586.968,514.983,585.638Z" transform="translate(-503.026 -489.114)"/><path d="M502.31,571.889a16.334,16.334,0,0,1,1.037,2.466l-.047,1.13c-.164-.416-.4-.978-.744-1.646a4.819,4.819,0,0,1-.275-2.009Z" transform="translate(-502.266 -484.959)"/><path d="M521.84,566.562a15.271,15.271,0,0,1-.72-1.951s1.359.375,3.632-2.12c1.664-1.816,1.886-5.36,1.757-7.691.351,1.388.779,7.14-1.5,9.641C523.51,566.076,522.42,566.474,521.84,566.562Z" transform="translate(-510.077 -477.904)"/><path d="M530.287,513.565a42.335,42.335,0,0,0-.346,4.774,7.515,7.515,0,0,0-.141-.756c-.351-1.382.234-5.969.234-5.969s.047-3.227.732-4.253,2.284-6.941,2.284-6.941A4.741,4.741,0,0,1,534.3,497.4c1.171-1,2.056-5.1,2.056-5.1a5.313,5.313,0,0,0,.937-3.438c-.164-2.027,1.535-4.141,1.535-4.141l3.081-8.61,2.829-6.443,1.306,3.848v1.23l-1.054-3.128-2.817,6.443-3.075,8.61s-1.7,2.115-1.535,4.141a5.272,5.272,0,0,1-.943,3.438s-.885,4.1-2.05,5.09a4.756,4.756,0,0,0-1.248,3.022s-1.6,5.922-2.29,6.941S530.287,513.565,530.287,513.565Z" transform="translate(-513.626 -442.638)"/></g><path class="w" d="M528.818,285.58l.492,2.97-.082,1.312-.064.966,3.35.474.4-.685h0a28.972,28.972,0,0,1,2.776-4.1c.644-.5,2.068-8.651.715-8.2a3.515,3.515,0,0,0-1.939,1.628S527.822,280.414,528.818,285.58Z" transform="translate(-248.547 -166.31)"/><path class="m" d="M529.48,298.762l3.35.474.4-.685h0a2.958,2.958,0,0,0-3.69-.756Z" transform="translate(-248.863 -174.243)"/><path class="j" d="M527.92,300.542l4.4,1.171.123-.656.316-1.757a3.058,3.058,0,0,0-4.276-.756l-.252.9Z" transform="translate(-248.217 -174.464)"/><path class="w" d="M651.12,286.131l4.645,2.724.463-.879c.486-.925,1.213-2.343,1.417-2.829.31-.773,2.343-1.687,2.343-1.687,5.143-4.551-.586-8.851-.586-8.851-2.888-6.414-6.7,1.88-6.7,1.88s-.65,4.422-.322,4.739.287,1.523.287,1.523a17.657,17.657,0,0,0-1.248,2.671A5.494,5.494,0,0,0,651.12,286.131Z" transform="translate(-299.253 -163.773)"/><path class="m" d="M651.12,295.506l4.645,2.724.463-.879c-.65-.586-2.929-2.6-3.725-2.542a5.561,5.561,0,0,1-1.125,0C651.208,295.225,651.12,295.506,651.12,295.506Z" transform="translate(-299.253 -173.148)"/><path class="j" d="M650.2,297.066l5.225,2.829.152-1.171.105-.785s-2.987-2.765-3.9-2.7a4.808,4.808,0,0,1-1.388-.059l-.1.961Z" transform="translate(-298.872 -173.303)"/><path class="w" d="M549.65,312.4s23.119,3.514,18.832,1.933c-2.981-1.1-4.1-3.063-4.282-5.207a12.143,12.143,0,0,1,1.072-5.336,22.992,22.992,0,0,1,2.238-4.1s-17.373-10.45-14.163-1.435a14.268,14.268,0,0,1,.844,4.247,11.874,11.874,0,0,1-.621,4.235A12.728,12.728,0,0,1,549.65,312.4Z" transform="translate(-257.219 -173.059)"/><path class="m" d="M555.717,298.22a14.267,14.267,0,0,1,.843,4.247c1.617,1.464,3.456,1.447,5.8,1.535,1.816.07,3.8.586,5.272-.228a22.992,22.992,0,0,1,2.238-4.1S552.483,289.206,555.717,298.22Z" transform="translate(-259.566 -173.045)"/><circle class="w" cx="9.606" cy="9.606" r="9.606" transform="translate(293.831 112.371)"/><path class="m" d="M549.65,320.366s23.119,3.514,18.832,1.933c-2.981-1.1-4.1-3.063-4.282-5.207-1.107-1.294-3.4-2.29-4.868-2.829a6.976,6.976,0,0,0-4.206-.228,5.924,5.924,0,0,0-1.558.65A12.728,12.728,0,0,1,549.65,320.366Z" transform="translate(-257.219 -181.021)"/><path class="m" d="M527.92,301.484l4.4,1.171.123-.656a3.924,3.924,0,0,0-4.211-1.622Z" transform="translate(-248.217 -175.407)"/><path class="m" d="M650.2,297.745l5.225,2.829.152-1.171a39.331,39.331,0,0,0-5.272-2.583Z" transform="translate(-298.872 -173.982)"/><path class="m" d="M530.12,420.625c8.938,1.757,21.672,4.1,23.717,3.567,1.7-.451,7.087-.187,11.762.152.053-2.343.07-3.9.07-3.9l-34.717-4.973A28.44,28.44,0,0,1,530.12,420.625Z" transform="translate(-249.128 -223.134)"/><path class="i" d="M515,369.284s29.416,6.221,32.632,5.377,19.488.832,19.488.832c7.152,5.2,4.37-2.179,4.37-2.179a17.775,17.775,0,0,0,0-6.865,42.1,42.1,0,0,1-.943-6.906s.346-4.832-.5-6-1.581-9.272-1.581-9.272-.586-5.518-.469-6.724-.064-4.61-.064-4.61l-.832-5.688c6.08-.586,24.912-11.164,24.912-11.164,1.037-3.755,8.236-12.371,8.236-12.371a9.142,9.142,0,0,1,.644-2.156c.539-1.271-6.625-4.1-6.625-4.1s-5.664,6.408-6.859,8.136-5.2,4.891-5.2,4.891a3.954,3.954,0,0,0-1.757.164h-.094a14.378,14.378,0,0,0-3.7,1.939,7.029,7.029,0,0,0-4.991,1.664s-3.292-.586-3.878-.07-3.386-.129-3.386-.129-2.595-6.08-4.516-4.416-9.8,1.283-9.8,1.283c-.99-1.435-3.514-2.536-5.084-3.11a6.976,6.976,0,0,0-4.206-.234,5.366,5.366,0,0,0-1.693.744l-4.955,4.493s-1.306-1.828-1.13-2.226-1.582-.791-1.582-.791-2.343-.814-3.192-1.089-1.728.65-1.8.732a9.419,9.419,0,0,0,.539-3.514,4.049,4.049,0,0,1,1.078-2.864c-2.554-7.029-9.155-1.488-9.155-1.488s-.873,3.766-.281,5.242-.82,4.493-.691,5.307-.4,2.167-.463,3.7a21.981,21.981,0,0,0,1.072,5.775c.433,1.306,4.194,4.364,4.194,4.364s.064,4.61,1.658,7.339.193,11.8.193,11.8-1.886,7.029-3.995,9.22S515,369.284,515,369.284Z" transform="translate(-242.864 -174.247)"/><path class="m" d="M592.027,328.875s.99-2.63,1.8-2.841a18.68,18.68,0,0,0,2.384-.961l-.48-1.013s-3.063.715-3.585,1.587S592.027,328.875,592.027,328.875Z" transform="translate(-274.713 -185.266)"/><path class="m" d="M620.2,321.9c.135.808,7.287,1.816,7.287,1.816l-3.515-3.784h-.088A14.38,14.38,0,0,0,620.2,321.9Z" transform="translate(-286.445 -183.555)"/><path class="m" d="M567.562,369.6c.082-.088-18.99,22.176-32.6,8.364C534.983,377.964,557.154,381.848,567.562,369.6Z" transform="translate(-251.133 -204.132)"/><path class="m" d="M591.057,349.94a35.1,35.1,0,0,1-4.5,7.064,28.373,28.373,0,0,1-6.859,6.127S590.817,351.428,591.057,349.94Z" transform="translate(-269.667 -195.987)"/><path class="m" d="M601.12,328.58s-2.12,7.767-6.9,10.25Z" transform="translate(-275.682 -187.139)"/><path class="m" d="M606.168,330.118c.053-.146,1.376,6.262-6.408,9.477C599.76,339.6,603.052,338.617,606.168,330.118Z" transform="translate(-277.977 -187.775)"/><path class="m" d="M526.393,317.992a56.212,56.212,0,0,0-4.973,3.444C521.42,321.448,524.1,317.752,526.393,317.992Z" transform="translate(-245.524 -182.748)"/><path class="g" d="M561.806,294.895a2.009,2.009,0,0,1-.8,1.265,1.944,1.944,0,0,1-.914.17c-2.929.07-5.986.082-8.651-1.172a3.269,3.269,0,0,1-1.283-.925,5.366,5.366,0,0,1-.685-2.15,31.641,31.641,0,0,0-1.617-4.147,13.706,13.706,0,0,1-.668-7.328,4.961,4.961,0,0,1,.814-2.12c.82-1.078,2.249-1.47,3.309-2.314s1.757-2.167,3-2.782a5.359,5.359,0,0,1,3.632-.182,18.973,18.973,0,0,1,6.666,2.8,3.408,3.408,0,0,0,2.232.855,3.1,3.1,0,0,0,1.7-1.212,8.828,8.828,0,0,1,.586,4.211,1.909,1.909,0,0,0,0,.633,1.968,1.968,0,0,0,.422.679c.691.867,1.089,2.214.346,3.028-.322.363-.808.545-1.125.908-.586.65-.428,1.628-.445,2.5a1.283,1.283,0,0,1-.246.843,1.248,1.248,0,0,1-1.171.234,3.327,3.327,0,0,0-1.259-.17,2.138,2.138,0,0,0-1.13.8A14.28,14.28,0,0,0,561.806,294.895Z" transform="translate(-256.108 -164.108)"/><g class="l" transform="translate(293.667 111.422)"><path d="M551.848,299.545a3.251,3.251,0,0,0,1.289.925c2.665,1.23,5.717,1.218,8.651,1.171a2.1,2.1,0,0,0,.914-.17,2.009,2.009,0,0,0,.8-1.271,15.1,15.1,0,0,1,2.665-5.582,2.115,2.115,0,0,1,1.13-.8,3.327,3.327,0,0,1,1.259.17,1.236,1.236,0,0,0,1.172-.24,1.283,1.283,0,0,0,.246-.844,3.715,3.715,0,0,1,.439-2.489c.316-.369.8-.551,1.13-.908a1.88,1.88,0,0,0,.258-1.915,2.2,2.2,0,0,1,.041,2.571c-.328.357-.814.545-1.13.908-.586.65-.422,1.628-.439,2.5a1.283,1.283,0,0,1-.246.843,1.247,1.247,0,0,1-1.171.234,3.356,3.356,0,0,0-1.259-.17,2.115,2.115,0,0,0-1.13.8,14.817,14.817,0,0,0-2.665,5.588,2.009,2.009,0,0,1-.8,1.265,1.945,1.945,0,0,1-.914.17c-2.929.07-5.986.082-8.651-1.171a3.251,3.251,0,0,1-1.289-.925,2.612,2.612,0,0,1-.387-.791Z" transform="translate(-551.76 -281.58)"/><path d="M584.312,282.028a1.389,1.389,0,0,1-.275-.5,1.758,1.758,0,0,1,0-.627,8.931,8.931,0,0,0-.316-3.514l.053-.059a8.9,8.9,0,0,1,.556,4.211A3.1,3.1,0,0,0,584.312,282.028Z" transform="translate(-565 -277.33)"/></g><path class="m" d="M565.608,319.93s-12.06,1.125-13.068-.72" transform="translate(-258.416 -183.257)"/><path class="m" d="M529.56,310.425s-6.666-.246-8.2,2.2" transform="translate(-245.499 -179.615)"/></g></svg>