<svg xmlns="http://www.w3.org/2000/svg" width="397.652" height="318.22" viewBox="0 0 397.652 318.22"><defs><style>.a{fill:#01bfb0;}.b{fill:#f2f2f2;}.c{fill:#3f3d56;}.d{fill:#d0cde1;}.e{fill:#ffb8b8;}.f{fill:#575a89;}.g{fill:#2f2e41;}</style></defs><g transform="translate(0 0)"><path class="a" d="M610.064,215.856a100.145,100.145,0,0,1-15.008,52.279q-2.5,4.118-5.369,8.061a134.467,134.467,0,0,1-30.605,29.971q-1.11.793-2.237,1.57l-.85.586q-1.775,1.2-3.591,2.367c-.382.244-.765.484-1.147.724-.325.207-.655.411-.984.614q-5.289,3.27-10.941,6.186c-.411.211-.826.423-1.24.634-.358.179-.716.362-1.078.541-.252.126-.508.252-.761.374-.423.212-.85.419-1.277.622q-1.666.8-3.355,1.566c-.517.236-1.037.472-1.562.7a.03.03,0,0,1-.016.008c-.521.232-1.041.46-1.566.683-.48.207-.964.415-1.448.614q-2.184.921-4.4,1.781c-.305.122-.614.24-.923.358-.427.163-.85.325-1.281.484-.549.2-1.094.407-1.643.606-.513.187-1.025.37-1.541.553l-.11.037c-.516.183-1.033.362-1.554.537q-4.014,1.379-8.146,2.579c-.346.1-.691.2-1.037.3-.155.049-.313.094-.472.134-.4.114-.805.228-1.212.338-.5.142-1,.277-1.5.407q-2.1.561-4.23,1.074c-.48.118-.956.232-1.436.342a.058.058,0,0,1-.029.008l-1.44.329c-.671.155-1.35.305-2.029.443-.785.171-1.574.334-2.367.5-.492.1-.984.2-1.476.289s-.988.191-1.48.281q-3.715.689-7.492,1.24c-.935.134-1.871.264-2.814.39-.578.077-1.159.15-1.741.22-.508.061-1.021.122-1.529.179s-1.017.114-1.529.171h0c-.049.008-.1.012-.146.016-.834.089-1.672.171-2.509.252-.492.049-.984.089-1.48.13-.443.041-.891.077-1.338.11q-2.007.165-4.026.281-.653.043-1.306.073c-.927.053-1.855.094-2.786.13-.386.016-.777.033-1.163.045-1.041.037-2.086.061-3.132.081q-.885.018-1.769.024-1.049.012-2.1.012c-33.843,0-72.741-11.591-104.782-28.442a225.192,225.192,0,0,1-23.333-14.06c-4.336-3-8.427-6.08-12.226-9.237-28.311-23.467-40.566-50.51-17.871-71.09q4.393-3.984,9.464-8.293,3.837-3.264,8.012-6.695c39.643-32.562,100.4-75.275,140.736-107.84C519.839,38.138,610.064,148.02,610.064,215.856Z" transform="translate(-212.412 -70.286)"/><path class="b" d="M508.154,569.207l-16.687,2.164-.85.11-22.211,2.88L367.024,587.509c-4.336-3-8.427-6.08-12.226-9.237l116.019-6.857,20.067-1.188.842-.049Z" transform="translate(-255.7 -361.613)"/><path class="b" d="M422.275,368.207l-88.147,11.433q3.837-3.264,8.012-6.695Z" transform="translate(-243.436 -242.363)"/><path class="b" d="M870.947,534.544q-2.5,4.118-5.369,8.061l-76.584-9.932-42.136-5.466,41.448,2.453Z" transform="translate(-488.303 -336.695)"/><path class="c" d="M654.24,550.8c-28.189,20.189-65.855,32.517-107.23,32.517-33.843,0-72.741-11.591-104.782-28.442,2.534-6.568,6.064-11.892,10.973-14.589.122-.069.248-.138.374-.2a15.514,15.514,0,0,1,6.768-1.712c28.877-.813,25.623,31.724,61.821-13.015,22.512-27.823,48.013-37.4,65.445-34.3.321.057.639.118.956.183,10.1,2.1,17.33,8.565,19.417,18.257C613.675,535.931,597,557.08,627.5,550.572a63.089,63.089,0,0,1,26.737.224Z" transform="translate(-307.57 -314.916)"/><path class="d" d="M712.918,429.119c-14.186-7.908-23.018-18.705-26.249-32.091-2.4-9.938-1.71-21.122,2.049-33.24a89.026,89.026,0,0,1,12.38-25.007c28.73-40.666,31.323-67.164,28.439-82.232C726.375,240.027,716.1,233.166,716,233.1l.443-.682c.106.069,10.649,7.09,13.887,23.947,1.867,9.718.988,20.8-2.61,32.936-4.479,15.1-13.212,31.91-25.957,49.951a88.218,88.218,0,0,0-12.268,24.778c-6.165,19.875-7.037,47.178,23.819,64.38Z" transform="translate(-451.763 -161.801)"/><path class="d" d="M677.132,425.25c-11.184-6.234-10.872-16.114-8.642-23.305a31.6,31.6,0,0,1,4.394-8.877c10.065-14.247,10.974-23.5,9.965-28.756-1.1-5.707-4.613-8.049-4.648-8.072l.443-.682c.156.1,3.843,2.558,5,8.6,1.511,7.869-1.886,17.754-10.1,29.379a30.781,30.781,0,0,0-4.282,8.648c-2.141,6.9-2.446,16.385,8.261,22.354Z" transform="translate(-441.074 -234.858)"/><path class="d" d="M805.246,211.25l-.4-.711c10.707-5.969,10.4-15.451,8.261-22.354a30.783,30.783,0,0,0-4.282-8.648c-8.213-11.625-11.611-21.51-10.1-29.379,1.161-6.043,4.847-8.5,5-8.6l.444.682c-.036.023-3.57,2.4-4.655,8.1-1,5.252-.079,14.5,9.971,28.724a31.6,31.6,0,0,1,4.394,8.876C816.119,195.135,816.43,205.015,805.246,211.25Z" transform="translate(-518.87 -107.895)"/><path class="c" d="M841.264,176.853a12.2,12.2,0,1,1-20.438-13.334c3.682-5.644,22.219-11.727,22.219-11.727S844.946,171.209,841.264,176.853Z" transform="translate(-531.01 -113.967)"/><path class="c" d="M830.264,83.853a12.2,12.2,0,1,1-20.438-13.334c3.682-5.644,22.219-11.727,22.219-11.727S833.946,78.209,830.264,83.853Z" transform="translate(-524.484 -58.792)"/><path class="d" d="M814.094,398.192c-.781-.183-19.2-4.466-25.342-1.541a12.608,12.608,0,0,0,5.442,23.992,12.406,12.406,0,0,0,2.725-.3,12.644,12.644,0,0,0,2.676-.923c6.141-2.928,14.422-19.929,14.772-20.653l.224-.456Zm-14.849,20.49a11.794,11.794,0,1,1-10.143-21.3,15.211,15.211,0,0,1,6.117-.939c6.833,0,15.968,1.932,18.188,2.424-1.387,2.782-8.818,17.265-14.162,19.811Z" transform="translate(-508.893 -258.634)"/><path class="d" d="M700.889,191.43a12.558,12.558,0,0,1-8.489-3.286c-5.027-4.584-8.011-23.259-8.136-24.051l-.079-.5.506.032c.8.051,19.671,1.3,24.7,5.887h0a12.6,12.6,0,0,1-8.5,21.919Zm-15.738-26.957c.52,3.062,3.423,19.083,7.8,23.071a11.795,11.795,0,1,0,15.894-17.431h0C704.469,166.125,688.249,164.709,685.152,164.473Z" transform="translate(-451.12 -120.968)"/><path class="c" d="M647.817,295.451a12.2,12.2,0,0,1-16.442,18.032c-4.979-4.54-8.008-23.814-8.008-23.814S642.838,290.91,647.817,295.451Z" transform="translate(-415.038 -195.768)"/><path class="d" d="M747.757,296.971a6.975,6.975,0,0,0-6.788-5.495,7.129,7.129,0,0,0-1.489.163c-3.636.789-10.1,8.708-10.371,9.041l-.321.395.456.228c.358.179,8.142,4.035,12.218,4.035a4.494,4.494,0,0,0,.968-.094,6.962,6.962,0,0,0,5.328-8.273Zm-1.635,4.8a6.083,6.083,0,0,1-3.868,2.68c-2.92.634-10.266-2.737-12.185-3.652,1.367-1.627,6.662-7.732,9.586-8.366a6.147,6.147,0,0,1,6.467,9.338Z" transform="translate(-477.582 -196.84)"/><ellipse class="c" cx="169.803" cy="3.944" rx="169.803" ry="3.944" transform="translate(1.918 287.171)"/><ellipse class="c" cx="117.556" cy="2.73" rx="117.556" ry="2.73" transform="translate(54.165 301.43)"/><ellipse class="c" cx="95.896" cy="2.227" rx="95.896" ry="2.227" transform="translate(75.879 313.766)"/><path class="e" d="M114.077,469.367s-5.694,13.422-1.22,14.642,6.507-14.642,6.507-14.642Z" transform="translate(-111.142 -302.38)"/><path class="f" d="M22.315,229.075,7.47,273.61l-3.254,24v7.728l8.541-.813v-6.507l13.422-41.078Z" transform="translate(-2.501 -135.907)"/><path class="e" d="M185.172,363.236l-.813,8.948,26.03,1.627V353.882C210.388,351.441,185.172,363.236,185.172,363.236Z" transform="translate(-154.58 -233.667)"/><path class="e" d="M151.578,715.576l-1.22,11.388,13.422-1.22s-3.66-8.948-4.067-10.168S151.578,715.576,151.578,715.576Z" transform="translate(-134.408 -448.13)"/><path class="e" d="M149.843,606.575l-1.627,10.981,8.541,6.1-.813-14.642Z" transform="translate(-87.934 -359.872)"/><path class="g" d="M164.967,385.367h-7.321l-2.44,4.474s-15.862,11.388-15.862,34.977v52.059s-.407,37.011,4.067,41.078l.447,2.68.367,2.2,9.761-1.627a10.813,10.813,0,0,1,.407-6.1c1.22-2.847-.813-18.709-.813-18.709l2.44-24.81,14.642-36.2,18.3,26.03s-2.034,36.2-1.22,37.418-.407,4.881-.407,4.881h10.575l6.914-48.4L189.37,411.8S191,391.874,185.3,389.84,164.967,385.367,164.967,385.367Z" transform="translate(-127.868 -252.544)"/><path class="g" d="M249.367,683.288s-1.332-6.1-3.716-7.321S239.606,678,239.606,678s-9.761,2.034-5.694,12.2l1.627,2.44s2.847-1.22,2.847,4.881,9.354,11.795,12.608,11.795,4.474-2.847,3.66-7.728-2.44-17.618-2.44-17.618Z" transform="translate(-183.391 -424.79)"/><path class="g" d="M156.652,730.142s-5.74-2.459-8.118-1.226-1.855,6.1-1.855,6.1-4.014,9.127,6.626,11.722l2.931.093s.66-3.026,5.627.517,15.034-.765,16.924-3.414.281-5.3-4.165-7.468-15.76-8.246-15.76-8.246Z" transform="translate(-131.785 -455.955)"/><circle class="e" cx="13.828" cy="13.828" r="13.828" transform="translate(27.134 52.09)"/><path class="e" d="M77.656,175.575l-2.44,15.455,14.642,1.22L91.485,176.8Z" transform="translate(-44.625 -104.166)"/><path class="f" d="M193.69,272.417a33.929,33.929,0,0,0-17.7-14.3c-1.135-.394-6.347-.322-9.492-.367a9.643,9.643,0,0,0-9.267,6.551c-3.766,11.077-8.748,32.81,6.267,41.284l3.254,2.847,28.877-8.134s-2.034-4.881-.813-6.507,5.287-11.388.813-18.3C194.935,274.413,194.287,273.385,193.69,272.417Z" transform="translate(-136.164 -176.832)"/><path class="g" d="M193.418,184.464s2.894-19.549-17.775-13.517c0,0-14.623-2.974-19.787,15.289l-5.242,19.147,2.4-1.247,1.061,2.441,3.829,1.048,1.71-3.237.72,3.984,31.458,3.747S177.835,203.5,177.9,188.534l2.634,2.893Z" transform="translate(-134.56 -124.646)"/><path class="a" d="M1.734,0H4.489A1.734,1.734,0,0,1,6.223,1.734V21.149H0V1.734A1.734,1.734,0,0,1,1.734,0Z" transform="translate(34.533 45.79) rotate(-11.102)"/><circle class="d" cx="7.321" cy="7.321" r="7.321" transform="translate(36.082 59.818)"/><circle class="a" cx="4.067" cy="4.067" r="4.067" transform="translate(39.336 63.071)"/><path class="c" d="M264.995,476.989l1.972-2.588-.323-.247,1.33-1.745a3.907,3.907,0,0,0-.74-5.476l-4.784-3.645a3.907,3.907,0,0,0-5.476.739L245.687,478.84a3.907,3.907,0,0,0,.739,5.476l4.783,3.645a3.907,3.907,0,0,0,5.476-.739l5.274-6.921.323.247,1.972-2.588-.323-.247.74-.97Z" transform="translate(-190.491 -298.299)"/><circle class="d" cx="2.034" cy="2.034" r="2.034" transform="translate(68.62 169.631)"/><path class="e" d="M245.358,474.993s2.034,16.675,5.694,15.862,2.847-17.489,0-17.489A13.335,13.335,0,0,0,245.358,474.993Z" transform="translate(-190.77 -304.753)"/><path class="f" d="M212.839,277.441a32.612,32.612,0,0,0-.813,12.608c.813,7.728,2.847,33.757,2.847,33.757s3.254,28.063,8.134,30.1l1.22,5.694,9.354-1.627-1.22-6.914a7.042,7.042,0,0,0,0-4.474c-.813-2.44-7.321-65.481-7.321-65.481S223.414,271.34,212.839,277.441Z" transform="translate(-170.86 -187.323)"/></g></svg>