<svg xmlns="http://www.w3.org/2000/svg" xmlns:xlink="http://www.w3.org/1999/xlink" width="203.969" height="150" viewBox="0 0 203.969 150"><defs><style>.a,.f{fill:#4da6e8;}.a,.c,.d,.m,.s{opacity:0.1;}.b{fill:#01bfb0;}.c{fill:#174079;}.e,.o{fill:none;}.e{stroke:#535461;stroke-miterlimit:10;stroke-width:2px;}.g{opacity:0.25;}.h{fill:#535461;}.i,.s{fill:#3f3d56;}.j{fill:#eaeaf3;}.k{fill:url(#a);}.l{fill:#ffb9b9;}.n{fill:#4c4c78;}.p{opacity:0.05;}.q{fill:#b96b6b;}.r{fill:#757a9b;}.t{fill:#cbcdda;}.u{fill:#ffd037;}.v{fill:#a8a8a8;}.w{opacity:0.2;}</style><linearGradient id="a" x1="0.5" y1="1" x2="0.5" gradientUnits="objectBoundingBox"><stop offset="0" stop-color="gray" stop-opacity="0.251"/><stop offset="0.54" stop-color="gray" stop-opacity="0.122"/><stop offset="1" stop-color="gray" stop-opacity="0.102"/></linearGradient></defs><path class="a" d="M843.73,692.845c3.815,1.382,8.47.541,12.8.638a4.157,4.157,0,0,1,1.7.292,3.915,3.915,0,0,1,1.035.958c1.212,1.231,3.69,1.627,5.871,1.417a40.385,40.385,0,0,0,6.216-1.426c3.544-.911,7.594-1.325,11.09-.332a2.678,2.678,0,0,0,1,.159c.768-.081.994-.738,1.531-1.118.967-.681,3.068-.5,3.494-1.395.249-.526-.325-1.065-.948-1.424-2.4-1.375-5.806-1.6-8.933-1.389s-6.206.8-9.343.8c-3.915,0-7.7-.9-11.575-1.266a22.074,22.074,0,0,0-8.136.528C846.8,690.1,846.2,691.921,843.73,692.845Z" transform="translate(-696.779 -569.589)"/><ellipse class="b" cx="31.984" cy="5.957" rx="31.984" ry="5.957" transform="translate(65.186 116.29)"/><path class="a" d="M58.46,791.346c7.254,2.439,16.1.956,24.335,1.127a8.386,8.386,0,0,1,3.223.515,7.33,7.33,0,0,1,1.969,1.69c2.306,2.175,7.033,2.869,11.162,2.5s7.917-1.59,11.808-2.522c6.74-1.609,14.442-2.339,21.088-.587a5.43,5.43,0,0,0,1.906.282c1.457-.144,1.891-1.31,2.909-1.978,1.845-1.2,5.836-.876,6.642-2.461.474-.922-.616-1.882-1.8-2.516-4.542-2.428-11.04-2.828-16.984-2.454s-11.791,1.408-17.765,1.411c-7.431.009-14.627-1.579-22.006-2.229a45.2,45.2,0,0,0-15.466.922C64.292,786.492,63.15,789.712,58.46,791.346Z" transform="translate(-56.386 -647.272)"/><path class="c" d="M67.53,473.44c3.2,13.689,9.983,25.523,20.7,31.259,22.268,11.92,72.489,5.771,109.971-1.292A85.824,85.824,0,0,0,247,475.506Z" transform="translate(-63.782 -394.114)"/><path class="c" d="M286.965,58.361H266.4a1.777,1.777,0,1,1,0-3.553h3.553a1.779,1.779,0,0,1,0-3.555h-2.539a1.779,1.779,0,0,1,0-3.555h10.734a28.323,28.323,0,0,0-8.372-2.308c-29.268-3.758-39.718-1.267-43.406,1.286a40.993,40.993,0,0,1-15.042,6.594c-18.066,3.725-51.828,8.208-82.439-1.435-15.215-4.8-26.521,3.306-33.3,16.841H290.535a31.764,31.764,0,0,0-2.415-10.745A1.767,1.767,0,0,1,286.965,58.361Z" transform="translate(-86.665 -43.471)"/><path class="c" d="M56.114,318.56a90.54,90.54,0,0,0,.8,23.881l180.56,6.6a84.842,84.842,0,0,0,12.546-19.132Zm71.414,17.04h-3.553a1.777,1.777,0,1,1,0,3.553H103.409a1.777,1.777,0,1,1,0-3.553h3.553a1.779,1.779,0,0,1,0-3.555h-2.539a1.779,1.779,0,0,1,0-3.555h20.565a1.779,1.779,0,0,1,0,3.555h2.539a1.779,1.779,0,1,1,0,3.555Z" transform="translate(-54.112 -267.808)"/><path class="c" d="M260.06,180.75,62.931,185.545A78.57,78.57,0,0,0,58.21,205.9H256.6a84.329,84.329,0,0,0,2.865-12.975A61.633,61.633,0,0,0,260.06,180.75ZM98.234,196.463H94.681a1.777,1.777,0,1,1,0,3.553H74.115a1.777,1.777,0,0,1,0-3.553h3.553a1.779,1.779,0,0,1,0-3.555H75.13a1.779,1.779,0,0,1,0-3.555H95.7a1.779,1.779,0,0,1,0,3.555h2.539a1.779,1.779,0,1,1,0,3.555Z" transform="translate(-56.182 -155.423)"/><g class="d" transform="translate(115.418 68.376)"><path class="e" d="M680.11,488.458s5.2-12.819,14.924-17.578a20.96,20.96,0,0,0,9.516-9.239,35.266,35.266,0,0,0,2.386-5.99" transform="translate(-678.764 -447.982)"/><path class="f" d="M830.924,418.719c-1.013,1.273-6.254,3.136-6.254,3.136s.631-5.526,1.644-6.8a2.952,2.952,0,0,1,4.612,3.666Z" transform="translate(-796.654 -414.085)"/><path class="f" d="M818.083,468.73c-1.542.518-6.953-.771-6.953-.771s3.533-4.3,5.075-4.813a2.952,2.952,0,0,1,1.878,5.585Z" transform="translate(-785.612 -454.012)"/><path class="f" d="M771.192,532.8c-1.594-.332-5.612-4.175-5.612-4.175s5.217-1.924,6.81-1.594a2.952,2.952,0,1,1-1.2,5.769Z" transform="translate(-748.465 -506.163)"/><path class="f" d="M717.436,572.311c-1.625-.057-6.236-3.166-6.236-3.166s4.817-2.778,6.443-2.721a2.952,2.952,0,1,1-.207,5.887Z" transform="translate(-704.118 -538.317)"/><path class="f" d="M783.8,456.282c.208,1.614,3.732,5.917,3.732,5.917s2.319-5.055,2.111-6.669a2.952,2.952,0,0,0-5.843.753Z" transform="translate(-763.322 -445.939)"/><path class="f" d="M723.194,498.258c.681,1.476,5.33,4.529,5.33,4.529s.7-5.516.02-6.994a2.952,2.952,0,1,0-5.35,2.465Z" transform="translate(-713.607 -479.171)"/><path class="f" d="M672.978,554.224c.424,1.572,4.483,5.365,4.483,5.365s1.622-5.319,1.2-6.891a2.952,2.952,0,1,0-5.69,1.526Z" transform="translate(-672.815 -525.186)"/><path class="g" d="M830.924,418.719c-1.013,1.273-6.254,3.136-6.254,3.136s.631-5.526,1.644-6.8a2.952,2.952,0,0,1,4.612,3.666Z" transform="translate(-796.654 -414.085)"/><path class="g" d="M818.083,468.73c-1.542.518-6.953-.771-6.953-.771s3.533-4.3,5.075-4.813a2.952,2.952,0,0,1,1.878,5.585Z" transform="translate(-785.612 -454.012)"/><path class="g" d="M771.192,532.8c-1.594-.332-5.612-4.175-5.612-4.175s5.217-1.924,6.81-1.594a2.952,2.952,0,1,1-1.2,5.769Z" transform="translate(-748.465 -506.163)"/><path class="g" d="M717.436,572.311c-1.625-.057-6.236-3.166-6.236-3.166s4.817-2.778,6.443-2.721a2.952,2.952,0,1,1-.207,5.887Z" transform="translate(-704.118 -538.317)"/><path class="g" d="M783.8,456.282c.208,1.614,3.732,5.917,3.732,5.917s2.319-5.055,2.111-6.669a2.952,2.952,0,0,0-5.843.753Z" transform="translate(-763.322 -445.939)"/><path class="g" d="M723.194,498.258c.681,1.476,5.33,4.529,5.33,4.529s.7-5.516.02-6.994a2.952,2.952,0,1,0-5.35,2.465Z" transform="translate(-713.607 -479.171)"/><path class="g" d="M672.978,554.224c.424,1.572,4.483,5.365,4.483,5.365s1.622-5.319,1.2-6.891a2.952,2.952,0,1,0-5.69,1.526Z" transform="translate(-672.815 -525.186)"/></g><g class="d" transform="translate(107.523 41.631)"><path class="e" d="M660.09,355.727s.657-13.822,8.245-21.532a20.95,20.95,0,0,0,5.913-11.87,35.142,35.142,0,0,0,.264-6.444" transform="translate(-654.542 -307.254)"/><path class="f" d="M738.806,272.865c-.533,1.537-4.863,5.027-4.863,5.027s-1.236-5.422-.7-6.959a2.952,2.952,0,0,1,5.566,1.932Z" transform="translate(-714.088 -269.124)"/><path class="f" d="M742.883,320.335c-1.292,1-6.813,1.579-6.813,1.579s1.908-5.225,3.192-6.225a2.952,2.952,0,1,1,3.622,4.646Z" transform="translate(-716.505 -306.486)"/><path class="f" d="M714.98,396.828c-1.612.216-6.681-2.077-6.681-2.077s4.286-3.546,5.9-3.762a2.952,2.952,0,0,1,.782,5.839Z" transform="translate(-693.858 -368.5)"/><path class="f" d="M678.965,451.963c-1.553.485-6.935-.922-6.935-.922s3.624-4.219,5.177-4.7a2.952,2.952,0,0,1,1.758,5.623Z" transform="translate(-664.279 -413.572)"/><path class="f" d="M702.747,325.237c.738,1.454,5.483,4.345,5.483,4.345s.511-5.535-.22-6.99a2.952,2.952,0,0,0-5.264,2.646Z" transform="translate(-689.138 -311.539)"/><path class="f" d="M659.485,384.936c1.131,1.168,6.529,2.505,6.529,2.505s-1.168-5.437-2.3-6.607a2.952,2.952,0,1,0-4.229,4.1Z" transform="translate(-653.255 -359.375)"/><path class="f" d="M630.658,454.315c.922,1.341,6.014,3.572,6.014,3.572s-.232-5.557-1.151-6.9a2.952,2.952,0,1,0-4.863,3.321Z" transform="translate(-630.02 -416.24)"/></g><rect class="h" width="1.253" height="17.704" transform="translate(68.11 19.241)"/><rect class="h" width="1.253" height="10.014" transform="translate(68.11 43.025)"/><rect class="h" width="56.331" height="122.319" rx="28.166" transform="translate(69.005 1.895)"/><path class="i" d="M28.166,0A28.166,28.166,0,0,1,56.331,28.166V83.244A28.166,28.166,0,1,1,0,83.244V28.166A28.166,28.166,0,0,1,28.166,0Z" transform="translate(69.005 7.618)"/><rect class="j" width="9.298" height="1.253" rx="0.626" transform="translate(92.609 4.577)"/><circle class="j" cx="0.895" cy="0.895" r="0.895" transform="translate(104.232 4.398)"/><path class="h" d="M471,551.047v-3.321a.1.1,0,0,1,.1-.1h.369a.094.094,0,0,1,.094.1v1.384l1.535-1.421a.253.253,0,0,1,.413.194v3.007a.253.253,0,0,1-.413.194l-1.54-1.413v1.376a.094.094,0,0,1-.094.1h-.369A.1.1,0,0,1,471,551.047Z" transform="translate(-392.815 -454.616)"/><path class="h" d="M660.893,547.718v3.321a.094.094,0,0,1-.094.1h-.378a.094.094,0,0,1-.094-.1v-1.384l-1.535,1.421a.251.251,0,0,1-.411-.194v-3a.251.251,0,0,1,.411-.194l1.535,1.413v-1.376a.094.094,0,0,1,.094-.1h.378A.094.094,0,0,1,660.893,547.718Z" transform="translate(-545.625 -454.616)"/><path class="h" d="M563.122,551.505h-.753a.369.369,0,0,1-.369-.369v-2.767a.369.369,0,0,1,.369-.369h.751a.369.369,0,0,1,.369.369v2.754a.369.369,0,0,1-.367.382Zm2.38-.369v-2.767a.369.369,0,0,0-.369-.369h-.751a.369.369,0,0,0-.369.369v2.754a.369.369,0,0,0,.369.369h.751a.369.369,0,0,0,.373-.369Z" transform="translate(-467.026 -454.918)"/><rect class="j" width="44.278" height="0.493" transform="translate(74.582 88.614)"/><circle class="h" cx="1.168" cy="1.168" r="1.168" transform="translate(87.087 87.691)"/><rect class="h" width="13.673" height="0.493" transform="translate(74.582 88.614)"/><path class="k" d="M118.738,239.259s-1.579-4.024-6.948-7.614-5.306-5.719-5.306-5.719-1.009-7.531-2.336-9.634a20.917,20.917,0,0,1-2.085-5.138s-.055.074-.146.184a1.326,1.326,0,0,0-.018-.162c-.135-1.114-.482-3.2-1.057-2.559,0,0-.131.107-.351.277l-.09-.116a12.291,12.291,0,0,1-1.393-2.017,58.769,58.769,0,0,0-8.275-6.131c-1.181-.553-3.718-1.972-5.1-2.767a3.216,3.216,0,0,0-2.144-.369c-2.029.352-5.9,1.266-5.384,3.011.694,2.352,3.378,1.7,5.21.369,0,0,1.612-.618,3.443,1.208s9.35,7.212,9.35,7.212l.625,1.734.059.166a1.644,1.644,0,0,1-.684.113c-.568-.072-.336.485.079,1.107.057.085.118.172.184.256-.076-.03-.149-.057-.227-.092,0,0,.044.085.12.236l-.12-.05a64.077,64.077,0,0,1,3.094,6.625,8.658,8.658,0,0,1,.135,1.395,1.491,1.491,0,0,1-.2.958,12.217,12.217,0,0,0-1.011,2.105l-2.968.127h0c-.089-.009-.184-.018-.266-.031l-.184-.028v-.07a5.382,5.382,0,0,0-1.2-3.389h.044c.627-1.365-.723-2.79-1.017-4.265a9.056,9.056,0,0,1-.092-1.452,5.576,5.576,0,0,0-.05-.579c-.3-2.039-2.242-3.4-4.129-4.173a4.514,4.514,0,0,0-3.494-.31c-1.28.568-1.9,2.065-3.053,2.86-1.845,1.271-4.356.395-6.559.771a3.3,3.3,0,0,0-2.214,1.245,4.017,4.017,0,0,0-.553,2.2c-.053,2.042.356,4.129-.184,6.088-.876,3.2-3.933,5.166-6.219,7.549a18.418,18.418,0,0,0-3.505,5.2c-.327.729-.579,1.66-.054,2.262.3.338.777.459,1.09.782a1.961,1.961,0,0,1,.38,1.627c-.275,2.127-1.873,3.778-3.136,5.505s-2.225,4.1-1.155,5.948c.922,1.592,2.941,2.068,4.738,2.4a3.263,3.263,0,0,0,1.721,0,2.863,2.863,0,0,0,1.173-1.031,14.515,14.515,0,0,0,1.83-3.162,2.934,2.934,0,0,1,.974-1.476,2.578,2.578,0,0,1,1.544-.194l3.944.325a2.237,2.237,0,0,0,1-.068,1.876,1.876,0,0,0,.863-.841,7.594,7.594,0,0,0,.7-1.675c.474-1.535.738-3.181,1.845-4.28a5.556,5.556,0,0,1,3.874-1.291c.852,0,1.7.077,2.553.113.238.011.48.018.718.018.161,0,.321,0,.482-.009.315,2.188.7,5.428.4,6.324a7.107,7.107,0,0,0-.443,2.291l.218.107c-.02.05-.041.1-.061.157a1.8,1.8,0,0,0,.317,2.105,2.717,2.717,0,0,0,.369.247l-.053.155a76.4,76.4,0,0,0-2.415,7.907c-.184,1.594-2.463,6.441-2.463,6.441s-6.19,5.09-.616,6.933a11.35,11.35,0,0,1,1.707-3.417,9.408,9.408,0,0,0,1.568-2.967,4.822,4.822,0,0,1,.649-1.31,48.97,48.97,0,0,0,2.528-4.981l.786.168c-.395,1.707-.5,4.649.967,9.33l.081.478a.488.488,0,0,0-.1-.055c-.7-.29-1.8.708-2.457,2.232-.6,1.393-.624,2.742-.083,3.183a.627.627,0,0,0,.164.1.806.806,0,0,0,.6-.018l.026-.011a1.779,1.779,0,0,0,.434-.255,5.753,5.753,0,0,1,1.609-.356,1.927,1.927,0,0,1,.422.07c.037.553.055,1.09.041,1.548-.072,2.439-.116,3.505-.116,3.505a11.712,11.712,0,0,1-.642,2.251c-.284.441-.59,9.778.592,14.256,0,0,.806,4.341.45,5.083v.015a4.023,4.023,0,0,0-.264,1.223,10.591,10.591,0,0,0-.035,1.085l-1.707,5.223s-.046.092-.107.244a2.8,2.8,0,0,0-.2,1.4,1.406,1.406,0,0,0,.251.613h0a2.055,2.055,0,0,0,2.352,2.258c2.594-.041,3.048-1.779,3.048-1.779l-.184-.814a.681.681,0,0,0,.031-.2s-.018-.286-.039-.716a13.944,13.944,0,0,1,.159-3.742c.354-.673.14-3.552.14-3.552l-.094-.784-.1-.819-.138-1.16s-.041-4.944.393-5.664a31.543,31.543,0,0,0,1.321-10.8,4.871,4.871,0,0,1,.234-1.972,12.954,12.954,0,0,0,.775-4.594c-.015-.135-.024-.308-.028-.517a3.505,3.505,0,0,0,2.708,1.594h.089a3.443,3.443,0,0,0,2.225-.683,9.9,9.9,0,0,0,3.568-5.319,19.367,19.367,0,0,1,.788-2.214,30.178,30.178,0,0,0,2.273-7.131l.079.077s1.771-5.269,1.721-7.328a1.8,1.8,0,0,0-.111-.8l-.02-.162a.126.126,0,0,1,.02-.024s-.7-5.516-.946-10.221l2.273-1.7s-1.074-2.214-.38-2.629,1.707,2.2,1.707,2.2S120.634,243.036,118.738,239.259Zm-25.36,6.1,1.441-1.448c.138.8-.2,1.749-1.476,2.841l-.044.015C93.377,245.971,93.377,245.357,93.377,245.357Zm-1.725-15.92s-.166.127-.435.343c-.046-.262-.094-.526-.146-.788.081.05.161.1.236.155A3.021,3.021,0,0,1,91.652,229.437Zm7.276,34.076.185-1.533.4.264a19.5,19.5,0,0,0-.815,3.277c.1-.98.172-1.712.2-2.029Zm-.369,4.906a2.215,2.215,0,0,1-.105.851h-.1c.063-.714.125-1.411.184-2.063a11.973,11.973,0,0,0,.026,1.212Z" transform="translate(-56.973 -169.038)"/><path class="l" d="M219.47,600.493v2.029c.81.3,1.66-.4,2.524-.354a12.638,12.638,0,0,1,1.459.389.476.476,0,0,0,.369-.054.537.537,0,0,0,.151-.349c.184-1.079.387-3.69-1.291-3.874C221.442,598.139,220.968,600.349,219.47,600.493Z" transform="translate(-187.69 -495.917)"/><path class="m" d="M219.47,600.493v2.029c.81.3,1.66-.4,2.524-.354a12.638,12.638,0,0,1,1.459.389.476.476,0,0,0,.369-.054.537.537,0,0,0,.151-.349c.184-1.079.387-3.69-1.291-3.874C221.442,598.139,220.968,600.349,219.47,600.493Z" transform="translate(-187.69 -495.917)"/><path class="n" d="M219.1,596.154a4.112,4.112,0,0,1-1.784,2.19l-.026.011a.774.774,0,0,1-.583.016.552.552,0,0,1-.161-.1c-.526-.439-.5-1.779.081-3.162.638-1.513,1.71-2.505,2.4-2.214S219.738,594.641,219.1,596.154Z" transform="translate(-184.997 -491.489)"/><path class="n" d="M226.172,812.489l-.035.483a2.034,2.034,0,0,0,2.3,2.238c2.522-.031,2.967-1.767,2.967-1.767l-.26-1.153Z" transform="translate(-193.123 -670.448)"/><path class="l" d="M233.665,534.557s-1.221,11.968-.991,14.09a12.751,12.751,0,0,1-.755,4.564,4.93,4.93,0,0,0-.227,1.957A31.958,31.958,0,0,1,230.4,565.9c-.422.716-.384,5.627-.384,5.627l.135,1.153.1.814.09.778s.208,2.86-.137,3.528a14.121,14.121,0,0,0-.153,3.718c.018.426.037.71.037.71a.827.827,0,0,1-.21.539c-.312.384-1.085.819-2.994.753-1.526-.053-2.029-.69-2.147-1.361a2.831,2.831,0,0,1,.2-1.393c.059-.151.105-.242.105-.242l1.66-5.19a10.468,10.468,0,0,1,.035-1.078,4.025,4.025,0,0,1,.256-1.214v-.015c.347-.738-.439-5.05-.439-5.05-1.151-4.452-.852-13.723-.576-14.162a12.081,12.081,0,0,0,.64-2.227s.044-1.061.114-3.483a46.285,46.285,0,0,0-.716-6.87C223.407,532.745,225.9,530,225.9,530l7.771,1.823Z" transform="translate(-191.969 -440.239)"/><path class="n" d="M239.186,762.1a12.632,12.632,0,0,1-3.516.762,4.022,4.022,0,0,1,.256-1.214,4.652,4.652,0,0,0,3.164-.369Z" transform="translate(-200.902 -628.849)"/><path class="n" d="M229.906,806.725c-1.148-.6-3.31-1.457-5.142-.609a2.831,2.831,0,0,1,.2-1.393,8.549,8.549,0,0,1,5.118.753c.018.426.037.71.037.71a.826.826,0,0,1-.21.539Z" transform="translate(-191.994 -664.199)"/><path class="l" d="M186.811,488.12v4.734s-3.535,8.227-4.574,9.732a4.8,4.8,0,0,0-.633,1.3,9.393,9.393,0,0,1-1.528,2.952,11.3,11.3,0,0,0-1.66,3.393c-5.426-1.83.6-6.887.6-6.887s2.214-4.813,2.4-6.4a77.1,77.1,0,0,1,2.35-7.856c.184-.553.31-.908.31-.908Z" transform="translate(-152.364 -406.085)"/><path class="o" d="M263.024,586.973s-1.9-1.291-2.636,2.214,2.092,4.428,2.092,4.428Z" transform="translate(-220.959 -486.511)"/><path class="p" d="M263.024,586.973s-1.9-1.291-2.636,2.214,2.092,4.428,2.092,4.428Z" transform="translate(-220.959 -486.511)"/><path class="l" d="M267.571,538.122a18.162,18.162,0,0,0-1.5,7.625,2.182,2.182,0,0,1-.166,1.018,13.265,13.265,0,0,0-1,5.839v.111a3.369,3.369,0,0,0,5.383,2.463,9.843,9.843,0,0,0,3.474-5.284,20.009,20.009,0,0,1,.767-2.2c.922-2.157,2.7-6.754,2.166-8.743C276,536.316,267.571,538.122,267.571,538.122Z" transform="translate(-224.729 -446.37)"/><path class="m" d="M290.329,538.933c-.308-1.153-2.083-1.458-3.985-1.437,1.758.022,3.321.369,3.616,1.437.531,1.989-1.249,6.586-2.166,8.743a19.382,19.382,0,0,0-.767,2.2,9.846,9.846,0,0,1-3.474,5.284,3.321,3.321,0,0,1-1.832.675,3.308,3.308,0,0,0,2.2-.675,9.846,9.846,0,0,0,3.474-5.284,19.382,19.382,0,0,1,.767-2.2C289.079,545.521,290.86,540.922,290.329,538.933Z" transform="translate(-238.456 -446.351)"/><path class="m" d="M220.01,508.08s-1.362,5.35-1.66,5.673c0,0,8.856,1.775,10.123,3.112l.184-1.522.624.415s5.12-3.644,9.594.922c0,0,2.19-6.642,1.568-7.887s-8.1-.161-8.1-.161Z" transform="translate(-186.777 -422.363)"/><path class="n" d="M220.01,507.08s-1.362,5.35-1.66,5.673c0,0,8.856,1.775,10.123,3.112l.184-1.522.624.415s5.12-3.644,9.594.922c0,0,2.19-6.642,1.568-7.887s-8.1-.161-8.1-.161Z" transform="translate(-186.777 -421.547)"/><path class="q" d="M93.393,277.379a4.023,4.023,0,0,0,.017.834c.061.553.146,1.107.24,1.66.028.162.057.323.087.483.291,1.583.668,3.153.922,4.743a23.058,23.058,0,0,1,.269,2.457,13.54,13.54,0,0,1-.393,4.339,8.707,8.707,0,0,1-.959,2.24,2.836,2.836,0,0,1-.664.8,1.821,1.821,0,0,1-.184.116,2.983,2.983,0,0,1-1.236.336c-.293.028-.587.037-.882.037-.232,0-.467,0-.7-.018-.828-.035-1.66-.118-2.485-.113a5.3,5.3,0,0,0-3.771,1.277c-1.092,1.092-1.341,2.727-1.8,4.243a7.724,7.724,0,0,1-.686,1.66,1.846,1.846,0,0,1-.841.836,2.122,2.122,0,0,1-.97.068l-3.849-.323a2.452,2.452,0,0,0-1.5.194,2.876,2.876,0,0,0-.948,1.458,14.459,14.459,0,0,1-1.782,3.136,2.853,2.853,0,0,1-1.142,1.024,3.007,3.007,0,0,1-1.675,0c-1.749-.325-3.712-.8-4.612-2.378-1.042-1.845-.1-4.194,1.124-5.9s2.784-3.336,3.052-5.452a1.977,1.977,0,0,0-.369-1.616c-.306-.321-.769-.443-1.061-.777-.513-.592-.268-1.524.052-2.247a18.319,18.319,0,0,1,3.415-5.166c2.227-2.365,5.2-4.317,6.055-7.5.522-1.954.124-4.027.175-6.055a4.06,4.06,0,0,1,.541-2.192,3.21,3.21,0,0,1,2.159-1.236c2.144-.369,4.585.5,6.385-.766,1.124-.79,1.727-2.277,2.972-2.841a4.322,4.322,0,0,1,3.4.308c1.845.769,3.723,2.12,4.02,4.146a5.462,5.462,0,0,1,.048.576,9.169,9.169,0,0,0,.09,1.443c.286,1.465,1.6,2.88.989,4.243C95.011,275.685,93.544,275.691,93.393,277.379Z" transform="translate(-60.408 -223.721)"/><path class="m" d="M161.354,357.03c-.666,1-1.231,2.079-1.8,3.153a2.984,2.984,0,0,1-1.236.336c-.293.028-.587.037-.882.037-.232,0-.467,0-.7-.018-.828-.035-1.66-.118-2.485-.113a5.3,5.3,0,0,0-3.771,1.277c-1.092,1.092-1.341,2.727-1.8,4.243h-.2a4.2,4.2,0,0,1-2.539-1.22,1.815,1.815,0,0,1-.482-.526,1.389,1.389,0,0,1-.114-.79,5.832,5.832,0,0,1,1.491-2.8,31.3,31.3,0,0,0,1.969-2.867,2.5,2.5,0,0,0,.5-1.476,9.3,9.3,0,0,0-.369-1.216,3.014,3.014,0,0,1,1.3-2.817,18.4,18.4,0,0,0,2.552-2.039,5.437,5.437,0,0,0,1.124-3.107,3.562,3.562,0,0,1,.566-2.238c.786-.854,2-.325,2.978-.244,1.018.087,2.017.221,3.015.393.028.162.057.323.087.483.292,1.583.668,3.153.922,4.743a23.051,23.051,0,0,1,.269,2.457A13.54,13.54,0,0,1,161.354,357.03Z" transform="translate(-127.227 -288.855)"/><path class="l" d="M185.175,211.751l-3.69,2.522-.282-.8-.609-1.723s-7.319-5.35-9.1-7.164-3.35-1.2-3.35-1.2c-1.784,1.323-4.4,1.969-5.074-.369-.5-1.734,3.266-2.64,5.241-2.991a3.076,3.076,0,0,1,2.087.369c1.351.786,3.821,2.2,4.97,2.745a56.756,56.756,0,0,1,8.057,6.088,12.371,12.371,0,0,0,1.356,2C185.009,211.539,185.175,211.751,185.175,211.751Z" transform="translate(-141.656 -171.106)"/><path class="r" d="M322.1,385.12l1.66,13.16,2.583-1.967s-1.046-2.214-.369-2.612,1.66,2.181,1.66,2.181,6.581.369,4.736-3.382l-2.092-2.706-4.12-2.924Z" transform="translate(-271.386 -322.088)"/><path class="s" d="M322.1,385.12l1.66,13.16,2.583-1.967s-1.046-2.214-.369-2.612,1.66,2.181,1.66,2.181,6.581.369,4.736-3.382l-2.092-2.706-4.12-2.924Z" transform="translate(-271.386 -322.088)"/><path class="l" d="M233.923,336.223l-.8,6.642-5.328.432s-5.684-1.622-3.588-5.6c.952-1.808.354-2.891-.509-3.526a5.329,5.329,0,0,0-2.1-.839s-.155-10.147,1.627-6.7A4.966,4.966,0,0,0,227.211,329a12.751,12.751,0,0,0,3.7-.1Z" transform="translate(-189.421 -273.807)"/><path class="m" d="M227.2,329.091a5.433,5.433,0,0,1-3.515,5.082,5.33,5.33,0,0,0-2.1-.839s-.155-10.147,1.627-6.7A4.966,4.966,0,0,0,227.2,329,.742.742,0,0,1,227.2,329.091Z" transform="translate(-189.412 -273.807)"/><circle class="l" cx="5.433" cy="5.433" r="5.433" transform="translate(26.741 49.665)"/><path class="m" d="M265.542,261.5l-3.69,2.522-.282-.8a15.561,15.561,0,0,0,3.575-2.24C265.376,261.284,265.542,261.5,265.542,261.5Z" transform="translate(-222.023 -220.851)"/><path class="t" d="M262.534,262.787l-.155.707-4.3,1.384a15.839,15.839,0,0,1-1.183-1.517c-.4-.614-.631-1.168-.077-1.1,1.2.153,4.612-2.675,4.612-2.675.57-.64.9,1.437,1.039,2.546C262.512,262.519,262.534,262.787,262.534,262.787Z" transform="translate(-217.877 -219.619)"/><path class="m" d="M220.466,488.12v1.688a6.871,6.871,0,0,1-3.046-.72c.185-.553.31-.908.31-.908Z" transform="translate(-186.019 -406.085)"/><path class="t" d="M217.73,476.8l-.234,1.044-.485,2.122a6.51,6.51,0,0,1-3.428-.937,1.809,1.809,0,0,1-.31-2.09,3.862,3.862,0,0,1,.31-.662Z" transform="translate(-182.482 -396.43)"/><path class="m" d="M218.567,476.8l-.234,1.044c-1.09.576-3.585-.59-4.223-.906a3.862,3.862,0,0,1,.31-.662Z" transform="translate(-183.319 -396.43)"/><path class="r" d="M212.353,408.62l-.583,2.245s1.168,6.979.707,8.363a7.164,7.164,0,0,0-.43,2.275s3.382,1.784,4.52.893,1.136-4.666,1.136-4.666l2.4-2.459-3.044-4.4Z" transform="translate(-181.411 -341.253)"/><path class="m" d="M236.621,361s2.906,9.732-6.549,7.472l2.736,10.747-5.457,10.147s17.481,2.952,20.433-.876c0,0-1.43-11.531-.876-15.405s-1.753-9.918-3-10.309S236.621,361,236.621,361Z" transform="translate(-194.117 -302.418)"/><path class="m" d="M236.621,363s2.906,9.732-6.549,7.472l2.736,10.747-5.457,10.147s17.481,2.952,20.433-.876c0,0-1.43-11.531-.876-15.405s-1.753-9.918-3-10.31S236.621,363,236.621,363Z" transform="translate(-194.117 -304.049)"/><path class="b" d="M236.621,362s2.906,9.732-6.549,7.472l2.736,10.747-5.457,10.147s17.481,2.952,20.433-.876c0,0-1.43-11.531-.876-15.405s-1.753-9.918-3-10.31S236.621,362,236.621,362Z" transform="translate(-194.117 -303.234)"/><path class="m" d="M257.95,276.4a4.3,4.3,0,0,1-3.6-.194,64.5,64.5,0,0,1,3.015,6.581,4.479,4.479,0,0,1-.063,2.522,12.187,12.187,0,0,0-.983,2.09l-2.891.127s1.845.738,1.845,2.147,4.059,4.059,6.212,5.1,10.946,4.127,10.946,4.127l3.937,3.806s-1.539-4-6.765-7.564-5.166-5.688-5.166-5.688-.983-7.472-2.275-9.564a21.072,21.072,0,0,1-2.029-5.1s-1.033,1.424-1.647,1.463A1.517,1.517,0,0,0,257.95,276.4Z" transform="translate(-215.385 -232.113)"/><path class="m" d="M264.332,274.571l-.155.707-4.3,1.384a15.849,15.849,0,0,1-1.183-1.517,4.271,4.271,0,0,0,3.55.173,1.476,1.476,0,0,1,.537-.144c.467-.03,1.173-.856,1.487-1.255C264.31,274.3,264.332,274.571,264.332,274.571Z" transform="translate(-219.675 -231.404)"/><path class="i" d="M257.95,275.4a4.3,4.3,0,0,1-3.6-.194,64.5,64.5,0,0,1,3.015,6.581,4.48,4.48,0,0,1-.063,2.522,12.186,12.186,0,0,0-.983,2.09l-2.891.127s1.845.738,1.845,2.147,4.059,4.059,6.212,5.1,10.946,4.127,10.946,4.127l3.937,3.806s-1.539-4-6.765-7.564-5.166-5.688-5.166-5.688-.983-7.472-2.275-9.564a21.073,21.073,0,0,1-2.029-5.1s-1.033,1.424-1.647,1.463A1.516,1.516,0,0,0,257.95,275.4Z" transform="translate(-215.385 -231.298)"/><path class="m" d="M172.017,309.127a10.246,10.246,0,0,0,.151-1.819c.207-1.64,1.751-2.961,1.679-4.612a.738.738,0,0,1,.065-.454.592.592,0,0,1,.4-.2c.8-.146,1.729-.068,2.326-.625a2.9,2.9,0,0,0,.493-2.415,1.862,1.862,0,0,0-.47-1.258,1.814,1.814,0,0,0-.806-.33q-1.509-.343-3.035-.6a6.027,6.027,0,0,0-3.081.048,6.44,6.44,0,0,0-2.43,2.011,3.422,3.422,0,0,0-1.17,2.657,6.472,6.472,0,0,0,.683,1.476,3.575,3.575,0,0,1-.184,3.339c-.483.782-1.291,1.4-1.487,2.3a2.194,2.194,0,0,0,.958,2.223C167.574,311.834,171.439,310.959,172.017,309.127Z" transform="translate(-143.357 -249.931)"/><path class="q" d="M171.017,309.127a10.244,10.244,0,0,0,.151-1.819c.207-1.64,1.751-2.961,1.679-4.612a.738.738,0,0,1,.065-.454.592.592,0,0,1,.4-.2c.8-.146,1.729-.068,2.326-.625a2.9,2.9,0,0,0,.493-2.415,1.862,1.862,0,0,0-.47-1.258,1.814,1.814,0,0,0-.806-.33q-1.509-.343-3.035-.6a6.027,6.027,0,0,0-3.081.048,6.44,6.44,0,0,0-2.43,2.011,3.422,3.422,0,0,0-1.17,2.657,6.472,6.472,0,0,0,.683,1.476,3.575,3.575,0,0,1-.184,3.339c-.483.782-1.291,1.4-1.487,2.3a2.194,2.194,0,0,0,.958,2.223C166.574,311.834,170.439,310.959,171.017,309.127Z" transform="translate(-142.542 -249.931)"/><path class="m" d="M214.882,372.23s-4.562,3.609-4.716,4.808a17.668,17.668,0,0,0,.491,4.027l4.551,2.86s5.258,2.061,1.323,5.5-5.321,10.824-5.321,10.824,1.908,2.275,5.474-4.266c0,0,3.444-3.751,3.6-5.6s.69-7.5-1.638-11.009a36.662,36.662,0,0,1-2.974-6.256A1.686,1.686,0,0,0,214.882,372.23Z" transform="translate(-180.084 -311.576)"/><path class="i" d="M213.882,372.23s-4.562,3.609-4.716,4.808a17.665,17.665,0,0,0,.491,4.027l4.551,2.86s5.258,2.061,1.323,5.5-5.321,10.824-5.321,10.824,1.908,2.275,5.474-4.266c0,0,3.444-3.751,3.6-5.6s.69-7.5-1.638-11.009a36.657,36.657,0,0,1-2.974-6.256A1.686,1.686,0,0,0,213.882,372.23Z" transform="translate(-179.268 -311.576)"/><path class="m" d="M228.045,465.45s-4,1.255-3.516,5.166" transform="translate(-191.782 -387.598)"/><path class="m" d="M197.638,392.65l-.928,4.029,1.753-1.8Z" transform="translate(-160.418 -320.209)"/><path class="m" d="M221.715,502.99l-1.2.906,1.011.616Z" transform="translate(-179.835 -410.192)"/><path class="m" d="M310.6,429.865s4.114.133,4.2-1.415" transform="translate(-262.007 -357.424)"/><path class="f" d="M78.967,772.33s1.015,1.326-.467,3.321-2.7,3.69-2.214,4.937c0,0,2.234-3.716,4.059-3.767S80.968,774.566,78.967,772.33Z" transform="translate(-70.834 -637.861)"/><path class="m" d="M79.23,772.33a1.668,1.668,0,0,1,.208.415c1.775,2.087,2.719,4.033,1.013,4.081-1.588.055-3.491,2.887-3.952,3.6a1.277,1.277,0,0,0,.055.162s2.234-3.716,4.059-3.767S81.232,774.566,79.23,772.33Z" transform="translate(-71.098 -637.861)"/><path class="u" d="M100.484,780.169c0,.467-.053.845-.118.845s-.116-.378-.116-.845.065-.247.129-.247S100.484,779.71,100.484,780.169Z" transform="translate(-90.466 -644.01)"/><path class="u" d="M101.468,783.092c-.41.223-.768.358-.8.3s.275-.284.684-.507.249-.061.28,0S101.882,782.869,101.468,783.092Z" transform="translate(-90.808 -646.375)"/><path class="f" d="M52.226,772.33s-1.015,1.326.467,3.321,2.7,3.69,2.214,4.937c0,0-2.236-3.716-4.059-3.767S50.224,774.566,52.226,772.33Z" transform="translate(-49.445 -637.861)"/><path class="m" d="M52.233,772.33a1.668,1.668,0,0,0-.208.415c-1.775,2.087-2.719,4.033-1.013,4.081,1.588.046,3.494,2.887,3.952,3.6a1.658,1.658,0,0,1-.054.162s-2.236-3.712-4.055-3.767S50.231,774.566,52.233,772.33Z" transform="translate(-49.452 -637.861)"/><path class="u" d="M52.07,780.169c0,.467.054.845.118.845s.116-.378.116-.845-.065-.247-.129-.247S52.07,779.71,52.07,780.169Z" transform="translate(-51.175 -644.01)"/><path class="u" d="M47.466,783.092c.41.223.767.358.8.3s-.275-.284-.684-.507-.249-.061-.28,0S47.057,782.869,47.466,783.092Z" transform="translate(-47.217 -646.375)"/><path class="v" d="M53.82,809.417s2.834-.087,3.69-.694,4.36-1.336,4.572-.36,4.258,4.85,1.059,4.876-7.442-.5-8.287-1.017S53.82,809.417,53.82,809.417Z" transform="translate(-52.602 -666.857)"/><path class="w" d="M63.2,819.647c-3.2.026-7.433-.5-8.286-1.017-.649-.4-.908-1.815-.994-2.47h-.1s.184,2.286,1.033,2.806,5.088,1.039,8.286,1.02c.922,0,1.242-.336,1.225-.823C64.235,819.451,63.882,819.636,63.2,819.647Z" transform="translate(-52.602 -673.604)"/><path class="b" d="M1047.208,676.889a2.164,2.164,0,0,0,.707-1.066.949.949,0,0,0-.494-1.089c-.454-.173-.939.142-1.306.459a1.744,1.744,0,0,1-1.271.613,1.928,1.928,0,0,0,.6-1.81.741.741,0,0,0-.166-.369c-.251-.269-.708-.153-1.009.059a3.762,3.762,0,0,0-1.233,3.149,5.93,5.93,0,0,1-.018-1.292,1.332,1.332,0,0,0-.487-1.147,1.474,1.474,0,0,0-.738-.175,1.537,1.537,0,0,0-1.207.343,1.186,1.186,0,0,0,.048,1.476,4.762,4.762,0,0,0,1.249,1,2.769,2.769,0,0,1,.891.85.921.921,0,0,1,.066.153h2.7A7.577,7.577,0,0,0,1047.208,676.889Z" transform="translate(-857.12 -557.239)"/><path class="e" d="M956.588,583.536s-2.592-8.806.485-15.282a13.9,13.9,0,0,0,1.125-8.721,23.461,23.461,0,0,0-1.234-4.094" transform="translate(-787.983 -460.985)"/><path class="f" d="M956.248,524.614c0,1.077-1.954,4.206-1.954,4.206s-1.954-3.136-1.954-4.206a1.954,1.954,0,1,1,3.908,0Z" transform="translate(-785.351 -434.253)"/><path class="f" d="M973.646,552.3c-.587.906-3.926,2.47-3.926,2.47s.061-3.69.646-4.592a1.954,1.954,0,1,1,3.281,2.122Z" transform="translate(-799.525 -455.969)"/><path class="f" d="M969.764,604.652c-.963.485-4.634.149-4.634.149s1.913-3.151,2.876-3.638a1.954,1.954,0,1,1,1.758,3.489Z" transform="translate(-795.781 -498.102)"/><path class="f" d="M960.164,647.316c-.869.642-4.544.922-4.544.922s1.352-3.43,2.214-4.072a1.954,1.954,0,0,1,2.324,3.136Z" transform="translate(-788.026 -533.069)"/><path class="f" d="M944.877,565.33c.773.753,4.378,1.531,4.378,1.531s-.882-3.581-1.66-4.332a1.953,1.953,0,0,0-2.721,2.8Z" transform="translate(-778.78 -466.316)"/><path class="f" d="M931.926,612.887c.963.487,4.636.151,4.636.151s-1.913-3.153-2.869-3.638a1.954,1.954,0,0,0-1.76,3.487Z" transform="translate(-767.874 -504.839)"/><path class="f" d="M928.369,662.314c.867.64,4.544.922,4.544.922s-1.354-3.432-2.214-4.074a1.954,1.954,0,1,0-2.323,3.136Z" transform="translate(-765.099 -545.211)"/><path class="b" d="M956.248,524.614c0,1.077-1.954,4.206-1.954,4.206s-1.954-3.136-1.954-4.206a1.954,1.954,0,1,1,3.908,0Z" transform="translate(-785.351 -434.253)"/><path class="b" d="M973.646,552.3c-.587.906-3.926,2.47-3.926,2.47s.061-3.69.646-4.592a1.954,1.954,0,1,1,3.281,2.122Z" transform="translate(-799.525 -455.969)"/><path class="b" d="M969.764,604.652c-.963.485-4.634.149-4.634.149s1.913-3.151,2.876-3.638a1.954,1.954,0,1,1,1.758,3.489Z" transform="translate(-795.781 -498.102)"/><path class="b" d="M960.164,647.316c-.869.642-4.544.922-4.544.922s1.352-3.43,2.214-4.072a1.954,1.954,0,0,1,2.324,3.136Z" transform="translate(-788.026 -533.069)"/><path class="b" d="M944.877,565.33c.773.753,4.378,1.531,4.378,1.531s-.882-3.581-1.66-4.332a1.953,1.953,0,0,0-2.721,2.8Z" transform="translate(-778.78 -466.316)"/><path class="b" d="M931.926,612.887c.963.487,4.636.151,4.636.151s-1.913-3.153-2.869-3.638a1.954,1.954,0,0,0-1.76,3.487Z" transform="translate(-767.874 -504.839)"/><path class="b" d="M928.369,662.314c.867.64,4.544.922,4.544.922s-1.354-3.432-2.214-4.074a1.954,1.954,0,1,0-2.323,3.136Z" transform="translate(-765.099 -545.211)"/><path class="v" d="M927.89,691.107s3.157-.627,4-1.463,4.631-2.3,5.051-1.255,5.682,4.6,2.1,5.225-8.418.836-9.472.417S927.89,691.107,927.89,691.107Z" transform="translate(-765.412 -569.111)"/><path class="w" d="M939.044,706.74c-3.577.627-8.418.836-9.472.419-.8-.319-1.358-1.845-1.577-2.559l-.105.022s.631,2.507,1.683,2.924,5.9.21,9.472-.417c1.033-.184,1.328-.607,1.216-1.144C940.174,706.334,939.814,706.605,939.044,706.74Z" transform="translate(-765.412 -582.626)"/><rect class="j" width="48.819" height="48.819" rx="18.95" transform="translate(72.761 23.624)"/><rect class="a" width="24.019" height="24.019" rx="12.01" transform="translate(79.925 32.074)"/><rect class="a" width="24.019" height="24.019" rx="12.01" transform="translate(90.393 39.97)"/></svg>