<svg xmlns="http://www.w3.org/2000/svg" xmlns:xlink="http://www.w3.org/1999/xlink" width="628.375" height="329.724" viewBox="0 0 628.375 329.724"><defs><style>.a,.d,.e,.k{opacity:0.1;}.b{fill:#174079;}.c,.e{fill:#fff;}.f,.k{fill:none;stroke-miterlimit:10;}.f{stroke:#174079;stroke-width:4px;}.g{fill:#01bfb0;}.h{fill:url(#a);}.i{fill:#be6f72;}.j{fill:#ff6f61;}.k{stroke:#000;}.l{fill:url(#b);}.m{fill:#2f2e41;}.n{fill:#fbbebe;}.o{fill:#e8e8f0;}.p{fill:#f86d70;}</style><linearGradient id="a" x1="0.5" y1="1" x2="0.5" gradientUnits="objectBoundingBox"><stop offset="0" stop-color="gray" stop-opacity="0.251"/><stop offset="0.54" stop-color="gray" stop-opacity="0.122"/><stop offset="1" stop-color="gray" stop-opacity="0.102"/></linearGradient><linearGradient id="b" x1="0.5" y1="1" x2="0.5" y2="-0.001" xlink:href="#a"/></defs><g transform="translate(0 0.359)"><g class="a" transform="translate(243.753 22.575)"><ellipse class="b" cx="6.525" cy="8.543" rx="6.525" ry="8.543" transform="translate(24.591 176.346)"/><path class="b" d="M531.713,450.756a10.32,10.32,0,0,0,1.365-5.223c0-4.719-2.924-8.543-6.53-8.543S520,440.826,520,445.544a10.319,10.319,0,0,0,1.365,5.223,10.67,10.67,0,0,0,0,10.44,10.67,10.67,0,0,0,0,10.44A10.285,10.285,0,0,0,520,476.871c0,4.713,2.924,8.543,6.525,8.543s6.53-3.83,6.53-8.543a10.286,10.286,0,0,0-1.365-5.223,10.67,10.67,0,0,0,0-10.44,10.67,10.67,0,0,0,0-10.44Z" transform="translate(-495.432 -302.418)"/><ellipse class="b" cx="6.525" cy="8.543" rx="6.525" ry="8.543" transform="translate(24.591 124.144)"/><ellipse class="b" cx="6.525" cy="8.543" rx="6.525" ry="8.543" transform="translate(24.591 113.703)"/><path class="c" d="M483.84,253.062a30.43,30.43,0,0,1-2.431-3.578l17.143-2.815-18.542.138a31.316,31.316,0,0,1-.573-24.768l24.877,12.906-22.933-16.867a31.264,31.264,0,1,1,51.6,34.973,31.266,31.266,0,0,1,3.566,5.7l-22.263,11.593,23.73-7.964a31.264,31.264,0,0,1-5.04,29.355,31.258,31.258,0,1,1-49.135,0,31.258,31.258,0,0,1,0-38.654Z" transform="translate(-477.149 -202.271)"/><path class="d" d="M539.666,324.227a31.115,31.115,0,0,1-6.691,19.327,31.258,31.258,0,1,1-49.135,0C479.649,338.234,539.666,320.718,539.666,324.227Z" transform="translate(-477.149 -254.109)"/></g><g class="a" transform="translate(327.787 51.145)"><ellipse class="b" cx="4.879" cy="6.381" rx="4.879" ry="6.381" transform="translate(18.375 131.67)"/><path class="b" d="M664.5,437.606a7.7,7.7,0,0,0,1.015-3.9c0-3.526-2.184-6.387-4.873-6.387s-4.879,2.867-4.879,6.387a7.643,7.643,0,0,0,1.021,3.9,7.97,7.97,0,0,0,0,7.8,7.969,7.969,0,0,0,0,7.8,7.643,7.643,0,0,0-1.021,3.9c0,3.526,2.184,6.387,4.879,6.387s4.873-2.867,4.873-6.387a7.7,7.7,0,0,0-1.015-3.9,8.026,8.026,0,0,0,0-7.8A8.026,8.026,0,0,0,664.5,437.606Z" transform="translate(-637.39 -326.862)"/><ellipse class="b" cx="4.879" cy="6.381" rx="4.879" ry="6.381" transform="translate(18.375 92.661)"/><ellipse class="b" cx="4.879" cy="6.381" rx="4.879" ry="6.381" transform="translate(18.375 84.857)"/><path class="c" d="M628.72,289.947a22.367,22.367,0,0,1-1.817-2.672l12.814-2.1-13.857.1a23.415,23.415,0,0,1-.447-18.513L644,276.411,626.856,263.8a23.363,23.363,0,1,1,38.58,26.144,23.624,23.624,0,0,1,2.666,4.26l-16.627,8.64,17.733-5.951a23.369,23.369,0,0,1-3.767,21.936,23.358,23.358,0,1,1-36.693,0,23.358,23.358,0,0,1,0-28.885Z" transform="translate(-623.72 -252.103)"/><path class="d" d="M670.444,343.044a23.26,23.26,0,0,1-5,14.442,23.358,23.358,0,1,1-36.693,0C625.609,353.513,670.444,340.424,670.444,343.044Z" transform="translate(-623.728 -290.758)"/></g><g class="a" transform="translate(563.898 -0.359)"><ellipse class="b" cx="6.525" cy="8.543" rx="6.525" ry="8.543" transform="translate(25.031 176.346)"/><path class="b" d="M1080.554,410.756a10.321,10.321,0,0,1-1.365-5.223c0-4.719,2.924-8.543,6.53-8.543s6.525,3.824,6.525,8.543a10.318,10.318,0,0,1-1.365,5.223,10.67,10.67,0,0,1,0,10.44,10.67,10.67,0,0,1,0,10.44,10.286,10.286,0,0,1,1.365,5.223c0,4.713-2.924,8.543-6.525,8.543s-6.53-3.83-6.53-8.543a10.284,10.284,0,0,1,1.365-5.223,10.67,10.67,0,0,1,0-10.44A10.67,10.67,0,0,1,1080.554,410.756Z" transform="translate(-1054.164 -262.418)"/><ellipse class="b" cx="6.525" cy="8.543" rx="6.525" ry="8.543" transform="translate(25.031 124.143)"/><ellipse class="b" cx="6.525" cy="8.543" rx="6.525" ry="8.543" transform="translate(25.031 113.703)"/><path class="c" d="M1091.521,213.062a30.436,30.436,0,0,0,2.431-3.578l-17.143-2.815,18.542.138a31.316,31.316,0,0,0,.573-24.768l-24.877,12.906,22.933-16.868a31.264,31.264,0,1,0-51.6,34.973,31.272,31.272,0,0,0-3.566,5.7l22.262,11.593-23.73-7.964a31.263,31.263,0,0,0,5.04,29.355,31.258,31.258,0,1,0,49.135,0,31.258,31.258,0,0,0,0-38.654Z" transform="translate(-1035.541 -162.271)"/><path class="d" d="M1035.81,284.227a31.115,31.115,0,0,0,6.691,19.327,31.258,31.258,0,1,0,49.135,0C1095.826,298.234,1035.81,280.718,1035.81,284.227Z" transform="translate(-1035.656 -214.109)"/></g><g class="a" transform="translate(508.982 47.705)"><ellipse class="b" cx="4.879" cy="6.381" rx="4.879" ry="6.381" transform="translate(18.607 131.67)"/><path class="b" d="M973.245,431.606a7.7,7.7,0,0,1-1.015-3.9c0-3.526,2.184-6.387,4.873-6.387s4.879,2.867,4.879,6.387a7.642,7.642,0,0,1-1.021,3.9,7.969,7.969,0,0,1,0,7.8,7.969,7.969,0,0,1,0,7.8,7.642,7.642,0,0,1,1.021,3.9c0,3.526-2.184,6.387-4.879,6.387s-4.873-2.867-4.873-6.387a7.7,7.7,0,0,1,1.015-3.9,8.027,8.027,0,0,1,0-7.8,8.027,8.027,0,0,1,0-7.8Z" transform="translate(-953.612 -320.862)"/><ellipse class="b" cx="4.879" cy="6.381" rx="4.879" ry="6.381" transform="translate(18.607 92.661)"/><ellipse class="b" cx="4.879" cy="6.381" rx="4.879" ry="6.381" transform="translate(18.607 84.858)"/><path class="c" d="M981.5,283.947a22.354,22.354,0,0,0,1.817-2.672l-12.814-2.1,13.857.1a23.414,23.414,0,0,0,.447-18.513l-18.593,9.649L983.361,257.8a23.363,23.363,0,1,0-38.58,26.144,23.626,23.626,0,0,0-2.666,4.26l16.627,8.64-17.7-5.945a23.369,23.369,0,0,0,3.767,21.936,23.358,23.358,0,1,0,36.693,0,23.358,23.358,0,0,0,0-28.885Z" transform="translate(-939.756 -246.103)"/><path class="d" d="M939.791,337.044a23.26,23.26,0,0,0,5,14.442,23.358,23.358,0,1,0,36.693,0C984.626,347.513,939.791,334.424,939.791,337.044Z" transform="translate(-939.766 -284.758)"/></g><g class="a" transform="translate(4.191 -0.263)"><ellipse class="b" cx="6.525" cy="8.543" rx="6.525" ry="8.543" transform="translate(24.597 176.25)"/><path class="b" d="M113.894,410.756a10.32,10.32,0,0,0,1.365-5.223c0-4.719-2.924-8.543-6.525-8.543s-6.525,3.824-6.525,8.543a10.32,10.32,0,0,0,1.359,5.223,10.7,10.7,0,0,0,0,10.44,10.7,10.7,0,0,0,0,10.44,10.28,10.28,0,0,0-1.359,5.223c0,4.713,2.918,8.543,6.525,8.543s6.542-3.818,6.542-8.531a10.286,10.286,0,0,0-1.365-5.223,10.67,10.67,0,0,0,0-10.44,10.67,10.67,0,0,0,0-10.44Z" transform="translate(-77.613 -262.514)"/><ellipse class="b" cx="6.525" cy="8.543" rx="6.525" ry="8.543" transform="translate(24.597 124.047)"/><ellipse class="b" cx="6.525" cy="8.543" rx="6.525" ry="8.543" transform="translate(24.597 113.607)"/><path class="c" d="M66.012,213.134a31.147,31.147,0,0,1-2.431-3.578l17.148-2.815-18.559.166a31.316,31.316,0,0,1-.573-24.768L86.48,195.045,63.547,178.177a31.258,31.258,0,1,1,51.6,34.973,31.269,31.269,0,0,1,3.566,5.7L96.445,230.414l23.736-7.964a31.3,31.3,0,0,1-5.045,29.355,31.258,31.258,0,1,1-49.135,0,31.258,31.258,0,0,1,0-38.654Z" transform="translate(-59.309 -162.439)"/><path class="d" d="M121.826,284.227a31.115,31.115,0,0,1-6.691,19.327,31.258,31.258,0,1,1-49.135,0C61.809,298.234,121.826,280.718,121.826,284.227Z" transform="translate(-59.309 -214.205)"/></g><g class="a" transform="translate(75.038 47.705)"><ellipse class="b" cx="4.879" cy="6.381" rx="4.879" ry="6.381" transform="translate(18.375 131.67)"/><path class="b" d="M223.667,431.606a7.7,7.7,0,0,0,1.015-3.9c0-3.526-2.179-6.387-4.873-6.387s-4.879,2.867-4.879,6.387a7.7,7.7,0,0,0,1.021,3.9,7.969,7.969,0,0,0,0,7.8,7.969,7.969,0,0,0,0,7.8,7.7,7.7,0,0,0-1.021,3.9c0,3.526,2.184,6.387,4.879,6.387s4.873-2.867,4.873-6.387a7.7,7.7,0,0,0-1.015-3.9,8.027,8.027,0,0,0,0-7.8A8.027,8.027,0,0,0,223.667,431.606Z" transform="translate(-196.555 -320.862)"/><ellipse class="b" cx="4.879" cy="6.381" rx="4.879" ry="6.381" transform="translate(18.375 92.661)"/><ellipse class="b" cx="4.879" cy="6.381" rx="4.879" ry="6.381" transform="translate(18.375 84.858)"/><path class="c" d="M187.88,283.947a23.052,23.052,0,0,1-1.817-2.672l12.814-2.1-13.857.1a23.415,23.415,0,0,1-.447-18.513l18.593,9.649L186.016,257.8a23.363,23.363,0,1,1,38.58,26.144,23,23,0,0,1,2.666,4.26l-16.627,8.64,17.733-5.951a23.369,23.369,0,0,1-3.767,21.936,23.358,23.358,0,1,1-36.693,0,23.358,23.358,0,0,1,0-28.885Z" transform="translate(-182.88 -246.103)"/><path class="d" d="M229.6,337.044a23.26,23.26,0,0,1-5,14.442,23.358,23.358,0,1,1-36.693,0C184.757,347.513,229.6,334.424,229.6,337.044Z" transform="translate(-182.888 -284.758)"/></g><ellipse class="e" cx="314.187" cy="5.08" rx="314.187" ry="5.08" transform="translate(0 277.496)"/><ellipse class="e" cx="314.187" cy="5.08" rx="314.187" ry="5.08" transform="translate(0 319.206)"/><ellipse class="e" cx="314.187" cy="5.08" rx="314.187" ry="5.08" transform="translate(0 190.446)"/><ellipse class="e" cx="314.187" cy="5.08" rx="314.187" ry="5.08" transform="translate(0 233.968)"/><path class="e" d="M837.4,262.606a10.492,10.492,0,0,0-6.077.665,8.972,8.972,0,0,1-7.3,0,10.252,10.252,0,0,0-8.6.166,5.3,5.3,0,0,1-2.471.619c-3.486,0-6.381-3.509-6.983-8.136a6.81,6.81,0,0,0,1.72-1.875c2.041-3.291,5.2-5.407,8.755-5.407s6.674,2.087,8.715,5.343a6.7,6.7,0,0,0,5.785,3.176h.092C833.83,257.131,836.232,259.356,837.4,262.606Z" transform="translate(-373.689 -199.481)"/><path class="e" d="M848,238.438,842.37,242l3.44-6.215a5.562,5.562,0,0,0-3.406-1.21h-.092a6.509,6.509,0,0,1-1.147-.086l-1.938,1.21.82-1.491a6.759,6.759,0,0,1-3.343-2.534l-3.44,2.167,2.156-3.922a9.991,9.991,0,0,0-7.648-3.864c-3.555,0-6.714,2.11-8.761,5.4a6.542,6.542,0,0,1-5.785,3.119h-.189c-3.922,0-7.1,4.443-7.1,9.924s3.176,9.93,7.1,9.93a5.384,5.384,0,0,0,2.471-.619,10.24,10.24,0,0,1,8.6-.172,8.915,8.915,0,0,0,7.3,0,10.274,10.274,0,0,1,8.52.166,5.332,5.332,0,0,0,2.442.608c3.922,0,7.1-4.449,7.1-9.93A12.573,12.573,0,0,0,848,238.438Z" transform="translate(-373.68 -189.846)"/><path class="e" d="M426.893,260.315a7.361,7.361,0,0,0-4.26.464,6.261,6.261,0,0,1-5.108,0,7.155,7.155,0,0,0-6.014.12,3.8,3.8,0,0,1-1.72.43c-2.437,0-4.466-2.454-4.891-5.693a4.77,4.77,0,0,0,1.221-1.313,6.851,6.851,0,0,1,12.229-.046A4.7,4.7,0,0,0,422.4,256.5h.063C424.393,256.491,426.073,258.051,426.893,260.315Z" transform="translate(-202.57 -200.291)"/><path class="e" d="M434.309,243.409l-3.939,2.5,2.391-4.352a3.87,3.87,0,0,0-2.379-.849h-.069a4.3,4.3,0,0,1-.814-.063l-1.336.849.573-1.043a4.759,4.759,0,0,1-2.339-1.772l-2.391,1.514,1.514-2.741a7,7,0,0,0-5.355-2.712,7.333,7.333,0,0,0-6.129,3.784,4.587,4.587,0,0,1-4.054,2.184h-.132c-2.746,0-4.971,3.107-4.971,6.949s2.225,6.949,4.971,6.949a3.727,3.727,0,0,0,1.72-.436,7.167,7.167,0,0,1,6.008-.115,6.158,6.158,0,0,0,5.114.034,7.189,7.189,0,0,1,5.963.115,3.716,3.716,0,0,0,1.72.424c2.74,0,4.965-3.113,4.965-6.949a8.789,8.789,0,0,0-1.032-4.271Z" transform="translate(-202.562 -193.55)"/><path class="e" d="M321.59,338.725a7.35,7.35,0,0,1,4.254.464,6.272,6.272,0,0,0,5.114,0,7.178,7.178,0,0,1,6.014.115,3.71,3.71,0,0,0,1.72.436c2.437,0,4.466-2.46,4.885-5.7a4.673,4.673,0,0,1-1.215-1.313,6.858,6.858,0,0,0-12.235-.04,4.7,4.7,0,0,1-4.048,2.225h-.063C324.084,334.924,322.4,336.478,321.59,338.725Z" transform="translate(-167.025 -233.746)"/><path class="e" d="M307.874,321.853l3.945,2.5-2.4-4.346a3.892,3.892,0,0,1,2.385-.854h.063a4.889,4.889,0,0,0,.82-.057l1.336.843-.573-1.038a4.753,4.753,0,0,0,2.333-1.772l2.391,1.514-1.491-2.746a7,7,0,0,1,5.355-2.706,7.341,7.341,0,0,1,6.129,3.784,4.586,4.586,0,0,0,4.048,2.184h.138c2.741,0,4.965,3.113,4.965,6.949s-2.225,6.949-4.965,6.949a3.721,3.721,0,0,1-1.72-.43,7.155,7.155,0,0,0-6.014-.12,6.227,6.227,0,0,1-2.569.573,6.307,6.307,0,0,1-2.546-.539,7.178,7.178,0,0,0-5.957.115,3.715,3.715,0,0,1-1.72.424c-2.746,0-4.971-3.108-4.971-6.949a8.852,8.852,0,0,1,1.015-4.277Z" transform="translate(-160.739 -227.022)"/><path class="f" d="M711.522,607.459c1.5-2.775-.2-6.169-2.15-8.64s-4.334-5.045-4.283-8.193c.075-4.524,4.879-7.2,8.715-9.6a42.6,42.6,0,0,0,7.826-6.307,11.54,11.54,0,0,0,2.4-3.222,13.031,13.031,0,0,0,.722-5.733q-.247-9.684-.957-19.356" transform="translate(-330.65 -326.529)"/><path class="c" d="M739.951,540.84a7.058,7.058,0,0,0-3.526-5.785l-1.582,3.125.052-3.784a7.058,7.058,0,1,0,5.057,6.444Z" transform="translate(-339.506 -321.28)"/><path class="c" d="M718.567,621.56a7.058,7.058,0,0,1-13.324-2.867,6.88,6.88,0,0,1,.459-2.867,7.063,7.063,0,0,1,13.187.075l-4.409,3.589,4.85-1.147A7.018,7.018,0,0,1,718.567,621.56Z" transform="translate(-330.712 -354.229)"/><path class="c" d="M716.91,594.768a7.058,7.058,0,0,1-2.236-13.846l-.04,2.907,1.6-3.165h0a7.06,7.06,0,1,1,.659,14.1Z" transform="translate(-332.541 -341.14)"/><path class="c" d="M746.776,574.882A7.058,7.058,0,1,1,749.9,561.7l-1.244,3.44,2.54-2.511a7.058,7.058,0,0,1-4.438,12.252Z" transform="translate(-345.27 -332.658)"/><path class="d" d="M738.991,545.6c-1.628.178-3.211.682-4.85.786a5.248,5.248,0,0,1-4.461-1.559,22.63,22.63,0,0,1-1.307-2.293,5.023,5.023,0,0,0-1.777-1.674,7.058,7.058,0,1,0,13.187,4.69C739.524,545.556,739.255,545.573,738.991,545.6Z" transform="translate(-339.497 -324.161)"/><path class="d" d="M746.8,577.888a7.058,7.058,0,0,1-6.714-10.068,5.223,5.223,0,0,1,1.416,1.422,23.941,23.941,0,0,0,1.4,2.334,5.758,5.758,0,0,0,4.684,1.634c1.7-.086,3.348-.573,5.045-.717.235,0,.47-.034.711-.04A7.058,7.058,0,0,1,746.8,577.888Z" transform="translate(-345.293 -335.664)"/><path class="d" d="M716.912,597.876a7.058,7.058,0,0,1-6.771-9.936,5.732,5.732,0,0,1,1.5,1.433,23.66,23.66,0,0,0,1.531,2.379,6.391,6.391,0,0,0,4.994,1.72c1.8-.075,3.44-.464,5.16-.573a7.069,7.069,0,0,1-6.41,4.977Z" transform="translate(-332.543 -344.248)"/><path class="d" d="M718.567,624.9a7.058,7.058,0,0,1-13.324-2.867,6.879,6.879,0,0,1,.459-2.867,7.044,7.044,0,0,1,1.548,1.382c.671.814,1.112,1.72,1.892,2.505a8.819,8.819,0,0,0,5.842,2.053,29.638,29.638,0,0,0,3.583-.206Z" transform="translate(-330.712 -357.573)"/><path class="f" d="M101.522,535.459c1.5-2.775-.2-6.169-2.15-8.64s-4.334-5.057-4.283-8.193c.075-4.524,4.879-7.2,8.715-9.6a42.6,42.6,0,0,0,7.826-6.307,11.542,11.542,0,0,0,2.4-3.222,13.032,13.032,0,0,0,.722-5.733q-.252-9.684-.957-19.356" transform="translate(-70.384 -295.809)"/><path class="c" d="M129.951,468.84a7.058,7.058,0,0,0-3.526-5.785l-1.582,3.125.052-3.784a7.058,7.058,0,1,0,5.057,6.444Z" transform="translate(-79.24 -290.56)"/><path class="c" d="M108.567,549.56a7.058,7.058,0,0,1-13.324-2.867,6.88,6.88,0,0,1,.459-2.867,7.063,7.063,0,0,1,13.187.074l-4.409,3.589,4.85-1.147a7.017,7.017,0,0,1-.763,3.216Z" transform="translate(-70.446 -323.51)"/><path class="c" d="M106.91,522.768a7.058,7.058,0,0,1-2.236-13.846l-.04,2.907,1.6-3.165h0a7.06,7.06,0,0,1,.659,14.1Z" transform="translate(-72.275 -310.421)"/><path class="c" d="M136.776,502.882A7.058,7.058,0,1,1,139.9,489.7l-1.244,3.44,2.54-2.511a7.058,7.058,0,0,1-4.438,12.252Z" transform="translate(-85.004 -301.938)"/><path class="d" d="M128.991,473.6c-1.628.178-3.211.682-4.85.785a5.248,5.248,0,0,1-4.461-1.559,22.631,22.631,0,0,1-1.307-2.293,5.023,5.023,0,0,0-1.777-1.674,7.058,7.058,0,1,0,13.187,4.69C129.524,473.556,129.255,473.573,128.991,473.6Z" transform="translate(-79.231 -293.441)"/><path class="d" d="M136.8,505.888a7.058,7.058,0,0,1-6.714-10.068,5.222,5.222,0,0,1,1.416,1.422,23.92,23.92,0,0,0,1.4,2.333,5.757,5.757,0,0,0,4.684,1.634c1.7-.086,3.348-.573,5.045-.717.235,0,.47-.034.711-.04A7.058,7.058,0,0,1,136.8,505.888Z" transform="translate(-85.027 -304.944)"/><path class="d" d="M106.912,525.876a7.058,7.058,0,0,1-6.771-9.936,5.734,5.734,0,0,1,1.5,1.433,23.641,23.641,0,0,0,1.531,2.379,6.391,6.391,0,0,0,4.994,1.72c1.8-.075,3.44-.464,5.16-.573A7.069,7.069,0,0,1,106.912,525.876Z" transform="translate(-72.277 -313.528)"/><path class="d" d="M108.567,552.9a7.058,7.058,0,0,1-13.324-2.867,6.88,6.88,0,0,1,.459-2.867,7.048,7.048,0,0,1,1.548,1.382c.671.814,1.112,1.72,1.892,2.505a8.819,8.819,0,0,0,5.842,2.052,29.64,29.64,0,0,0,3.583-.206Z" transform="translate(-70.446 -326.853)"/><path class="f" d="M502.659,453.1c-1.5-2.769.2-6.163,2.156-8.634s4.329-5.045,4.277-8.193c-.069-4.529-4.873-7.2-8.715-9.6a42.425,42.425,0,0,1-7.82-6.307,11.339,11.339,0,0,1-2.408-3.216,13.212,13.212,0,0,1-.722-5.733q.258-9.684.957-19.356" transform="translate(-238.627 -260.673)"/><path class="c" d="M478.384,386.48a7.052,7.052,0,0,1,3.52-5.785l1.582,3.125-.046-3.784a7.237,7.237,0,0,1,2.322-.281,7.058,7.058,0,1,1-7.379,6.725Z" transform="translate(-233.92 -255.42)"/><path class="c" d="M499.76,467.158a7.058,7.058,0,1,0-.338-5.682l4.409,3.589-4.85-1.147A7.018,7.018,0,0,0,499.76,467.158Z" transform="translate(-242.711 -288.327)"/><path class="c" d="M501.413,440.408a7.058,7.058,0,0,0,2.242-13.846l.034,2.907-1.6-3.165h0a7.058,7.058,0,0,0-7.4,6.7,6.972,6.972,0,0,0,.3,2.408,7.052,7.052,0,0,0,6.416,4.994Z" transform="translate(-240.878 -275.28)"/><path class="c" d="M471.52,420.5a7.058,7.058,0,1,0-3.125-13.187l1.25,3.44-2.569-2.46a7,7,0,0,0-2.293,4.873,6.829,6.829,0,0,0,.178,1.944,7.052,7.052,0,0,0,6.559,5.389Z" transform="translate(-228.116 -266.79)"/><path class="d" d="M479.461,391.241c1.628.178,3.211.682,4.845.785a5.271,5.271,0,0,0,4.466-1.559,22.584,22.584,0,0,0,1.3-2.293,5.039,5.039,0,0,1,1.783-1.674,7.058,7.058,0,1,1-13.187,4.684C478.928,391.19,479.192,391.213,479.461,391.241Z" transform="translate(-234.045 -258.301)"/><path class="d" d="M471.672,423.508a7.064,7.064,0,0,0,6.714-10.068,5.247,5.247,0,0,0-1.422,1.422,23.919,23.919,0,0,1-1.4,2.333,5.739,5.739,0,0,1-4.678,1.634c-1.7-.086-3.348-.573-5.045-.717-.235,0-.476-.034-.711-.04A7.052,7.052,0,0,0,471.672,423.508Z" transform="translate(-228.268 -269.795)"/><path class="d" d="M501.65,443.516a7.052,7.052,0,0,0,6.771-9.936,5.636,5.636,0,0,0-1.491,1.433,23.641,23.641,0,0,1-1.531,2.379,6.4,6.4,0,0,1-5,1.72c-1.806-.075-3.44-.464-5.16-.573a7.052,7.052,0,0,0,6.41,4.977Z" transform="translate(-241.115 -278.388)"/><path class="d" d="M500.34,470.543a7.058,7.058,0,0,0,12.871-5.733,6.778,6.778,0,0,0-1.548,1.382c-.671.814-1.147,1.72-1.892,2.505a8.835,8.835,0,0,1-5.848,2.053A30.948,30.948,0,0,1,500.34,470.543Z" transform="translate(-243.291 -291.713)"/><circle class="g" cx="57.311" cy="57.311" r="57.311" transform="translate(389.736 79.093)"/><path class="c" d="M836.893,396.151a43.422,43.422,0,0,0-9.173-6.129c-2.746-1.319-3.755-1.3-5.7.109-1.617,1.147-2.666,2.253-4.524,1.846s-5.538-3.182-9.1-6.731-6.324-7.207-6.719-9.093.694-2.913,1.852-4.529c1.4-1.944,1.439-2.953.109-5.7a43.97,43.97,0,0,0-6.135-9.173c-2.012-2.007-2.448-1.565-3.549-1.147a20.526,20.526,0,0,0-3.251,1.72,9.809,9.809,0,0,0-3.9,4.122c-.785,1.674-1.674,4.782,2.9,12.917a72.064,72.064,0,0,0,12.671,16.9h0a72.17,72.17,0,0,0,16.954,12.694c8.13,4.587,11.243,3.675,12.917,2.9a9.625,9.625,0,0,0,4.117-3.9,20.257,20.257,0,0,0,1.72-3.251C838.458,398.6,838.905,398.152,836.893,396.151Z" transform="translate(-365.245 -244.967)"/><path class="d" d="M789.042,300.86a57.333,57.333,0,1,0,57.3,57.314A57.333,57.333,0,0,0,789.042,300.86Zm0,107a49.691,49.691,0,1,1,49.691-49.691A49.691,49.691,0,0,1,789.042,407.856Z" transform="translate(-341.996 -221.761)"/><circle class="g" cx="57.311" cy="57.311" r="57.311" transform="translate(258.069 166.143)"/><path class="c" d="M610,522.349l-17.16,17.458a.31.31,0,0,0,0,.447l12.04,12.8a2.072,2.072,0,1,1-2.93,2.93L589.969,543.23a.327.327,0,0,0-.459,0l-2.918,2.947a12.826,12.826,0,0,1-9.173,3.859,13.106,13.106,0,0,1-9.334-3.968l-2.8-2.867a.327.327,0,0,0-.459,0L552.874,555.93a2.072,2.072,0,1,1-2.93-2.93l11.994-12.774a.344.344,0,0,0,0-.447l-17.16-17.458a.315.315,0,0,0-.539.224v34.933a5.114,5.114,0,0,0,5.1,5.1h56.112a5.114,5.114,0,0,0,5.1-5.1v-34.9a.315.315,0,0,0-.55-.224Z" transform="translate(-262.022 -316.211)"/><path class="c" d="M578.857,541.8a8.68,8.68,0,0,0,6.261-2.58l24.992-25.439a4.988,4.988,0,0,0-3.153-1.147H550.8a4.953,4.953,0,0,0-3.153,1.147l25,25.439A8.646,8.646,0,0,0,578.857,541.8Z" transform="translate(-263.477 -312.116)"/><path class="d" d="M558.132,452.69A57.333,57.333,0,1,0,615.437,510,57.333,57.333,0,0,0,558.132,452.69Zm0,107a49.691,49.691,0,1,1,49.691-49.691A49.691,49.691,0,0,1,558.132,559.686Z" transform="translate(-243.475 -286.542)"/><circle class="g" cx="57.311" cy="57.311" r="57.311" transform="translate(122.057 123.343)"/><path class="c" d="M347.847,430.16,325,482.872l2.133,2.133,20.72-9.139,20.72,9.139,2.133-2.133Z" transform="translate(-168.48 -276.929)"/><path class="d" d="M322.162,378a57.3,57.3,0,1,0,.01,0Zm0,107a40.888,40.888,0,1,1,.006.023Z" transform="translate(-142.794 -254.674)"/><path class="h" d="M820.564,585.354q-.78-1.9-1.6-3.8a11.265,11.265,0,0,0-1.955-3.377,3.577,3.577,0,0,0-1.147-.86,4.89,4.89,0,0,0-1.5-.3,11.943,11.943,0,0,0-2.351-.063c-.3-.092-.648-.212-.986-.35a8.187,8.187,0,0,0,6.1-7.6v-.35a8.17,8.17,0,0,0-8.136-8.2,8.026,8.026,0,0,0-4.271,1.221,7.666,7.666,0,0,0-8.6,4.145,9.477,9.477,0,0,0-2.924,7.052c0,.12,0,.247,0,.361.149,4.455,3.027,8.027,6.662,8.388a3.82,3.82,0,0,0-1.055.705c-1.112,1.072-1.3,2.775-1.416,4.323L797.3,587.8l-1.926.688a.355.355,0,0,0-.086.625l1.84,1.313v.327a1.434,1.434,0,0,0,.034.373,2.632,2.632,0,0,0-.711,1.015,4.69,4.69,0,0,0-.166,1.858l.069,1.6a12.563,12.563,0,0,0,.487,3.56c.241.711,1.284,2.425,2.035,2.437a74.168,74.168,0,0,0-.877,9.8c-.086.086.155.166.573.235.413,3.165,1.76,12.04,4.151,15.944a33.624,33.624,0,0,1,.9,3.876s.682,8.434,1.582,10.939c.768,2.133,1.376,7.4,1.542,8.921a.877.877,0,0,0-.636.654c-.453,1.365-3.388,3.44-3.388,3.44a14.189,14.189,0,0,0-2.534,1.623c-.923.831-.889,1.582,3.211,1.112,7.912-.912,9.265-3.44,9.265-3.44s-.126-.424-.315-.975a10.582,10.582,0,0,0-1.038-2.448c-.115-.109-.229.075-.367.361a49.089,49.089,0,0,1-.539-11.071,17.965,17.965,0,0,0-.906-6.611,12.516,12.516,0,0,1,0-4.329c.453-1.823-1.806-10.716-1.806-10.716l-1.3-6.547a1.881,1.881,0,0,1,.361.763l.034.132.034.189a.355.355,0,0,0,.092.178c.883,3.669,3.3,13.835,3.3,15.325,0,1.823,2.259,6.381,2.259,6.381s.9,7.522,2.483,10.481c1.2,2.253,1.233,5.556,1.175,7.012h0a6.493,6.493,0,0,1-.722,2.328,5.539,5.539,0,0,0-.854,1.485l-.052.109s-.677,1.37-.224,1.6a11.107,11.107,0,0,0,5.424.682s.906-1.147.906-1.594a7.175,7.175,0,0,0-.1-.814c-.166-1.078-.476-2.775-.482-2.792a7.825,7.825,0,0,0-.573-2.775l-.229-6.381a29.458,29.458,0,0,0-1.582-12.768s-1.147-4.1-.9-5.24-.453-13.221-.453-13.221l-.069-.172a13.061,13.061,0,0,1,.069-2.563,34.04,34.04,0,0,0-.906-8.657,7.511,7.511,0,0,1-.321-1.886c.052-.476.206-1.869.418-3.6a64.73,64.73,0,0,0,6.662-.573.831.831,0,0,0,.573-.229.8.8,0,0,0,.132-.464C823.121,591.867,821.865,588.53,820.564,585.354Zm-4.547,7.23c.235-1.634.487-3.216.74-4.392l.034.1a31.9,31.9,0,0,1,1.089,3.612A12.291,12.291,0,0,1,816.017,592.584Z" transform="translate(-368.243 -332.523)"/><path class="i" d="M802.37,648.347s1.353,12.172,4.283,16.9a32.817,32.817,0,0,1,.9,3.83s.677,8.336,1.577,10.813,1.577,9.242,1.577,9.242,3.153,3.6,4.283.677a47.48,47.48,0,0,1-.677-11.719,17.648,17.648,0,0,0-.9-6.536,12.225,12.225,0,0,1,0-4.277c.447-1.806-1.806-10.589-1.806-10.589l-1.8-8.789Z" transform="translate(-372.157 -369.831)"/><path class="j" d="M817.51,722.387s-1.353,2.477-9.236,3.377c-4.094.464-4.122-.275-3.2-1.1a14.277,14.277,0,0,1,2.523-1.605s2.93-2.024,3.377-3.377,2.03-.224,2.03-.224c2.253,3.377,2.706-.906,3.153-.453a10.17,10.17,0,0,1,1.038,2.414C817.384,721.963,817.51,722.387,817.51,722.387Z" transform="translate(-373.101 -400.154)"/><path class="d" d="M817.51,724.209s-1.353,2.477-9.236,3.377c-4.094.464-4.122-.275-3.2-1.1.642.407,1.938.573,4.547-.476,3.755-1.536,6.479-2.425,7.574-2.769C817.384,723.785,817.51,724.209,817.51,724.209Z" transform="translate(-373.101 -401.976)"/><path class="d" d="M818.686,678.092a17.649,17.649,0,0,0-.9-6.536,12.222,12.222,0,0,1,0-4.277c.447-1.806-1.806-10.589-1.806-10.589l-1.8-8.789-1.559.092,1.783,8.7s2.253,8.783,1.806,10.589a12.218,12.218,0,0,0,0,4.277,17.132,17.132,0,0,1,.9,6.536,47.485,47.485,0,0,0,.677,11.719,1.973,1.973,0,0,1-.654.929,1.473,1.473,0,0,0,2.23-.929A47.489,47.489,0,0,1,818.686,678.092Z" transform="translate(-376.53 -369.831)"/><path class="b" d="M808.9,562.42a8.027,8.027,0,0,0-4.254,1.21,7.654,7.654,0,0,0-8.6,4.1,9.334,9.334,0,0,0-2.918,6.972c0,4.793,3.228,8.675,7.207,8.675,2.867,0,5.378-2.041,6.53-4.994a7.911,7.911,0,0,0,2.029.264,8.113,8.113,0,1,0,0-16.225Z" transform="translate(-368.213 -333.36)"/><path class="i" d="M825.507,650.65l.677,1.8s.677,11.943.447,13.072.906,5.16.906,5.16a28.845,28.845,0,0,1,1.577,12.613l.224,6.307s.9,2.477.453,2.93-3.847-.4-3.847-.4.453-4.73-1.147-7.66-2.477-10.366-2.477-10.366-2.253-4.506-2.253-6.307-3.606-16.449-3.606-16.449Z" transform="translate(-378.169 -371.004)"/><path class="b" d="M801.567,639.7s.229-8.113,1.147-10.589a16.82,16.82,0,0,0,1-3.595s13.64,2.465,14.769,1.565a19.559,19.559,0,0,0,.453,3.377,32.4,32.4,0,0,1,.9,8.566c-.246,2.706,0,2.7,0,2.7s-9.242,1.353-9.466,0-.9-1.347-.9-1.347S801.12,640.129,801.567,639.7Z" transform="translate(-371.807 -360.282)"/><g class="a" transform="translate(429.76 266.803)"><path d="M809.016,649.914s-5.7-.155-7.419-.464v.464c-.447.447,7.889.677,7.889.677a.573.573,0,0,1,.31.126C809.492,649.914,809.016,649.914,809.016,649.914Z" transform="translate(-801.58 -637.295)"/><path d="M825.424,631.627a19.56,19.56,0,0,1-.453-3.377.97.97,0,0,1-.384.138,11.393,11.393,0,0,0,.384,2.563,35.788,35.788,0,0,1,.9,8.566c-.247,2.706,0,2.7,0,2.7s-7.31,1.072-9.082.355a2.725,2.725,0,0,0,.069.321c.224,1.353,9.466,0,9.466,0s-.229,0,0-2.7A33.5,33.5,0,0,0,825.424,631.627Z" transform="translate(-808.069 -628.25)"/><path d="M809.016,649.914s-5.7-.155-7.419-.464v.464c-.447.447,7.889.677,7.889.677a.573.573,0,0,1,.31.126C809.492,649.914,809.016,649.914,809.016,649.914Z" transform="translate(-801.58 -637.295)"/><path d="M825.424,631.627a19.56,19.56,0,0,1-.453-3.377.97.97,0,0,1-.384.138,11.393,11.393,0,0,0,.384,2.563,35.788,35.788,0,0,1,.9,8.566c-.247,2.706,0,2.7,0,2.7s-7.31,1.072-9.082.355a2.725,2.725,0,0,0,.069.321c.224,1.353,9.466,0,9.466,0s-.229,0,0-2.7A33.5,33.5,0,0,0,825.424,631.627Z" transform="translate(-808.069 -628.25)"/></g><path class="i" d="M815.29,585.456a2.989,2.989,0,0,0,.86,1.112,1.927,1.927,0,0,0,.808.35c-.5.292-1.055.51-1.559.8a27.719,27.719,0,0,0-2.293,1.72,4.666,4.666,0,0,1-2.632,1.021,3.222,3.222,0,0,0,.367-3.2,2.994,2.994,0,0,1-.4-1.112,2,2,0,0,1,1.107-1.491c.43-.292.872-.573,1.319-.854.35-.218.877-.677,1.319-.659s.493.407.573.808A6.354,6.354,0,0,0,815.29,585.456Z" transform="translate(-375.6 -342.2)"/><path class="d" d="M815.29,585.456a2.989,2.989,0,0,0,.86,1.112,1.927,1.927,0,0,0,.808.35c-.5.292-1.055.51-1.559.8a27.719,27.719,0,0,0-2.293,1.72,4.666,4.666,0,0,1-2.632,1.021,3.222,3.222,0,0,0,.367-3.2,2.994,2.994,0,0,1-.4-1.112,2,2,0,0,1,1.107-1.491c.43-.292.872-.573,1.319-.854.35-.218.877-.677,1.319-.659s.493.407.573.808A6.354,6.354,0,0,0,815.29,585.456Z" transform="translate(-375.6 -342.2)"/><circle class="i" cx="5.183" cy="5.183" r="5.183" transform="translate(439.788 246.186)"/><path class="j" d="M836.07,725.651c0,.453-.9,1.577-.9,1.577a11.156,11.156,0,0,1-5.407-.677c-.453-.224.224-1.577.224-1.577l.052-.109a5.47,5.47,0,0,1,.854-1.468,6.415,6.415,0,0,0,.717-2.293c1.4-2.293,3.882.992,3.882.992s.315,1.72.482,2.763A7.854,7.854,0,0,1,836.07,725.651Z" transform="translate(-383.778 -400.718)"/><path class="d" d="M836.07,729.043c0,.453-.9,1.577-.9,1.577a11.158,11.158,0,0,1-5.407-.677c-.453-.224.224-1.577.224-1.577l.052-.109a10.894,10.894,0,0,0,4.908,1.009l1.026-1.026C836.03,728.624,836.07,728.928,836.07,729.043Z" transform="translate(-383.778 -404.109)"/><circle class="i" cx="5.068" cy="5.068" r="5.068" transform="translate(429.537 235.482)"/><path class="i" d="M801.678,599.131c-1.112,1.061-1.3,2.741-1.41,4.271l-.172,2.242a11.31,11.31,0,0,0-.04,1.817c0,.373.092.751.126,1.147s.046.894.052,1.347v3.314a3.911,3.911,0,0,0,.367,1.989,1.353,1.353,0,0,0,1.72.619,1.96,1.96,0,0,0,.711-1.1,17.116,17.116,0,0,0,1.147-4.2c.046-.5.052-1,.1-1.5s.132-1.021.206-1.525c.321-2.11.464-4.243.608-6.37.04-.631.608-3.113-.218-3.388-.4-.132-1.233.281-1.617.419a4.552,4.552,0,0,0-1.577.912Z" transform="translate(-371.161 -348.445)"/><path class="d" d="M801.678,599.131c-1.112,1.061-1.3,2.741-1.41,4.271l-.172,2.242a11.31,11.31,0,0,0-.04,1.817c0,.373.092.751.126,1.147s.046.894.052,1.347v3.314a3.911,3.911,0,0,0,.367,1.989,1.353,1.353,0,0,0,1.72.619,1.96,1.96,0,0,0,.711-1.1,17.116,17.116,0,0,0,1.147-4.2c.046-.5.052-1,.1-1.5s.132-1.021.206-1.525c.321-2.11.464-4.243.608-6.37.04-.631.608-3.113-.218-3.388-.4-.132-1.233.281-1.617.419a4.552,4.552,0,0,0-1.577.912Z" transform="translate(-371.161 -348.445)"/><path class="j" d="M814.079,588.16s-3.83,2.93-6.083,3.606c0,0-1.336,1.525-1.565,1.892s-.688,4.415-1.147,5.321-1.577,2.93,0,4.954a8.588,8.588,0,0,1,.224,2.706c-.224.677-1.043,3.153-.3,3.268s3,1.686,5.028,1.238,9.58,1.72,9.58,1.72,1.25-11.61,2.156-13.663l-2.03-.677s-5.63-3.377-2.253-8.56C817.685,589.966,814.521,589.289,814.079,588.16Z" transform="translate(-373.053 -344.342)"/><path class="b" d="M796.733,610.744l4.656,3.3a.344.344,0,0,0,.407,0l1.261-.946a.355.355,0,0,0,0-.539l-3.583-3.182a.344.344,0,0,0-.35-.069l-2.3.826a.35.35,0,0,0-.092.613Z" transform="translate(-369.69 -353.355)"/><path class="i" d="M799.135,622.548a12.476,12.476,0,0,1-.487-3.515l-.069-1.588a4.588,4.588,0,0,1,.166-1.835,3,3,0,0,1,1.932-1.691,6.673,6.673,0,0,1,2.632-.189.677.677,0,0,1,.338.092.63.63,0,0,1,.183.31,2.075,2.075,0,0,1,.1,1.657,1.72,1.72,0,0,1-.527.545c-.625.447-1.353.745-1.944,1.233a.705.705,0,0,0-.264.333.774.774,0,0,0,0,.361,5.775,5.775,0,0,0,.3.923.911.911,0,0,0,.258.39c.109.092.252.126.367.212.247.2.763.464.734.78a25.685,25.685,0,0,1-1.043,3.566C801.3,626.349,799.467,623.517,799.135,622.548Z" transform="translate(-370.527 -355.229)"/><g class="a" transform="translate(435.723 254.522)"><path d="M812.106,628.21h-.126a3.858,3.858,0,0,0,1.474,0h.143A5.165,5.165,0,0,0,812.106,628.21Z" transform="translate(-811.98 -615.929)"/><path d="M831.183,606.83c-.808,1.817-2,11.662-2.213,13.617.791.206,1.313.355,1.313.355s1.238-11.581,2.144-13.634Z" transform="translate(-819.229 -606.83)"/></g><path class="i" d="M821.375,597.01a1.72,1.72,0,0,0,.74,1.118,9.933,9.933,0,0,1,1.313,1.33,9.42,9.42,0,0,1,1.3,2.609,31.957,31.957,0,0,1,1.084,3.566c-2.867,1.33-6.123,1.267-9.173,2.144a7.32,7.32,0,0,0-3.44,2.035,4.741,4.741,0,0,0-1.267,3.732.487.487,0,0,0,.069.224.482.482,0,0,0,.4.161,3.44,3.44,0,0,0,2.1-.722,10.015,10.015,0,0,0,1.611-1.582,2.592,2.592,0,0,1,1.147-.849,18.765,18.765,0,0,1,5.16-.5,65.022,65.022,0,0,0,7.688-.608.619.619,0,0,0,.688-.688c.252-3.383-1-6.685-2.293-9.821q-.774-1.886-1.594-3.755a11.125,11.125,0,0,0-1.949-3.337,3.441,3.441,0,0,0-1.147-.848,4.848,4.848,0,0,0-1.536-.287,10.9,10.9,0,0,0-2.517-.046,5.362,5.362,0,0,0-.241,1.3,11.274,11.274,0,0,0,1.387,4.4C821,596.792,821.243,596.8,821.375,597.01Z" transform="translate(-376.226 -345.481)"/><path class="k" d="M811.983,606.67a4.2,4.2,0,0,0-.573,2.19,2.946,2.946,0,0,0,.143.894,2.9,2.9,0,0,0,1.829,1.72" transform="translate(-376.013 -352.24)"/><path class="b" d="M809.777,572.476a2.633,2.633,0,0,0-.831.132,5.5,5.5,0,0,0-4.587-1.938c-2.741,0-4.959,1.416-4.959,3.159s2.219,3.153,4.959,3.153a6.976,6.976,0,0,0,2.976-.631,2.7,2.7,0,1,0,2.431-3.876Z" transform="translate(-370.89 -336.88)"/><path class="d" d="M809.992,578.819a2.7,2.7,0,0,1-2.431-1.531,6.976,6.976,0,0,1-2.975.631c-2.735,0-4.954-1.41-4.954-3.153a1.889,1.889,0,0,1,0-.315,2.139,2.139,0,0,0-.252.992c0,1.72,2.219,3.153,4.959,3.153a6.976,6.976,0,0,0,2.976-.631,2.7,2.7,0,0,0,5.086-.671A2.689,2.689,0,0,1,809.992,578.819Z" transform="translate(-370.881 -338.492)"/><path class="d" d="M796.035,569.06a7.654,7.654,0,0,1,8.6-4.1,8.107,8.107,0,0,1,12.338,6.227v-.677a8.107,8.107,0,0,0-12.367-6.88,7.654,7.654,0,0,0-8.6,4.1,9.334,9.334,0,0,0-2.918,6.972v.677A9.173,9.173,0,0,1,796.035,569.06Z" transform="translate(-368.196 -333.36)"/><path class="f" d="M883.6,531.573c1.5-2.769-.2-6.169-2.156-8.64s-4.329-5.04-4.277-8.193c.069-4.524,4.873-7.2,8.715-9.6a42.372,42.372,0,0,0,7.82-6.307,11.425,11.425,0,0,0,2.408-3.216,13.213,13.213,0,0,0,.722-5.733q-.252-9.689-.957-19.356" transform="translate(-404.071 -294.153)"/><path class="c" d="M912.021,464.923a7.046,7.046,0,0,0-3.52-5.779l-1.582,3.125.046-3.784a6.926,6.926,0,0,0-2.322-.281,7.058,7.058,0,1,0,7.379,6.72Z" transform="translate(-412.922 -288.891)"/><path class="c" d="M890.647,545.606a7.058,7.058,0,1,1,.338-5.687l-4.409,3.589,4.85-1.147a7.017,7.017,0,0,1-.78,3.245Z" transform="translate(-404.132 -321.797)"/><path class="c" d="M888.985,518.853a7.058,7.058,0,0,1-2.242-13.846l-.034,2.907,1.6-3.159h0a7.06,7.06,0,1,1,.659,14.1Z" transform="translate(-405.956 -308.752)"/><path class="c" d="M918.85,498.972a7.058,7.058,0,1,1,3.125-13.187l-1.25,3.44,2.568-2.465a7.017,7.017,0,0,1,2.293,4.873,6.812,6.812,0,0,1-.178,1.944A7.058,7.058,0,0,1,918.85,498.972Z" transform="translate(-418.69 -300.27)"/><path class="d" d="M911.07,469.681c-1.628.183-3.216.688-4.85.791a5.258,5.258,0,0,1-4.466-1.565,21.913,21.913,0,0,1-1.3-2.293,5.073,5.073,0,0,0-1.777-1.674,7.058,7.058,0,1,0,13.187,4.684C911.6,469.636,911.333,469.653,911.07,469.681Z" transform="translate(-412.916 -291.768)"/><path class="d" d="M918.872,501.978a7.064,7.064,0,0,1-6.714-10.068,5.222,5.222,0,0,1,1.422,1.416,22.627,22.627,0,0,0,1.4,2.334,5.743,5.743,0,0,0,4.678,1.64c1.7-.08,3.348-.573,5.045-.717.235,0,.476-.04.711-.046A7.058,7.058,0,0,1,918.872,501.978Z" transform="translate(-418.712 -303.275)"/><path class="d" d="M888.986,521.947A7.052,7.052,0,0,1,882.214,512a5.821,5.821,0,0,1,1.491,1.433c.573.774.889,1.668,1.531,2.379a6.533,6.533,0,0,0,5,1.754c1.806-.04,3.44-.47,5.16-.6A7.058,7.058,0,0,1,888.986,521.947Z" transform="translate(-405.957 -311.847)"/><path class="d" d="M890.677,548.993a7.064,7.064,0,0,1-12.872-5.733,6.91,6.91,0,0,1,1.548,1.382c.677.82,1.118,1.72,1.892,2.511a8.865,8.865,0,0,0,5.848,2.053A30.945,30.945,0,0,0,890.677,548.993Z" transform="translate(-404.162 -325.185)"/><path class="f" d="M1042.6,683.573c1.5-2.769-.2-6.169-2.156-8.64s-4.329-5.04-4.277-8.193c.069-4.524,4.873-7.2,8.715-9.6a42.371,42.371,0,0,0,7.82-6.307,11.428,11.428,0,0,0,2.408-3.216,13.211,13.211,0,0,0,.722-5.733q-.246-9.689-.958-19.356" transform="translate(-471.911 -359.007)"/><path class="c" d="M1071.042,616.924a7.046,7.046,0,0,0-3.52-5.779l-1.582,3.125.046-3.784a6.925,6.925,0,0,0-2.293-.281,7.058,7.058,0,1,0,7.379,6.719Z" transform="translate(-480.783 -353.745)"/><path class="c" d="M1049.646,697.606a7.058,7.058,0,1,1,.338-5.687l-4.409,3.589,4.85-1.147a7.017,7.017,0,0,1-.78,3.245Z" transform="translate(-471.972 -386.65)"/><path class="c" d="M1047.985,670.853a7.058,7.058,0,0,1-2.242-13.846l-.035,2.907,1.6-3.159h0a7.06,7.06,0,1,1,.659,14.1Z" transform="translate(-473.796 -373.606)"/><path class="c" d="M1077.85,650.972a7.058,7.058,0,1,1,3.125-13.187l-1.25,3.44,2.569-2.465a7.018,7.018,0,0,1,2.293,4.873,6.819,6.819,0,0,1-.178,1.944A7.058,7.058,0,0,1,1077.85,650.972Z" transform="translate(-486.53 -365.123)"/><path class="d" d="M1070.07,621.682c-1.628.183-3.216.688-4.85.791a5.259,5.259,0,0,1-4.466-1.565,21.874,21.874,0,0,1-1.3-2.293,5.075,5.075,0,0,0-1.777-1.674,7.058,7.058,0,1,0,13.187,4.684C1070.6,621.636,1070.333,621.653,1070.07,621.682Z" transform="translate(-480.756 -356.621)"/><path class="d" d="M1077.872,653.978a7.064,7.064,0,0,1-6.714-10.068,5.225,5.225,0,0,1,1.422,1.416,22.627,22.627,0,0,0,1.4,2.333,5.742,5.742,0,0,0,4.678,1.64c1.7-.08,3.348-.573,5.045-.717.235,0,.476-.04.711-.046A7.058,7.058,0,0,1,1077.872,653.978Z" transform="translate(-486.552 -368.129)"/><path class="d" d="M1047.985,673.947a7.052,7.052,0,0,1-6.771-9.947,5.819,5.819,0,0,1,1.491,1.433c.573.774.889,1.668,1.531,2.379a6.533,6.533,0,0,0,5,1.754c1.806-.04,3.44-.47,5.16-.6A7.058,7.058,0,0,1,1047.985,673.947Z" transform="translate(-473.797 -376.7)"/><path class="d" d="M1049.677,700.993a7.063,7.063,0,0,1-12.871-5.733,6.917,6.917,0,0,1,1.548,1.382c.677.82,1.147,1.72,1.892,2.511a8.865,8.865,0,0,0,5.848,2.053,30.942,30.942,0,0,0,3.583-.212Z" transform="translate(-472.002 -390.038)"/><path class="l" d="M472.795,575.929a5.624,5.624,0,0,0-2.242-4.541,6.593,6.593,0,0,0-5.51-6.467,6.582,6.582,0,0,0-4.386-4.9h0a5.6,5.6,0,0,0-.814-.189h-.969a6.456,6.456,0,0,0-6.238,5.515c-2.012-.464-3.853.138-4.191,1.411a1.72,1.72,0,0,0,.057,1.021,4.437,4.437,0,0,0,2.958,2.4l.195.057.292.075h.063a5.069,5.069,0,0,0-.482,2.173,5.011,5.011,0,0,0,2.7,4.472l-.132.08a1.788,1.788,0,0,0-.436.608,9.1,9.1,0,0,0-.843,2.03c-.143.608-.166,1.238-.344,1.841-.333,1.107-1.181,2.041-1.279,3.193-.046.516.04,1.147-.327,1.479a1.783,1.783,0,0,1-.292.206,2.366,2.366,0,0,0-.636.671,2.226,2.226,0,0,1-.447.642c-.333.247-.877.224-1.038.608s.258.837.161,1.256-.453.5-.711.734a2.552,2.552,0,0,0-.613,1.147,3.761,3.761,0,0,1-3.1-.791,5.785,5.785,0,0,1,.321,1.147,5.022,5.022,0,0,0-1.668-.837,5.268,5.268,0,0,1-1.777-1.319l.952-.132-4.2-6.416-1.244-.258,1.112,2.139a.682.682,0,0,0-.378.453,1.943,1.943,0,0,0-.04.728,13.035,13.035,0,0,0,.287,1.72l.321,1.5c.029.138.063.281.1.419a3.951,3.951,0,0,0-1.244.138,10.825,10.825,0,0,0-2.586-.613,1.433,1.433,0,0,0-.573,0,1.485,1.485,0,0,0-.545.441,17.629,17.629,0,0,0-1.921,2.706c-2.293,3.933-5.28,7.367-8.107,10.922-1.949.791-3.916,1.542-5.882,2.293l-4.231,1.617a6.417,6.417,0,0,1-2.626.573c-.4,0-.9-.086-1.147.258a2.41,2.41,0,0,0-.258.573l-.436.046h0a5.01,5.01,0,0,0-1.015-1.869.642.642,0,0,0-.476.367c-.1.189-.166.4-.287.573-.224.333-.619.493-.9.774s-.459.717-.768,1a3.038,3.038,0,0,1-1.439.573,9.078,9.078,0,0,0-2.253.854,3.635,3.635,0,0,1-.831.384,3.124,3.124,0,0,1-.98.034l-2.236-.166a1.765,1.765,0,0,0-.6.029,1.147,1.147,0,0,0-.711,1.147,1.806,1.806,0,0,0,.711,1.233,4.551,4.551,0,0,0,1.273.659,37.359,37.359,0,0,0,5.963,1.766v.453a10.176,10.176,0,0,0,4.587,1.089.712.712,0,0,0,.344-.063.757.757,0,0,0,.287-.447,18.444,18.444,0,0,0,.894-4.392h0a2.294,2.294,0,0,0,.808-.206c.768-.212,1.537.315,2.333.4a6.374,6.374,0,0,0,2.815-.814l.4-.132a4.4,4.4,0,0,1-.929.889c-.384.275-.814.482-1.187.768a8.176,8.176,0,0,1-1.009.78,6.346,6.346,0,0,1-.774.3,5.107,5.107,0,0,0-1.107.573,2.242,2.242,0,0,0-.751.734,1.1,1.1,0,0,0-.063,1.032,1.089,1.089,0,0,0,.74.516,3.031,3.031,0,0,0,.912,0c1.215-.092,2.425-.2,3.635-.31a9.693,9.693,0,0,0,1.519-.218c.264-.063.527-.149.791-.224a7.059,7.059,0,0,1,1.382-.206,1.147,1.147,0,0,1,.4.04c.281.092.482.378.768.436a1.147,1.147,0,0,0,.573-.074,12.788,12.788,0,0,1,2.689-.287,1.11,1.11,0,0,0,1.043-.464c.183-.367-.149-.957-.3-1.445a4.419,4.419,0,0,1-.126-.952,5.958,5.958,0,0,0-.665-2.259,5.9,5.9,0,0,1-.5-1.032,26.073,26.073,0,0,0,4.948-2.511,8.847,8.847,0,0,1,2.821-1.359,7.673,7.673,0,0,1,3.543.413,80.623,80.623,0,0,1,8.124,2.832c1.267.522,2.528,1.072,3.836,1.468a5.982,5.982,0,0,0,1.365,1.324,6.307,6.307,0,0,0,2.953.808,38.712,38.712,0,0,0,4.157.155,7.01,7.01,0,0,0,3.1-.573,3.183,3.183,0,0,0,.648-.43,2.569,2.569,0,0,0,2.041-.751,4.948,4.948,0,0,0,1.554-2.454c.338-1.307.08-2.867.883-3.91.212-.287.493-.516.705-.8a2.259,2.259,0,0,0,.367-1.324.264.264,0,0,1,.034-.052,4.857,4.857,0,0,0,.344-1.319,7.538,7.538,0,0,1,.373-1.043,32.227,32.227,0,0,0,1.066-3.09,18.056,18.056,0,0,0,.493-2.121c.086-.573.138-1.147.183-1.72a10.685,10.685,0,0,1,.522-2.655,21.6,21.6,0,0,0,1.2-6.353v-.126a4.26,4.26,0,0,0,3.773-4.334,4.523,4.523,0,0,0-.4-1.852,5.733,5.733,0,0,0,.768-2.89Zm-20.514,24.923c.063.224.138.441.212.659-.338-.327-.665-.665-1-1,.132.046.269.086.4.138a2.129,2.129,0,0,1,.378.2Zm-1.623-1.1c-1.984-1.72-4.277-3.056-6.307-4.724,1.107.545,2.184,1.181,3.251,1.789q1.9,1.084,3.847,2.081a3.148,3.148,0,0,1-.808.854Zm.843-4.334.1-.1V596l-.533-.184a4.733,4.733,0,0,0,.418-.4Zm-17.447,4.644a16.413,16.413,0,0,0,2.11-3.01,20.26,20.26,0,0,0,3.148,3.515C437.563,600.342,435.809,600.153,434.054,600.061Z" transform="translate(-198.741 -332.255)"/><path class="m" d="M415.35,438.25l1.25.252,4.26,6.3-1.875.252Z" transform="translate(-177.215 -187.139)"/><path class="n" d="M414.49,645.414a24.53,24.53,0,0,0,1.25,3.251,30.966,30.966,0,0,0,4.157-1.187,13.1,13.1,0,0,0-.866-1.147,4.277,4.277,0,0,0-1.175-.9,3.234,3.234,0,0,0-1.428,0C415.786,645.414,415.138,645.425,414.49,645.414Z" transform="translate(-206.662 -368.743)"/><path class="m" d="M409.891,645.749a2.592,2.592,0,0,1-1.422-1.617,5.2,5.2,0,0,0-1.084-1.932.619.619,0,0,0-.482.361c-.1.183-.166.39-.281.573-.229.327-.631.487-.917.763s-.459.705-.768.986a3.049,3.049,0,0,1-1.451.573,9.4,9.4,0,0,0-2.293.843,3.955,3.955,0,0,1-.843.378,3.338,3.338,0,0,1-.986,0l-2.259-.161a1.765,1.765,0,0,0-.573,0,1.1,1.1,0,0,0-.717,1.147,1.72,1.72,0,0,0,.717,1.215,4.76,4.76,0,0,0,1.284.654,37.792,37.792,0,0,0,6.054,1.72v.447a10.482,10.482,0,0,0,4.615,1.072.779.779,0,0,0,.344-.057.757.757,0,0,0,.287-.447,17.89,17.89,0,0,0,.946-4.908,3.91,3.91,0,0,0-.1-1.267c-.126-.407.3-.235-.092-.4" transform="translate(-198.691 -367.399)"/><path class="m" d="M462.839,632.21c-6.7.4-13.313-1.559-20.021-1.766a9.775,9.775,0,0,0-2.488.155,12.53,12.53,0,0,0-2.465.957c-3.595,1.674-7.316,3.062-11.031,4.443l-4.271,1.588a6.468,6.468,0,0,1-2.643.573c-.407,0-.906-.086-1.147.252-.694,1.032-.367,2.54.092,3.7.149.373.4.78.8.82a2.33,2.33,0,0,0,.814-.206c.774-.206,1.548.315,2.351.4a6.605,6.605,0,0,0,2.838-.8,24.639,24.639,0,0,1,4.862-.826,21.782,21.782,0,0,0,7.614-3.159A8.887,8.887,0,0,1,440.983,637a7.855,7.855,0,0,1,3.572.407,81.986,81.986,0,0,1,8.193,2.786,38.192,38.192,0,0,0,4.277,1.565,15.479,15.479,0,0,0,9.592-.573c1.072-.424,2.236-1.147,2.293-2.328.04-.659-.476-1.238-.814-1.806-.218-.361-.441-.722-.677-1.072C466.273,634.314,464.874,632.09,462.839,632.21Z" transform="translate(-208.318 -362.374)"/><path class="d" d="M462.839,632.21c-6.7.4-13.313-1.559-20.021-1.766a9.775,9.775,0,0,0-2.488.155,12.53,12.53,0,0,0-2.465.957c-3.595,1.674-7.316,3.062-11.031,4.443l-4.271,1.588a6.468,6.468,0,0,1-2.643.573c-.407,0-.906-.086-1.147.252-.694,1.032-.367,2.54.092,3.7.149.373.4.78.8.82a2.33,2.33,0,0,0,.814-.206c.774-.206,1.548.315,2.351.4a6.605,6.605,0,0,0,2.838-.8,24.639,24.639,0,0,1,4.862-.826,21.782,21.782,0,0,0,7.614-3.159A8.887,8.887,0,0,1,440.983,637a7.855,7.855,0,0,1,3.572.407,81.986,81.986,0,0,1,8.193,2.786,38.192,38.192,0,0,0,4.277,1.565,15.479,15.479,0,0,0,9.592-.573c1.072-.424,2.236-1.147,2.293-2.328.04-.659-.476-1.238-.814-1.806-.218-.361-.441-.722-.677-1.072C466.273,634.314,464.874,632.09,462.839,632.21Z" transform="translate(-208.318 -362.374)"/><path class="n" d="M436.92,643.925q1.571.533,3.171.986c.573-.98,1.72-1.663,1.967-2.786a.265.265,0,0,0,0-.149.276.276,0,0,0-.12-.109,6.008,6.008,0,0,0-2.488-.728c-.688-.04-1,.677-1.313,1.181C438.015,642.543,437.2,644.034,436.92,643.925Z" transform="translate(-216.232 -366.946)"/><path class="m" d="M431.774,643.6a2.293,2.293,0,0,1-1.542-1.015c-.143-.258-.3-.608-.6-.573s-.4.344-.459.613a17.2,17.2,0,0,1-.866,2.976,5.584,5.584,0,0,1-1.852,2.437c-.39.269-.82.47-1.2.757a8.266,8.266,0,0,1-1.015.768,6.024,6.024,0,0,1-.78.287,5.4,5.4,0,0,0-1.112.573,2.207,2.207,0,0,0-.763.728,1.049,1.049,0,0,0-.057,1.015,1.084,1.084,0,0,0,.74.5,3.119,3.119,0,0,0,.923,0c1.221-.086,2.442-.195,3.664-.3a10.578,10.578,0,0,0,1.531-.212l.8-.218a6.342,6.342,0,0,1,1.393-.206,1.082,1.082,0,0,1,.407.04c.281.092.482.373.774.43a1.3,1.3,0,0,0,.573-.075,12.659,12.659,0,0,1,2.712-.281,1.145,1.145,0,0,0,1.055-.459c.229-.447-.149-.946-.3-1.428a4.585,4.585,0,0,1-.126-.935,5.7,5.7,0,0,0-.671-2.224c-.31-.573-.734-1.2-.516-1.812a1.72,1.72,0,0,0,.206-.625C434.595,643.373,432.336,643.723,431.774,643.6Z" transform="translate(-209.618 -367.316)"/><path class="n" d="M474.221,610.418a5.229,5.229,0,0,1-2.672-2.649c-.109-.252-.2-.522-.31-.774a5.884,5.884,0,0,0-1.594-2.219.785.785,0,0,0-.573-.247.625.625,0,0,0-.43.464,1.772,1.772,0,0,0-.046.717,12.771,12.771,0,0,0,.287,1.674l.327,1.479a3.251,3.251,0,0,0,.2.659,2.293,2.293,0,0,0,.545.648c.3.275.6.539.906.8a3.11,3.11,0,0,0,.573.4,3.333,3.333,0,0,0,1.015.3,8.635,8.635,0,0,1,3.807,1.468s0-.992,0-1.1a1.456,1.456,0,0,0-.287-.8A5.086,5.086,0,0,0,474.221,610.418Z" transform="translate(-229.74 -351.327)"/><path class="d" d="M474.221,610.418a5.229,5.229,0,0,1-2.672-2.649c-.109-.252-.2-.522-.31-.774a5.884,5.884,0,0,0-1.594-2.219.785.785,0,0,0-.573-.247.625.625,0,0,0-.43.464,1.772,1.772,0,0,0-.046.717,12.771,12.771,0,0,0,.287,1.674l.327,1.479a3.251,3.251,0,0,0,.2.659,2.293,2.293,0,0,0,.545.648c.3.275.6.539.906.8a3.11,3.11,0,0,0,.573.4,3.333,3.333,0,0,0,1.015.3,8.635,8.635,0,0,1,3.807,1.468s0-.992,0-1.1a1.456,1.456,0,0,0-.287-.8A5.086,5.086,0,0,0,474.221,610.418Z" transform="translate(-229.74 -351.327)"/><ellipse class="m" cx="1.628" cy="1.64" rx="1.628" ry="1.64" transform="translate(256.487 244.495)"/><path class="m" d="M492.056,590.444a1.76,1.76,0,0,0-1.284.184,1.783,1.783,0,0,0-.441.6,8.743,8.743,0,0,0-.849,2c-.143.573-.166,1.221-.35,1.812-.332,1.089-1.187,2.012-1.284,3.148-.046.51.04,1.107-.333,1.451a2.113,2.113,0,0,1-.292.212,2.2,2.2,0,0,0-.642.659,2.161,2.161,0,0,1-.453.625c-.333.247-.883.224-1.043.573s.258.826.161,1.238-.459.493-.717.722a2.505,2.505,0,0,0-.619,1.147,3.824,3.824,0,0,1-3.119-.774,9.931,9.931,0,0,1,.487,3.566,1.456,1.456,0,0,1-.287,1.1,19.858,19.858,0,0,1,3.824.665,2.637,2.637,0,0,0,1.668,0,2.787,2.787,0,0,0,.768-.608,4.9,4.9,0,0,0,1.577-2.431,14.28,14.28,0,0,0,.029-1.645,9.278,9.278,0,0,1,.419-2,23.807,23.807,0,0,0,.728-4.116c.075-.86.82-1.548,1.21-2.293a11.229,11.229,0,0,0,1.542-4.587C492.778,591.161,492.6,590.5,492.056,590.444Z" transform="translate(-234.95 -345.296)"/><path class="d" d="M492.056,590.444a1.76,1.76,0,0,0-1.284.184,1.783,1.783,0,0,0-.441.6,8.743,8.743,0,0,0-.849,2c-.143.573-.166,1.221-.35,1.812-.332,1.089-1.187,2.012-1.284,3.148-.046.51.04,1.107-.333,1.451a2.113,2.113,0,0,1-.292.212,2.2,2.2,0,0,0-.642.659,2.161,2.161,0,0,1-.453.625c-.333.247-.883.224-1.043.573s.258.826.161,1.238-.459.493-.717.722a2.505,2.505,0,0,0-.619,1.147,3.824,3.824,0,0,1-3.119-.774,9.931,9.931,0,0,1,.487,3.566,1.456,1.456,0,0,1-.287,1.1,19.858,19.858,0,0,1,3.824.665,2.637,2.637,0,0,0,1.668,0,2.787,2.787,0,0,0,.768-.608,4.9,4.9,0,0,0,1.577-2.431,14.28,14.28,0,0,0,.029-1.645,9.278,9.278,0,0,1,.419-2,23.807,23.807,0,0,0,.728-4.116c.075-.86.82-1.548,1.21-2.293a11.229,11.229,0,0,0,1.542-4.587C492.778,591.161,492.6,590.5,492.056,590.444Z" transform="translate(-234.95 -345.296)"/><path class="m" d="M472.895,625.736a15.111,15.111,0,0,1-3.543-2.958c-2.15-2.024-4.782-3.44-7.046-5.349a49.636,49.636,0,0,0-4.489-3.773,11.218,11.218,0,0,0-4.81-1.68,1.279,1.279,0,0,0-.573,0,1.319,1.319,0,0,0-.545.43,17.325,17.325,0,0,0-1.944,2.666c-2.867,4.873-6.943,8.967-10.32,13.5a.86.86,0,0,0-.166.321.8.8,0,0,0,.126.5l.688,1.342c.384.757,1,1.634,1.829,1.485a2,2,0,0,0,.958-.613l3.085-2.953,3.234-3.09a24.8,24.8,0,0,0,5.057-5.974c.963,1.674,2.677,2.769,3.847,4.3.447.573.814,1.221,1.215,1.84.636.986,1.365,1.915,2.087,2.867l3.709,4.73a7.1,7.1,0,0,0,1.72,1.72,6.565,6.565,0,0,0,2.976.8,39.335,39.335,0,0,0,4.191.149,7.224,7.224,0,0,0,3.125-.573A2.832,2.832,0,0,0,479,632.9a3.692,3.692,0,0,0-.533-1.565A12.778,12.778,0,0,0,472.895,625.736Z" transform="translate(-217.314 -354.489)"/><ellipse class="o" cx="1.256" cy="1.261" rx="1.256" ry="1.261" transform="translate(257.863 246.008)"/><path class="n" d="M502.19,589.6a2.414,2.414,0,0,1,.138,1.812,7.349,7.349,0,0,1-.808,1.668,7.939,7.939,0,0,1-1.049,1.491,10.8,10.8,0,0,0,5.516-1.582,8.01,8.01,0,0,0,3.48-3.033,1.606,1.606,0,0,1-1.284-.241,4.587,4.587,0,0,1-.98-.912l-.969-1.089a4.366,4.366,0,0,1-.573-.785,2.168,2.168,0,0,1-.258-1.267,7.377,7.377,0,0,1-1.284,1.066c-.694.453-1.456.78-2.156,1.227-.241.161-.791.413-.648.734S502,589.255,502.19,589.6Z" transform="translate(-243.347 -343.275)"/><path class="d" d="M502.19,589.6a2.414,2.414,0,0,1,.138,1.812,7.349,7.349,0,0,1-.808,1.668,7.939,7.939,0,0,1-1.049,1.491,10.8,10.8,0,0,0,5.516-1.582,8.01,8.01,0,0,0,3.48-3.033,1.606,1.606,0,0,1-1.284-.241,4.587,4.587,0,0,1-.98-.912l-.969-1.089a4.366,4.366,0,0,1-.573-.785,2.168,2.168,0,0,1-.258-1.267,7.377,7.377,0,0,1-1.284,1.066c-.694.453-1.456.78-2.156,1.227-.241.161-.791.413-.648.734S502,589.255,502.19,589.6Z" transform="translate(-243.347 -343.275)"/><path class="o" d="M497.831,592.709a1.634,1.634,0,0,0,0,1.892c.057.069.264.5.35.5a.315.315,0,0,0,.218-.115,14.4,14.4,0,0,0,1.227-1.462,2.729,2.729,0,0,1,1.559-1.021,3.371,3.371,0,0,1,2.15.671,2.041,2.041,0,0,1,.74.573,2,2,0,0,1,.241.82,39.508,39.508,0,0,1,.218,5.212,20.538,20.538,0,0,1-.247,3.755c-.126.636-.31,1.261-.4,1.909a12.185,12.185,0,0,0-.08,1.72v2.4a6.308,6.308,0,0,0,.092,1.313c.115.522.361,1.009.527,1.519a9.943,9.943,0,0,1,.35,1.794l.327,2.477a3.131,3.131,0,0,1-.292,2.293c-.212.281-.493.51-.711.791-.808,1.055-.573,2.563-.889,3.853a4.805,4.805,0,0,1-1.571,2.408,2.6,2.6,0,0,1-2.07.74,2.836,2.836,0,0,1-1.886-2.23,8.917,8.917,0,0,0-.969-2.907,7.71,7.71,0,0,0-1.915-1.6,3.308,3.308,0,0,1-1.5-1.944c-.063-.361,0-.734-.063-1.1a2.6,2.6,0,0,0-1.6-2.1c-.516-.2-1.147-.275-1.445-.745a3.48,3.48,0,0,0,1.508-2.024,10.4,10.4,0,0,0,.367-2.557l.172-2.867a9.575,9.575,0,0,1,.682-3.721c.252-.516.573-1,.831-1.514a16.434,16.434,0,0,0,.889-2.219c.413-1.181.826-2.362,1.193-3.555a6.7,6.7,0,0,1,.654-1.657C496.8,593.471,497.252,592.823,497.831,592.709Z" transform="translate(-238.965 -346.196)"/><path class="m" d="M492.3,611.036h.763l.161-1.147a2.391,2.391,0,0,1,.161-.671,4.011,4.011,0,0,1,.441-.642c.745-1.061.694-2.465.877-3.755a19.109,19.109,0,0,1,1.674-4.908l1.479-3.3a4.551,4.551,0,0,0,.321-.843,5.053,5.053,0,0,0,.092-.975c0-.51.161-2.368.178-2.867,0-.189-.419-.086-.5-.252-.183-.367-.436.625-.785.843a1.927,1.927,0,0,0-.682,1c-.321.826-.516,1.72-.814,2.54a5.188,5.188,0,0,1-1.382,2.247c-.3.264-.654.476-.94.763-.917.906-1.009,2.345-1.038,3.641C492.276,603.5,492.127,611.036,492.3,611.036Z" transform="translate(-239.825 -345.809)"/><path class="m" d="M506.324,590.412a2.6,2.6,0,0,0-1.359,1.863,9.427,9.427,0,0,1-.688,2.293c-.929,1.617-3.3,2.087-3.956,3.836a7.052,7.052,0,0,0-.264,1.806c-.115,1.256-.527,2.465-.654,3.715a16.551,16.551,0,0,0,.069,2.918l.831,9.873a13.186,13.186,0,0,1-.247,4.346,4.186,4.186,0,0,0,2.488-.413c.774-.355,1.485-.843,2.236-1.256a23.038,23.038,0,0,0,3.836-2.156,2.346,2.346,0,0,0,.516-.573,4.958,4.958,0,0,0,.344-1.3,7,7,0,0,1,.373-1.021,30.055,30.055,0,0,0,1.078-3.05,17.508,17.508,0,0,0,.493-2.087c.092-.573.143-1.147.189-1.72a10.088,10.088,0,0,1,.528-2.609,21.016,21.016,0,0,0,1.21-6.261,3.271,3.271,0,0,0-.063-.917,4.909,4.909,0,0,0-.5-1.049c-.344-.648-.573-1.359-.871-2.018a9.924,9.924,0,0,0-3.388-3.56A2.58,2.58,0,0,0,506.324,590.412Z" transform="translate(-242.877 -345.27)"/><path class="n" d="M474.61,616.093a5.978,5.978,0,0,1-1.577-1.2c-.206-.241-.378-.51-.573-.751A3.9,3.9,0,0,0,470.476,613a9.689,9.689,0,0,0-2.293-.224,4.162,4.162,0,0,0-1.531.183,1.56,1.56,0,0,0-1.015,1.089,1.806,1.806,0,0,0,.774,1.605,3.647,3.647,0,0,0,1.542.745,12.337,12.337,0,0,0,1.393.166c2.741.287,5.189,1.777,7.591,3.136q3.165,1.8,6.456,3.348a13.421,13.421,0,0,0,.109-1.978c0-.493-.04-1.25-.5-1.542a10.125,10.125,0,0,0-2.053-.613,32.308,32.308,0,0,1-4.134-1.674A20.568,20.568,0,0,1,474.61,616.093Z" transform="translate(-228.483 -354.84)"/><ellipse class="n" cx="4.885" cy="4.913" rx="4.885" ry="4.913" transform="translate(253.23 235.935)"/><path class="m" d="M504.967,599.717a7.829,7.829,0,0,0-.946,1.772c-.573,1.238-1.548,2.293-2.024,3.606s-.482,3-1.462,4.071a1.427,1.427,0,0,0-.43.619,2.961,2.961,0,0,1-.046.447c-.143.39-.78.407-.9.808-.034.115,0,.241-.057.355-.1.258-.441.3-.665.453-.476.321-.378,1.066-.717,1.531a1.29,1.29,0,0,1-1.221.43,4.3,4.3,0,0,1-1.267-.476,1.221,1.221,0,0,0-.459-.143.945.945,0,0,0-.527.183,3.251,3.251,0,0,0-1.319,2.781,9.081,9.081,0,0,0,.757,3.113,1.25,1.25,0,0,0,.247.464,1.1,1.1,0,0,0,1.215.092,5.732,5.732,0,0,1,1.187-.533c.757-.138,1.5.384,2.265.338a3.147,3.147,0,0,0,1.525-.671,8.428,8.428,0,0,0,2.053-1.72c.333-.442.573-.94.871-1.41a18.085,18.085,0,0,1,1.233-1.646l2.821-3.44a7.932,7.932,0,0,0,.757-1.044,7.355,7.355,0,0,0,.573-1.577,12.078,12.078,0,0,0,.573-2.8,10.772,10.772,0,0,0-.206-2.351,8.309,8.309,0,0,0-.573-2.242C507.61,599.43,506.119,598.375,504.967,599.717Z" transform="translate(-240.126 -349.007)"/><path class="p" d="M512.748,577.137a5.5,5.5,0,0,0-2.259-4.472,6.542,6.542,0,0,0-5.556-6.37,6.347,6.347,0,0,0-12.5.338c-2.03-.459-3.887.138-4.225,1.387s1.1,2.867,3.234,3.44a6.026,6.026,0,0,0,2.075.206,6.353,6.353,0,0,0,4.369,2.723,6.519,6.519,0,0,0,4.77,4.919,5.476,5.476,0,0,0,1.473,2.035v.476a4.134,4.134,0,0,0,8.267,0,4.415,4.415,0,0,0-.4-1.829A5.527,5.527,0,0,0,512.748,577.137Z" transform="translate(-238.092 -332.837)"/><path class="d" d="M489.575,568.282c.338-1.25,2.2-1.846,4.226-1.387a6.456,6.456,0,0,1,6.307-5.435h.419a6.216,6.216,0,0,0-1.8-.269,6.456,6.456,0,0,0-6.307,5.435c-2.03-.459-3.887.138-4.226,1.387s1.1,2.867,3.234,3.44a6.308,6.308,0,0,0,1.227.212C490.607,571.051,489.237,569.561,489.575,568.282Z" transform="translate(-238.087 -332.835)"/><path class="d" d="M509.559,590.012a4.283,4.283,0,0,1,0-.47,5.355,5.355,0,0,1-1.474-2.035,6.5,6.5,0,0,1-4.77-4.925,6.335,6.335,0,0,1-4.375-2.718,5.5,5.5,0,0,1-1.221-.034,6.37,6.37,0,0,0,4.214,2.505,6.519,6.519,0,0,0,4.77,4.919,5.476,5.476,0,0,0,1.474,2.035v.476a4.208,4.208,0,0,0,4.111,4.277A4.277,4.277,0,0,1,509.559,590.012Z" transform="translate(-242.173 -340.788)"/><ellipse class="n" cx="0.751" cy="1.003" rx="0.751" ry="1.003" transform="translate(258.545 241.508) rotate(-37.22)"/></g></svg>