<svg xmlns="http://www.w3.org/2000/svg" width="32.898" height="32.898" viewBox="0 0 32.898 32.898"><g transform="translate(-3230 -1)"><g transform="translate(3240 6)" fill="#fff" stroke="#707070" stroke-width="1"><rect width="18" height="18" stroke="none"/><rect x="0.5" y="0.5" width="17" height="17" fill="none"/></g><g transform="translate(3230 1)"><path d="M0,0H32.9V32.9H0Z" fill="none"/><path d="M26.674,2H10.225A2.75,2.75,0,0,0,7.483,4.742V21.191a2.75,2.75,0,0,0,2.742,2.742H26.674a2.75,2.75,0,0,0,2.742-2.742V4.742A2.75,2.75,0,0,0,26.674,2ZM23.932,8.854H19.82v7.539a3.427,3.427,0,1,1-3.427-3.427,3.354,3.354,0,0,1,2.056.7V6.112h5.483ZM4.742,7.483H2V26.674a2.75,2.75,0,0,0,2.742,2.742H23.932V26.674H4.742Z" transform="translate(0.742 0.742)" fill="#01c2b2"/></g></g></svg>