<svg xmlns="http://www.w3.org/2000/svg" width="185.447" height="150" viewBox="0 0 185.447 150"><defs><style>.a{fill:#ff6584;}.b{fill:#3f3d56;}.c{fill:#f2f2f2;}.d{opacity:0.1;}.e{fill:#e6e6e6;}.f{fill:#fff;}.g{fill:#01bfb0;}.h{fill:#174079;}.i{fill:#4da6e8;}</style></defs><g transform="translate(0)"><ellipse class="a" cx="15.862" cy="15.862" rx="15.862" ry="15.862" transform="translate(31.215 29.1)"/><path class="b" d="M322.447,276.46v41.719c0,34.008-29.231,61.576-65.289,61.574H137V338.034c0-22.293,12.563-41.821,31.378-52.627a66.47,66.47,0,0,1,10.19-4.756q3.123-1.151,6.36-1.989c.042-.013.086-.025.128-.034q.955-.246,1.923-.465c.036-.009.07-.017.106-.025a69.016,69.016,0,0,1,12.11-1.611c.483-.021.965-.038,1.452-.047.174-.006.35-.009.529-.009q.553-.011,1.111-.011Z" transform="translate(-137 -229.972)"/><path class="c" d="M223.876,681c-47.876,0-86.7,12.126-86.867,27.1H310.743C310.58,693.126,271.752,681,223.876,681Z" transform="translate(-137.008 -558.104)"/><g class="d" transform="translate(55.12 135.037)"><ellipse cx="15.11" cy="4.197" rx="15.11" ry="4.197"/></g><g class="d" transform="translate(90.178 127.482)"><ellipse cx="15.11" cy="4.197" rx="15.11" ry="4.197"/></g><g class="d" transform="translate(57.464 135)"><ellipse cx="13.125" cy="3.75" rx="13.125" ry="3.75"/></g><g class="d" transform="translate(90.982 127.5)"><ellipse cx="13.75" cy="3.75" rx="13.75" ry="3.75"/></g><circle class="c" cx="1.25" cy="1.25" r="1.25" transform="translate(24.907 57.282)"/><circle class="c" cx="1.25" cy="1.25" r="1.25" transform="translate(147.14 111.678)"/><circle class="c" cx="1.25" cy="1.25" r="1.25" transform="translate(80.816 66.569)"/><circle class="a" cx="0.625" cy="0.625" r="0.625" transform="translate(148.456 58.578)"/><circle class="a" cx="0.625" cy="0.625" r="0.625" transform="translate(28.657 98.36)"/><path class="c" d="M90.755,579.844h-.344V579.5h-.067v.344H90v.067h.344v.344h.067v-.344h.344Z" transform="translate(-73.001 -463.41)"/><path class="c" d="M675.755,431.844h-.344V431.5h-.067v.344H675v.067h.344v.344h.067v-.344h.344Z" transform="translate(-539.786 -345.058)"/><path class="c" d="M826.755,401.844h-.344V401.5h-.067v.344H826v.067h.344v.344h.067v-.344h.344Z" transform="translate(-659.44 -321.068)"/><path class="c" d="M501.755,481.844h-.344V481.5h-.067v.344H501v.067h.344v.344h.067v-.344h.344Z" transform="translate(-400.641 -385.042)"/><path class="c" d="M782.755,491.844h-.344V491.5h-.067v.344H782v.067h.344v.344h.067v-.344h.344Z" transform="translate(-623.751 -393.039)"/><path class="c" d="M443.755,534.844h-.344V534.5h-.067v.344H443v.067h.344v.344h.067v-.344h.344Z" transform="translate(-354.26 -427.425)"/><path class="c" d="M571.755,536.844h-.344V536.5h-.067v.344H571v.067h.344v.344h.067v-.344h.344Z" transform="translate(-456.619 -429.024)"/><path class="c" d="M92.756,366.844h-.344V366.5h-.067v.344H92v.067h.344v.344h.067v-.344h.344Z" transform="translate(-74.623 -293.08)"/><rect class="e" width="0.543" height="10.967" transform="translate(135.604 46.42)"/><path class="e" d="M590.3,385.046l-4.995,11.51.977,1.629-.326.543,2.28,1.194v-.651l.869-.217,3.692-6.732Z" transform="translate(-467.788 -307.418)"/><path class="e" d="M721.527,532.406s-3.692,5.755.434,6.624.76-6.081.76-6.081Z" transform="translate(-603.095 -440.644)"/><path class="f" d="M744.1,512.28l-1.3,4.235-.543,5.429-.977,1.954,1.086,8.8,1.737,1.737.76,8.687v3.909l2.063,3.583-2.657,3.771a1.2,1.2,0,0,0,.943,1.895,4.964,4.964,0,0,0,2.366-.671c3.149-1.629,3.04-3.149,3.04-3.149s1.955,0,2.063-1.52-1.194-12.378-1.194-12.378l-1.194-4.669v-12.7h.434l.217,10.858.977,4.018.109,1.737,1.412,17.373s6.3,1.737,6.624.326-2.389-2.28-2.389-2.28l1.629-3.149v-6.081l-.543-1.3-.977-8.8,1.629-1.737.869-1.086v-8.687l-1.086-3.366-.326-2.823-1.737-4.343S749.2,509.24,744.1,512.28Z" transform="translate(-619.419 -420.056)"/><path class="g" d="M760.078,353.241a8.252,8.252,0,1,1-14.876-4.922l0,0a8.251,8.251,0,0,1,14.874,4.924Z" transform="translate(-621.377 -290.613)"/><g class="d" transform="translate(123.58 54.623)"><path d="M764.977,351.69l-.673,3.856c-5.059-13.132-13.106-5.065-13.245-4.924a8.252,8.252,0,0,1,13.918,1.068Z" transform="translate(-751.059 -347.293)"/></g><path class="f" d="M766.126,349.39l-.673,3.856c-5.059-13.132-13.106-5.065-13.245-4.924a8.252,8.252,0,0,1,13.918,1.068Z" transform="translate(-628.396 -290.833)"/><path class="f" d="M758.924,359.476l1.131,3.927s-2.348,7.038-13.238,7.284l-.357,1.005-1.194.326-.543,2.28,1.52,14.441s-.651,1.411.434,1.3c0,0,7.167-2.389,13.356-.217,0,0,1.3.543.977-.652,0,0,4.343-2.715,4.017-5.538s.326-15.962.326-15.962.651-3.8-1.3-4.669C764.051,363,761.18,358.987,758.924,359.476Z" transform="translate(-622.085 -301.678)"/><path class="e" d="M784.761,504.917s-6.8.683-4.92,4.456,5.237-3.183,5.237-3.183Z" transform="translate(-650.597 -418.718)"/><path class="e" d="M806.664,414.664a4.61,4.61,0,0,0-.76,3.692c.434,2.28,2.063,7.384,2.063,7.384l-5.755,5.321,1.737,2.389,7.818-4.018,1.737-1.086h0a45.053,45.053,0,0,0-3.19-12.776l-.284-.689S807.967,414.013,806.664,414.664Z" transform="translate(-668.469 -345.947)"/><ellipse class="e" cx="2.009" cy="2.009" rx="2.009" ry="2.009" transform="translate(135.416 59.884)"/><circle class="e" cx="1.466" cy="1.466" r="1.466" transform="translate(134.444 44.641)"/><path class="c" d="M477.756,350.844h-.344V350.5h-.067v.344H477v.067h.344v.344h.067v-.344h.344Z" transform="translate(-381.449 -280.285)"/><path class="c" d="M641.755,294.844h-.344V294.5h-.067v.344H641v.067h.344v.344h.067v-.344h.344Z" transform="translate(-512.597 -235.503)"/><path class="c" d="M623.755,311.844h-.344V311.5h-.067v.344H623v.067h.344v.344h.067v-.344h.344Z" transform="translate(-498.203 -249.098)"/><ellipse class="c" cx="1.25" cy="0.625" rx="1.25" ry="0.625" transform="translate(109.998 53.274)"/><path class="c" d="M368.839,131.255c0,52.7-6.627,52.7-14.8,52.7-4.225,0-8.037,0-10.733-7.28a45.463,45.463,0,0,1-2.034-8.263c-1.292-7.807-2.034-19.539-2.034-37.161a101.278,101.278,0,0,1,2.034-19.625c.592-2.987,1.283-5.87,2.034-8.62.917-3.367,1.923-6.532,2.937-9.429.68-1.948,1.367-3.776,2.034-5.464A117.416,117.416,0,0,1,354.039,75.5S368.839,102.147,368.839,131.255Z" transform="translate(-298.267 -75.5)"/><g class="d" transform="translate(47.961 12.618)"><path d="M378.358,142.3v91.888h-2.034V147.767C377,145.819,377.692,143.991,378.358,142.3Z" transform="translate(-376.325 -142.303)"/></g><circle class="h" cx="8.135" cy="8.135" r="8.135" transform="translate(47.365 30.17)"/><path class="g" d="M355.188,598.19c-1.809-4.452-4.131-5.22-5.649-5.154v-.721H325.813v.721c-1.518-.067-3.84.7-5.649,5.154-2.937,7.231,1.808,19.658,1.808,19.658s-2.536-17.333,5.885-17.447a9.969,9.969,0,0,0,2.642,2.4v4.662h13.6v-4.237a9.955,9.955,0,0,0,3.4-2.821c8.421.114,5.885,17.447,5.885,17.447S358.125,605.42,355.188,598.19Z" transform="translate(-282.159 -486.169)"/><ellipse class="g" cx="6.327" cy="6.327" rx="6.327" ry="6.327" transform="translate(49.224 32.043)"/><path class="i" d="M981.388,276.46h-.378a15.5,15.5,0,0,0,15.486,15.4v-.378A15.125,15.125,0,0,1,981.388,276.46Z" transform="translate(-811.049 -235.935)"/><path class="i" d="M944.388,276.46h-.378a22.5,22.5,0,0,0,22.474,22.389v-.378a22.122,22.122,0,0,1-22.1-22.012Z" transform="translate(-781.037 -235.784)"/><path class="i" d="M906.378,276.46H906a29.687,29.687,0,0,0,29.654,29.567v-.378A29.308,29.308,0,0,1,906.378,276.46Z" transform="translate(-750.206 -235.609)"/></g></svg>