<svg xmlns="http://www.w3.org/2000/svg" xmlns:xlink="http://www.w3.org/1999/xlink" width="429.67" height="397.303" viewBox="0 0 429.67 397.303"><defs><linearGradient id="a" x1="0.5" y1="1.001" x2="0.5" gradientUnits="objectBoundingBox"><stop offset="0" stop-opacity="0.122"/><stop offset="0.55" stop-opacity="0.09"/><stop offset="1" stop-opacity="0.02"/></linearGradient><linearGradient id="b" x1="0.5" y1="0.999" x2="0.5" y2="0" xlink:href="#a"/></defs><g transform="translate(-462.24 0.013)"><line x1="43.26" y1="44.12" transform="translate(803.81 251.56)" fill="#795548"/><line y1="31.46" x2="44.84" transform="translate(847.07 302.14)" fill="#795548"/><rect width="4.99" height="52.89" transform="matrix(0.596, -0.803, 0.803, 0.596, 730.845, 308.409)" fill="#795548"/><line x1="29.47" y1="30.07" transform="translate(687.74 333.48)" fill="#795548"/><line y1="21.44" x2="30.56" transform="translate(717.21 367.95)" fill="#795548"/><path d="M668.29,377.85c-12.31,0-12.33,19.12,0,19.12S680.61,377.85,668.29,377.85Z" transform="translate(-146.3 -249.46)" fill="url(#a)"/><path d="M754.07,316.59c-33.12-.75-63.27,15.87-79.29,41-5.23,8.18,9.62,15.41,14.82,7.27,13.27-20.77,38.49-34,65.74-33.27,28.58.72,54.59,17.07,68.36,39.76,5.23,8.61,18.91.78,13.72-7.78C820.71,336,788.29,317.36,754.07,316.59Z" transform="translate(-146.3 -249.46)" fill="url(#b)"/><path d="M871.63,296.42a153,153,0,0,0-219-1.65c-57.91,58.38-58.89,153.43-2.25,213A153,153,0,0,0,846.6,529.46l110.6,115a7.44,7.44,0,0,0,10.53.21l27.56-26.5a7.44,7.44,0,0,0,.21-10.53l-110.6-115A153,153,0,0,0,871.63,296.42ZM837.18,481.34a109.43,109.43,0,1,1,3-154.73,109.43,109.43,0,0,1-3,154.73Z" transform="translate(-146.3 -249.46)" fill="#696969"/><path d="M680.29,372c-12.31,0-12.33,19.12,0,19.12S692.61,372,680.29,372Z" transform="translate(-146.3 -249.46)" fill="#696969"/><path d="M766.07,310.77c-33.12-.75-63.27,15.87-79.29,41-5.23,8.18,9.62,15.41,14.82,7.27,13.27-20.77,38.49-34,65.74-33.27,28.58.72,54.59,17.07,68.36,39.76,5.23,8.61,18.91.78,13.72-7.78C832.71,330.2,800.29,311.55,766.07,310.77Z" transform="translate(-146.3 -249.46)" fill="#696969"/></g></svg>